<svg width="413" height="161" xmlns="http://www.w3.org/2000/svg" xmlns:xlink="http://www.w3.org/1999/xlink" xml:space="preserve" overflow="hidden"><defs><clipPath id="clip0"><rect x="860" y="98" width="413" height="161"/></clipPath><linearGradient x1="45.6858" y1="143.988" x2="206.723" y2="143.988" gradientUnits="userSpaceOnUse" spreadMethod="pad" id="fill1"><stop offset="0" stop-color="#0055A3"/><stop offset="0.05" stop-color="#0055A3"/><stop offset="0.19" stop-color="#0079C1"/><stop offset="0.32" stop-color="#0095DA"/><stop offset="0.44" stop-color="#00A7E9"/><stop offset="0.52" stop-color="#00ADEE"/><stop offset="0.68" stop-color="#41C0F2"/><stop offset="0.83" stop-color="#75D0F5"/><stop offset="0.94" stop-color="#96D9F7"/><stop offset="1" stop-color="#A2DDF8"/></linearGradient><linearGradient x1="45.7356" y1="224.487" x2="206.682" y2="224.487" gradientUnits="userSpaceOnUse" spreadMethod="pad" id="fill2"><stop offset="0" stop-color="#0054A4"/><stop offset="0.05" stop-color="#0054A4"/><stop offset="0.19" stop-color="#0079C3"/><stop offset="0.32" stop-color="#0096DB"/><stop offset="0.44" stop-color="#00A8EA"/><stop offset="0.52" stop-color="#00AEEF"/><stop offset="0.53" stop-color="#02AFEF"/><stop offset="0.7" stop-color="#4AC5F4"/><stop offset="0.84" stop-color="#7ED6F7"/><stop offset="0.94" stop-color="#9FE0F9"/><stop offset="1" stop-color="#ABE4FA"/></linearGradient><linearGradient x1="73.4079" y1="228.494" x2="179.204" y2="122.699" gradientUnits="userSpaceOnUse" spreadMethod="pad" id="fill3"><stop offset="0" stop-color="#00ADEE"/><stop offset="0.12" stop-color="#0CB0EF"/><stop offset="0.35" stop-color="#2AB9F1"/><stop offset="0.64" stop-color="#5CC8F4"/><stop offset="0.99" stop-color="#A0DCF8"/><stop offset="1" stop-color="#A2DDF8"/></linearGradient><linearGradient x1="38.1616" y1="224.487" x2="214.729" y2="224.487" gradientUnits="userSpaceOnUse" spreadMethod="pad" id="fill4"><stop offset="0" stop-color="#0055A3"/><stop offset="0.23" stop-color="#0078C0"/><stop offset="0.48" stop-color="#0095D9"/><stop offset="0.69" stop-color="#00A7E9"/><stop offset="0.84" stop-color="#00ADEE"/><stop offset="1" stop-color="#00ADEE"/></linearGradient><linearGradient x1="67.1558" y1="182.013" x2="185.626" y2="182.013" gradientUnits="userSpaceOnUse" spreadMethod="pad" id="fill5"><stop offset="0" stop-color="#AFB9DD"/><stop offset="0.25" stop-color="#A4BDE1"/><stop offset="0.7" stop-color="#85C6EC"/><stop offset="1" stop-color="#6DCEF5"/></linearGradient></defs><g clip-path="url(#clip0)" transform="translate(-860 -98)"><path d="M206.723 176.164C206.699 131.695 170.63 95.6657 126.16 95.6899 81.6915 95.7141 45.6617 131.783 45.6858 176.252 45.6888 181.638 46.232 187.009 47.3073 192.286L205.102 192.286C206.177 186.979 206.718 181.579 206.717 176.164" fill="url(#fill1)" transform="matrix(1.0021 0 0 1 814.235 2.31073)"/><path d="M126.211 256.689C164.461 256.682 197.431 229.775 205.104 192.303L47.3135 192.286C54.984 229.764 87.9555 256.679 126.211 256.689Z" fill="url(#fill2)" transform="matrix(1.0021 0 0 1 814.235 2.31073)"/><path d="M201.02 175.599C201.019 216.863 167.567 250.312 126.303 250.311 85.04 250.31 51.5901 216.859 51.5913 175.595 51.5925 134.331 85.0444 100.882 126.308 100.882 167.57 100.883 201.019 134.333 201.02 175.595Z" fill="url(#fill3)" transform="matrix(1.0021 0 0 1 814.235 2.31073)"/><path d="M126.211 256.689C164.461 256.682 197.431 229.775 205.104 192.303L47.3135 192.286C54.984 229.764 87.9555 256.679 126.211 256.689Z" fill="url(#fill4)" transform="matrix(1.0021 0 0 1 814.235 2.31073)"/><path d="M67.2117 130.721C67.2117 130.721 126.198 127.838 126.186 148.408 126.186 126.26 185.626 131.876 185.626 131.876L185.582 215.501C185.582 215.501 134.945 216.408 126.248 233.443 118.501 217.495 67.1558 214.805 67.1558 214.805Z" fill="url(#fill5)" transform="matrix(1.0021 0 0 1 814.235 2.31073)"/><path d="M0 0 52.9605 0 52.9605 65.7518 0 65.7518Z" fill="#BBC4E3" transform="matrix(1.0021 0 0 1 914.246 150.457)"/><path d="M221.304 217.135 214.551 217.135 217.433 203.685 219.247 203.685 216.719 215.52 221.689 215.52Z" fill="#00AEEF" transform="matrix(1.0021 0 0 1 814.235 2.31073)"/><path d="M225.199 217.135 223.403 217.135 225.466 207.493 227.261 207.493ZM226.752 205.667C226.191 205.712 225.699 205.294 225.655 204.733 225.651 204.69 225.65 204.648 225.652 204.605 225.659 203.852 226.267 203.245 227.019 203.238 227.597 203.197 228.1 203.632 228.141 204.211 228.143 204.241 228.144 204.27 228.143 204.3 228.133 205.061 227.512 205.671 226.752 205.667Z" fill="#00AEEF" transform="matrix(1.0021 0 0 1 814.235 2.31073)"/><path d="M236.182 204.648C235.778 204.361 235.293 204.21 234.797 204.22 233.84 204.22 233.064 204.841 232.753 206.381L232.529 207.493 234.859 207.493 234.269 208.96 232.343 208.96C231.585 213.613 230.976 219.328 227.566 221.875L226.503 220.751C229.156 218.34 229.665 214.538 230.585 208.947L229.156 208.947 229.361 207.481 230.746 207.481 230.989 206.239C231.542 203.399 233.399 202.685 234.865 202.685 235.597 202.669 236.319 202.86 236.946 203.238Z" fill="#00AEEF" transform="matrix(1.0021 0 0 1 814.235 2.31073)"/><path d="M241.425 208.935 239.059 208.935 237.878 214.42C237.825 214.64 237.797 214.865 237.797 215.091 237.759 215.473 238.038 215.815 238.42 215.853 238.478 215.859 238.535 215.858 238.593 215.849 239.165 215.818 239.723 215.659 240.226 215.383L240.699 216.626C239.854 217.067 238.918 217.306 237.965 217.321 236.984 217.435 236.096 216.73 235.983 215.748 235.968 215.612 235.968 215.476 235.983 215.34 235.991 215.031 236.024 214.723 236.083 214.42L237.263 208.935 235.654 208.935 235.983 207.487 237.599 207.487 238.046 205.307 239.86 204.878 239.307 207.487 242.04 207.487Z" fill="#00AEEF" transform="matrix(1.0021 0 0 1 814.235 2.31073)"/><path d="M244.202 217.135 242.407 217.135 244.47 207.493 246.265 207.493ZM245.768 205.667C245.207 205.712 244.716 205.294 244.671 204.733 244.667 204.69 244.666 204.648 244.668 204.605 244.675 203.852 245.283 203.245 246.035 203.238 246.613 203.197 247.116 203.632 247.157 204.211 247.159 204.241 247.16 204.27 247.159 204.3 247.15 205.061 246.528 205.671 245.768 205.667Z" fill="#00AEEF" transform="matrix(1.0021 0 0 1 814.235 2.31073)"/><path d="M256.217 211.842 255.074 217.147 253.26 217.147 254.465 211.556C254.596 211.03 254.671 210.49 254.689 209.947 254.689 209.326 254.44 208.885 253.707 208.885 252.707 208.885 250.688 209.985 249.98 213.29L249.166 217.166 247.371 217.166 249.464 207.493 250.893 207.493 250.589 209.45 250.589 209.45C251.398 208.155 252.79 207.338 254.316 207.264 255.448 207.175 256.438 208.021 256.527 209.153 256.536 209.279 256.535 209.406 256.522 209.531 256.504 210.31 256.402 211.085 256.217 211.842Z" fill="#00AEEF" transform="matrix(1.0021 0 0 1 814.235 2.31073)"/><path d="M265.747 217.464C265.194 220.117 263.883 221.956 261.013 221.956 259.838 221.996 258.674 221.715 257.646 221.142L258.342 219.67C259.082 220.151 259.944 220.413 260.827 220.428 262.69 220.428 263.542 219.427 264.07 217.222L264.417 215.756 264.417 215.756C263.697 216.728 262.564 217.308 261.355 217.328 259.746 217.328 258.559 216.247 258.559 213.78 258.559 210.761 260.479 207.27 264.902 207.27 265.902 207.266 266.892 207.454 267.822 207.823ZM264.299 208.81C261.87 208.81 260.317 211.295 260.317 213.501 260.317 214.948 260.765 215.824 261.827 215.824 262.641 215.824 264.436 215.01 265.151 211.724L265.722 209.034C265.265 208.874 264.783 208.798 264.299 208.81Z" fill="#00AEEF" transform="matrix(1.0021 0 0 1 814.235 2.31073)"/><path d="M280.073 217.135 273.345 217.135 276.221 203.685 278.035 203.685 275.507 215.52 280.476 215.52Z" fill="#00AEEF" transform="matrix(1.0021 0 0 1 814.235 2.31073)"/><path d="M283.974 217.135 282.179 217.135 284.241 207.493 286.037 207.493ZM285.546 205.667C284.985 205.715 284.492 205.3 284.442 204.74 284.439 204.695 284.438 204.65 284.44 204.605 284.447 203.852 285.055 203.245 285.807 203.238 286.385 203.197 286.888 203.632 286.929 204.211 286.931 204.241 286.932 204.27 286.931 204.3 286.924 205.059 286.305 205.671 285.546 205.667Z" fill="#00AEEF" transform="matrix(1.0021 0 0 1 814.235 2.31073)"/><path d="M291.137 217.197 289.665 217.197 287.851 207.493 289.565 207.493 290.342 212.066C290.522 213.19 290.665 214.103 290.77 214.818L290.814 214.818C291.143 214.147 291.528 213.308 292.056 212.37L294.653 207.493 296.548 207.493Z" fill="#00AEEF" transform="matrix(1.0021 0 0 1 814.235 2.31073)"/><path d="M304.81 212.712 298.728 212.793C298.486 215.079 299.872 215.83 300.952 215.83 301.947 215.819 302.919 215.537 303.767 215.017L304.214 216.259C303.12 216.91 301.877 217.269 300.605 217.303 298.219 217.303 296.877 215.588 296.877 213.221 296.877 209.811 299.101 207.245 301.978 207.245 304.226 207.245 305.264 208.612 305.264 210.407 305.235 211.194 305.082 211.973 304.81 212.712ZM301.847 208.736C300.418 208.736 299.294 210.022 299.008 211.37L303.357 211.326C303.483 211.03 303.553 210.711 303.562 210.388 303.633 209.544 303.006 208.802 302.162 208.73 302.057 208.721 301.951 208.724 301.847 208.736Z" fill="#00AEEF" transform="matrix(1.0021 0 0 1 814.235 2.31073)"/><path d="M313.172 209.258C312.533 208.961 311.839 208.801 311.135 208.786 310.153 208.786 309.544 209.152 309.544 209.867 309.544 211.581 312.607 211.73 312.607 214.395 312.607 216.315 311.141 217.315 308.973 217.315 307.949 217.331 306.944 217.055 306.071 216.52L306.786 215.135C307.386 215.601 308.125 215.853 308.886 215.849 310.066 215.849 310.824 215.402 310.824 214.482 310.824 212.849 307.718 212.668 307.718 210.034 307.718 208.506 308.861 207.257 311.066 207.257 311.889 207.255 312.705 207.4 313.477 207.686Z" fill="#00AEEF" transform="matrix(1.0021 0 0 1 814.235 2.31073)"/><path d="M327.964 210.177 327.964 210.221C329.045 210.528 329.766 211.546 329.697 212.668 329.697 215.035 327.74 217.135 323.92 217.135L320.515 217.135 323.392 203.685 326.268 203.685C329.206 203.685 330.107 205.381 330.107 206.791 330.134 208.247 329.291 209.579 327.964 210.177ZM325.435 211.078 323.665 211.078 322.727 215.526 324.398 215.526C326.622 215.526 327.865 214.346 327.865 212.892 327.84 211.73 327.026 211.078 325.435 211.078ZM326.274 205.3 324.907 205.3 323.988 209.506 325.578 209.506C326.984 209.575 328.178 208.492 328.247 207.087 328.248 207.065 328.249 207.043 328.25 207.021 328.231 206.121 327.722 205.3 326.274 205.3Z" fill="#0054A4" transform="matrix(1.0021 0 0 1 814.235 2.31073)"/><path d="M339.885 212.811C339.376 215.116 339.333 216.017 339.475 216.911L338.109 217.259C337.95 216.742 337.848 216.208 337.804 215.669 336.963 216.701 335.706 217.306 334.375 217.321 333.232 217.321 332.052 216.7 332.052 214.774 332.093 214.009 332.209 213.249 332.4 212.507L333.48 207.493 335.301 207.493 333.996 213.432C333.922 213.767 333.88 214.108 333.872 214.451 333.872 215.389 334.301 215.818 335.114 215.818 336.257 215.818 337.705 214.656 338.134 212.656L339.258 207.493 341.06 207.493Z" fill="#0054A4" transform="matrix(1.0021 0 0 1 814.235 2.31073)"/><path d="M344.11 217.135 342.302 217.135 344.377 207.493 346.172 207.493ZM345.675 205.667C345.114 205.712 344.623 205.294 344.578 204.733 344.575 204.69 344.574 204.648 344.576 204.605 344.583 203.852 345.191 203.245 345.943 203.238 346.521 203.197 347.023 203.632 347.064 204.211 347.066 204.241 347.068 204.27 347.067 204.3 347.057 205.061 346.436 205.671 345.675 205.667Z" fill="#0054A4" transform="matrix(1.0021 0 0 1 814.235 2.31073)"/><path d="M349.614 214.526C349.579 214.694 349.558 214.864 349.552 215.035 349.552 215.688 349.943 215.731 350.881 215.607L350.881 216.911C350.332 217.193 349.721 217.334 349.105 217.321 348.367 217.387 347.715 216.842 347.648 216.104 347.64 216.001 347.642 215.896 347.657 215.793 347.657 215.512 347.683 215.231 347.738 214.955L350.347 202.691 352.142 202.691Z" fill="#0054A4" transform="matrix(1.0021 0 0 1 814.235 2.31073)"/><path d="M361.001 216.626C360.027 217.074 358.968 217.311 357.895 217.321 355.342 217.321 353.59 215.65 353.59 213.078 353.59 209.711 355.976 207.264 359.529 207.264 360.08 207.259 360.63 207.328 361.163 207.469L362.207 202.691 364.002 202.691ZM359.392 208.773C357.187 208.773 355.373 210.283 355.373 212.936 355.373 214.836 356.615 215.83 358.007 215.83 358.505 215.831 358.998 215.727 359.454 215.526L360.821 209.04C360.368 208.854 359.882 208.763 359.392 208.773Z" fill="#0054A4" transform="matrix(1.0021 0 0 1 814.235 2.31073)"/><path d="M365.859 217.135 364.045 217.135 366.127 207.493 367.922 207.493ZM367.431 205.667C366.867 205.712 366.373 205.291 366.328 204.727 366.325 204.686 366.323 204.646 366.325 204.605 366.335 203.854 366.942 203.248 367.692 203.238 368.27 203.197 368.772 203.632 368.814 204.211 368.816 204.241 368.817 204.27 368.816 204.3 368.81 205.059 368.19 205.671 367.431 205.667Z" fill="#0054A4" transform="matrix(1.0021 0 0 1 814.235 2.31073)"/><path d="M377.88 211.842 376.737 217.147 374.923 217.147 376.128 211.556C376.26 211.03 376.335 210.49 376.352 209.947 376.352 209.326 376.11 208.885 375.377 208.885 374.377 208.885 372.358 209.985 371.649 213.29L370.879 217.135 369.084 217.135 371.134 207.493 372.563 207.493 372.258 209.45 372.258 209.45C373.068 208.155 374.46 207.338 375.986 207.264 377.117 207.175 378.108 208.021 378.196 209.153 378.206 209.279 378.205 209.406 378.191 209.531 378.164 210.31 378.06 211.084 377.88 211.842Z" fill="#0054A4" transform="matrix(1.0021 0 0 1 814.235 2.31073)"/><path d="M387.41 217.464C386.857 220.117 385.546 221.956 382.676 221.956 381.501 221.996 380.337 221.715 379.309 221.142L380.005 219.67C380.746 220.151 381.607 220.413 382.49 220.428 384.354 220.428 385.205 219.427 385.733 217.222L386.081 215.756 386.081 215.756C385.36 216.728 384.228 217.308 383.018 217.328 381.409 217.328 380.222 216.247 380.222 213.78 380.222 210.761 382.142 207.27 386.571 207.27 387.571 207.266 388.562 207.454 389.491 207.823ZM385.963 208.81C383.534 208.81 381.981 211.295 381.981 213.501 381.981 214.948 382.428 215.824 383.49 215.824 384.304 215.824 386.099 215.01 386.814 211.724L387.385 209.034C386.928 208.875 386.447 208.799 385.963 208.81Z" fill="#0054A4" transform="matrix(1.0021 0 0 1 814.235 2.31073)"/><path d="M403.755 205.3 399.325 205.3 398.406 209.568 402.755 209.568 402.425 211.159 398.077 211.159 396.791 217.135 394.977 217.135 397.853 203.685 404.382 203.685Z" fill="#0054A4" transform="matrix(1.0021 0 0 1 814.235 2.31073)"/><path d="M412.98 212.811C412.471 215.116 412.427 216.017 412.57 216.911L411.204 217.259C411.045 216.742 410.943 216.208 410.899 215.669 410.057 216.701 408.801 217.306 407.47 217.321 406.327 217.321 405.146 216.7 405.146 214.774 405.188 214.009 405.304 213.249 405.494 212.507L406.575 207.487 408.396 207.487 407.091 213.426C407.016 213.761 406.975 214.102 406.967 214.445 406.967 215.383 407.395 215.812 408.209 215.812 409.352 215.812 410.8 214.65 411.228 212.65L412.353 207.487 414.167 207.487Z" fill="#0054A4" transform="matrix(1.0021 0 0 1 814.235 2.31073)"/><path d="M421.821 208.935 419.454 208.935 418.273 214.42C418.22 214.64 418.192 214.865 418.192 215.091 418.154 215.473 418.433 215.815 418.815 215.853 418.873 215.859 418.931 215.858 418.988 215.849 419.56 215.818 420.118 215.659 420.622 215.383L421.087 216.626C420.243 217.067 419.307 217.306 418.354 217.321 417.372 217.435 416.485 216.73 416.372 215.748 416.357 215.612 416.357 215.476 416.372 215.34 416.379 215.031 416.414 214.723 416.478 214.42L417.658 208.935 416.043 208.935 416.372 207.487 417.987 207.487 418.435 205.307 420.249 204.878 419.696 207.487 422.442 207.487Z" fill="#0054A4" transform="matrix(1.0021 0 0 1 814.235 2.31073)"/><path d="M431.288 212.811C430.779 215.116 430.735 216.017 430.878 216.911L429.511 217.259C429.353 216.742 429.251 216.208 429.207 215.669 428.365 216.701 427.109 217.306 425.778 217.321 424.635 217.321 423.454 216.7 423.454 214.774 423.495 214.009 423.612 213.249 423.802 212.507L424.883 207.487 426.703 207.487 425.399 213.426C425.324 213.761 425.283 214.102 425.275 214.445 425.275 215.383 425.703 215.812 426.517 215.812 427.66 215.812 429.108 214.65 429.536 212.65L430.661 207.487 432.475 207.487Z" fill="#0054A4" transform="matrix(1.0021 0 0 1 814.235 2.31073)"/><path d="M440.104 209.258C439.823 209.12 439.515 209.05 439.203 209.053 438.184 209.053 437.022 210.034 436.246 213.662L435.488 217.129 433.692 217.129 435.798 207.493 437.227 207.493 436.923 209.45 436.923 209.45C437.544 208.084 438.389 207.264 439.619 207.264 440.087 207.249 440.548 207.376 440.942 207.63Z" fill="#0054A4" transform="matrix(1.0021 0 0 1 814.235 2.31073)"/><path d="M449.155 212.712 443.073 212.793C442.831 215.079 444.216 215.83 445.297 215.83 446.292 215.819 447.264 215.537 448.111 215.017L448.559 216.259C447.465 216.91 446.221 217.269 444.949 217.303 442.564 217.303 441.222 215.588 441.222 213.221 441.222 209.811 443.446 207.245 446.322 207.245 448.565 207.245 449.608 208.612 449.608 210.407 449.58 211.194 449.427 211.973 449.155 212.712ZM446.161 208.736C444.732 208.736 443.607 210.022 443.322 211.37L447.67 211.326C447.798 211.03 447.867 210.711 447.875 210.388 447.947 209.544 447.32 208.802 446.476 208.73 446.371 208.721 446.265 208.724 446.161 208.736Z" fill="#0054A4" transform="matrix(1.0021 0 0 1 814.235 2.31073)"/><path d="M457.486 209.258C456.847 208.961 456.153 208.801 455.448 208.786 454.467 208.786 453.858 209.152 453.858 209.867 453.858 211.581 456.92 211.73 456.92 214.395 456.92 216.315 455.454 217.315 453.286 217.315 452.263 217.331 451.257 217.055 450.385 216.52L451.099 215.135C451.7 215.601 452.439 215.853 453.199 215.849 454.38 215.849 455.138 215.402 455.138 214.482 455.138 212.849 452.031 212.668 452.031 210.034 452.031 208.506 453.174 207.257 455.38 207.257 456.202 207.255 457.019 207.4 457.79 207.686Z" fill="#0054A4" transform="matrix(1.0021 0 0 1 814.235 2.31073)"/><path d="M74.8095 192.099 63.2234 192.099 63.2234 149.426 75.6481 149.426C83.6124 149.426 87.1721 155.017 87.1721 159.987 87.1721 164.386 85.2338 167.498 81.7363 169.306L81.7363 169.443C86.203 170.027 89.8124 173.847 89.8124 179.283 89.831 185.359 86.0787 192.099 74.8095 192.099ZM68.9574 154.552 68.9574 167.734 74.1385 167.734C77.574 167.734 81.1337 165.336 81.1337 160.938 81.1337 156.993 78.8102 154.533 73.8155 154.533ZM75.3748 172.872 68.9885 172.872 68.9885 186.993 74.8778 186.993C80.6429 186.993 83.6807 183.886 83.6807 179.612 83.6807 175.81 80.8355 172.872 75.3996 172.872Z" fill="#FFFFFF" transform="matrix(1.0021 0 0 1 814.235 2.31073)"/><path d="M109.586 167.038C108.638 166.575 107.598 166.333 106.542 166.33 104.467 166.33 102.467 167.424 99.9385 169.697L99.9385 192.105 94.2418 192.105 94.2418 161.472 98.9694 161.472 99.7459 164.908C103.567 161.404 105.902 160.696 108.164 160.696 109.468 160.675 110.751 161.036 111.854 161.733Z" fill="#FFFFFF" transform="matrix(1.0021 0 0 1 814.235 2.31073)"/><path d="M136.492 164.752C139.213 167.598 140.704 171.735 140.704 176.655 140.704 181.575 139.145 185.787 136.355 188.639 133.833 191.229 130.336 192.658 126.192 192.658 122.173 192.658 118.806 191.36 116.283 188.894 113.432 186.048 111.885 181.712 111.885 176.724 111.885 171.735 113.432 167.591 116.234 164.678 121.89 159.206 130.876 159.239 136.492 164.752ZM117.725 176.599C117.725 183.389 120.961 187.931 126.341 187.931 131.721 187.931 134.809 183.333 134.809 176.599 134.809 169.865 131.702 165.33 126.198 165.33 120.694 165.33 117.725 169.865 117.725 176.599Z" fill="#FFFFFF" transform="matrix(1.0021 0 0 1 814.235 2.31073)"/><path d="M166.684 192.105 166.684 173.518C166.684 169.964 166.1 165.945 161.64 165.945 158.273 165.945 155.092 168.15 152.706 170.219L152.706 192.105 147.01 192.105 147.01 161.472 151.799 161.472 152.508 164.976C155.999 162.379 159.111 160.696 163.386 160.696 167.852 160.696 172.449 163.74 172.449 171.573L172.449 192.074 166.684 192.074Z" fill="#FFFFFF" transform="matrix(1.0021 0 0 1 814.235 2.31073)"/><path d="M199.094 161.472 205.182 161.472 194.044 176.556 204.984 192.087 198.585 192.087 190.614 180.842 182.265 192.105 176.053 192.105 187.384 176.748 176.562 161.472 183.104 161.472 190.875 172.48Z" fill="#FFFFFF" transform="matrix(1.0021 0 0 1 814.235 2.31073)"/><path d="M245.116 161.472 238.058 184.657 237.86 184.657 230.479 161.472 225.621 161.472 218.365 184.588 218.173 184.588 210.991 161.472 205.158 161.472 215.582 192.099 220.446 192.099 227.758 168.859 227.957 168.859 235.275 192.099 240.195 192.099 250.62 161.472Z" fill="#0054A4" transform="matrix(1.0021 0 0 1 814.235 2.31073)"/><path d="M266.064 160.702C262.295 160.62 258.66 162.1 256.018 164.79 253.241 167.703 251.67 171.841 251.67 176.835 251.67 181.83 253.229 186.154 256.08 188.999 258.603 191.484 261.97 192.727 265.983 192.727 270.127 192.727 273.624 191.304 276.146 188.707 278.936 185.85 280.495 181.65 280.495 176.724 280.495 171.797 279.004 167.666 276.283 164.821 273.606 162.075 269.897 160.58 266.064 160.702ZM266.126 188.036C260.752 188.036 257.516 183.501 257.516 176.705 257.516 169.909 260.497 165.436 265.995 165.436 271.493 165.436 274.587 169.896 274.587 176.699 274.587 183.501 271.481 188.03 266.126 188.03Z" fill="#0054A4" transform="matrix(1.0021 0 0 1 814.235 2.31073)"/><path d="M291.982 164.914 291.211 161.478 286.478 161.478 286.478 192.112 292.174 192.112 292.174 169.704C294.709 167.43 296.709 166.336 298.784 166.336 299.837 166.343 300.875 166.585 301.822 167.045L304.084 161.739C302.981 161.042 301.698 160.681 300.393 160.702 298.145 160.702 295.809 161.416 291.982 164.914Z" fill="#0054A4" transform="matrix(1.0021 0 0 1 814.235 2.31073)"/><path d="M331.729 161.478 324.609 161.478 313.856 172.164 313.731 172.164 313.731 146.264 308.028 146.264 308.028 192.112 313.731 192.112 313.731 176.761 313.856 176.761 326.231 192.112 333.288 192.112 318.589 174.176Z" fill="#0054A4" transform="matrix(1.0021 0 0 1 814.235 2.31073)"/><path d="M342.544 168.865C342.544 166.38 344.818 165.374 347.794 165.374 350.975 165.374 353.385 166.281 355.702 167.237L355.702 162.317C353.125 161.217 350.347 160.665 347.545 160.696 340.426 160.696 336.928 164.454 336.928 169.12 336.928 179.805 350.912 177.339 350.912 184.141 350.912 186.732 348.39 188.285 344.824 188.285 342.082 188.225 339.411 187.392 337.121 185.881L335.108 190.229C338.066 191.978 341.458 192.855 344.893 192.758 351.496 192.758 356.808 190.105 356.808 183.563 356.802 173.325 342.544 175.015 342.544 168.865Z" fill="#0054A4" transform="matrix(1.0021 0 0 1 814.235 2.31073)"/></g></svg>