<svg width="553" height="167" viewBox="0 0 553 167" fill="none" xmlns="http://www.w3.org/2000/svg">
<g clip-path="url(#clip0_116_832)">
<path d="M167.13 83.54C165.38 84.49 163.43 84.92 161.56 85.54C142.59 91.88 123.62 98.2 104.65 104.52C97.73 97.63 90.81 90.74 83.69 83.66C83.69 84.39 83.69 84.81 83.69 85.24C83.69 97.74 83.69 110.25 83.69 122.75C83.69 137.49 83.7 152.23 83.71 166.97C83.26 167.06 83.39 166.63 83.33 166.47C76.45 145.87 69.58 125.27 62.72 104.66C62.85 104.12 63.29 103.81 63.66 103.44C69.93 97.17 76.21 90.9 82.48 84.62C82.77 84.33 83.2 84.12 83.27 83.54H82.3C55.28 83.54 28.26 83.54 1.24 83.54C0.879997 83.54 0.519997 83.58 0.169997 83.6L0.129997 83.56C0.199997 83.5 0.219997 83.43 0.199997 83.34C20.79 76.48 41.38 69.62 61.98 62.76C62.17 62.7 62.36 62.65 62.56 62.6C63.12 62.71 63.41 63.17 63.77 63.53C70.05 69.8 76.32 76.07 82.61 82.34C82.9 82.62 83.09 83.08 83.67 83.08C83.67 82.62 83.67 82.18 83.67 81.75C83.67 55.1 83.67 28.45 83.68 1.8C83.68 1.31 83.47 0.76 83.89 0.32C90.81 21.08 97.73 41.83 104.64 62.59C104.29 62.97 103.94 63.36 103.57 63.72C97.33 69.96 91.09 76.2 84.85 82.44C84.56 82.73 84.29 83.05 83.86 83.53H85.41C111.17 83.53 136.93 83.53 162.7 83.53C164.18 83.53 165.66 83.55 167.13 83.55V83.54Z" fill="#21558A"/>
<path d="M12.45 75.71C12.87 71.71 13.54 67.82 14.71 64.05C22.78 38.19 39.85 21.53 65.94 14.16C68.86 13.33 71.86 12.85 74.87 12.47C75.83 12.35 75.85 12.56 75.58 13.37C73.13 20.65 70.71 27.94 68.3 35.23C68.12 35.77 67.82 36.06 67.28 36.25C52.2 41.75 41.89 52.05 36.35 67.11C36.16 67.62 35.95 67.98 35.37 68.17C28.02 70.59 20.68 73.04 13.34 75.48C13.08 75.57 12.8 75.61 12.44 75.7L12.45 75.71Z" fill="#1C0F68"/>
<path d="M91.58 12.41C96.2 12.86 100.74 13.84 105.2 15.25C116.32 18.77 126.06 24.63 134.27 32.9C145.63 44.33 152.42 58.09 154.65 74.06C154.9 75.83 154.89 75.83 153.19 75.27C146.17 72.92 139.15 70.57 132.12 68.25C131.43 68.02 131.12 67.67 130.87 67.01C125.32 52.07 115.07 41.81 100.09 36.3C99.6 36.12 99.2 35.95 99 35.35C96.55 27.91 94.06 20.47 91.59 13.04C91.53 12.87 91.38 12.69 91.57 12.42L91.58 12.41Z" fill="#4D5B02"/>
<path d="M12.44 91.26C15.33 92.23 18.04 93.14 20.76 94.04C25.56 95.64 30.35 97.26 35.16 98.82C35.85 99.05 36.18 99.41 36.42 100.06C41.95 115.03 52.22 125.26 67.2 130.76C67.84 130.99 68.14 131.35 68.34 131.97C70.73 139.19 73.12 146.4 75.55 153.6C75.87 154.54 75.79 154.71 74.74 154.57C47.19 150.99 24.54 132.46 15.67 106.19C14.06 101.42 13 96.53 12.44 91.26Z" fill="#81026E"/>
<path d="M154.76 92.03C153.81 99.79 151.88 106.99 148.57 113.73C137.6 136.08 119.83 149.56 95.34 154.17C94.4 154.35 93.43 154.36 92.5 154.57C91.47 154.79 91.45 154.45 91.74 153.61C93.19 149.35 94.59 145.07 96.01 140.8C96.99 137.85 98.01 134.92 98.95 131.96C99.16 131.32 99.48 130.99 100.11 130.76C115.14 125.22 125.41 114.93 130.92 99.9C131.14 99.3 131.47 99.03 132.05 98.84C139.25 96.47 146.44 94.07 153.63 91.68C154.28 91.46 154.96 91.12 154.75 92.05L154.76 92.03Z" fill="#E9AF15"/>
<path d="M18.55 35.8C8.98 35.8 1.17 28.08 1.17 18.61C1.17 8.8 8.83 1.07 18.56 1.07C28.14 1.07 35.91 8.86 35.91 18.44C35.91 28.02 28.14 35.79 18.55 35.8Z" fill="#1C0F68"/>
<path d="M131.39 18.3C131.56 8.41 139.41 0.890001 149.36 1.08C158.63 1.26 166.35 9.34 166.17 18.65C165.98 28.44 158.12 35.95 148.23 35.8C138.94 35.66 131.23 27.65 131.4 18.29L131.39 18.3Z" fill="#4D5B02"/>
<path d="M1.16 148.6C1.16 139 8.9 131.25 18.5 131.23C28.11 131.21 35.92 139.04 35.9 148.68C35.89 158.23 28.05 166.01 18.47 165.99C8.87 165.96 1.15 158.21 1.15 148.6H1.16Z" fill="#81026E"/>
<path d="M148.76 131.23C158.33 131.23 166.18 139.08 166.17 148.62C166.16 158.18 158.33 166 148.76 166C139.16 166 131.36 158.2 131.39 148.62C131.42 138.99 139.17 131.23 148.76 131.23Z" fill="#E9AF15"/>
<path d="M83.89 0.310001C83.47 0.750001 83.68 1.3 83.68 1.79C83.67 28.44 83.67 55.09 83.67 81.74C83.67 82.17 83.67 82.61 83.67 83.07C83.09 83.07 82.89 82.62 82.61 82.33C76.33 76.07 70.05 69.79 63.77 63.52C63.41 63.16 63.11 62.7 62.56 62.59C64.08 58.1 65.62 53.62 67.13 49.12C72.52 32.98 77.9 16.83 83.31 0.690001C83.33 0.630001 83.09 -0.559999 83.9 0.290001L83.89 0.310001Z" fill="#53A7D7"/>
<path d="M0.160004 83.59C0.520004 83.57 0.880004 83.53 1.23 83.53C28.25 83.53 55.27 83.53 82.29 83.53H83.26C83.19 84.11 82.76 84.32 82.47 84.61C76.2 90.89 69.93 97.16 63.65 103.43C63.29 103.79 62.85 104.11 62.71 104.65C59.77 103.41 56.7 102.54 53.68 101.53C36.17 95.67 18.65 89.85 1.13 84.01C0.800004 83.9 0.480004 83.73 0.160004 83.59Z" fill="#53A7D7"/>
<path d="M167.13 83.54C165.65 83.54 164.17 83.52 162.7 83.52C136.94 83.52 111.18 83.52 85.41 83.52H83.86C84.29 83.05 84.56 82.73 84.85 82.43C91.09 76.19 97.33 69.95 103.57 63.71C103.94 63.34 104.28 62.95 104.64 62.58C113.86 65.64 123.08 68.71 132.3 71.78C143.57 75.53 154.83 79.28 166.09 83.05C166.45 83.17 166.89 83.15 167.12 83.55L167.13 83.54Z" fill="#53A7D7"/>
<path d="M83.7 166.96C83.7 152.22 83.69 137.48 83.68 122.74C83.68 110.24 83.68 97.73 83.68 85.23C83.68 84.8 83.68 84.38 83.68 83.65C90.8 90.74 97.72 97.62 104.64 104.51C97.81 124.97 90.99 145.42 84.16 165.87C84.04 166.24 83.85 166.59 83.7 166.95V166.96Z" fill="#53A7D7"/>
<path d="M293.38 70.53C299.22 60.53 313.9 62.56 317.84 72.27C318.2 71.71 318.5 71.22 318.81 70.74C324.43 61.93 334.93 62.68 340.16 66.92C343.61 69.72 345.1 73.59 345.86 77.82C346.26 80.03 346.36 82.26 346.36 84.5C346.35 92.61 346.33 101.4 346.38 109.51C346.38 110.53 346.09 110.75 345.12 110.74C341.88 110.68 338.64 110.68 335.41 110.74C334.47 110.76 334.3 110.46 334.31 109.59C334.34 101.52 334.33 92.77 334.33 84.7C334.33 83.38 334.25 82.07 333.93 80.78C333.02 77.17 330.2 75.23 326.3 75.54C322.69 75.83 320.27 78.22 319.98 81.86C319.87 83.29 319.88 84.73 319.88 86.17C319.88 93.72 319.85 101.95 319.9 109.5C319.9 110.52 319.6 110.75 318.63 110.73C315.43 110.67 312.23 110.65 309.04 110.73C307.91 110.76 307.75 110.38 307.76 109.38C307.8 100.95 307.79 91.84 307.78 83.41C307.78 80.83 307.11 78.49 304.93 76.86C301.05 73.96 294.98 75.66 293.73 80C293.46 80.92 293.38 81.88 293.38 82.84C293.38 91.51 293.37 100.86 293.41 109.53C293.41 110.47 293.17 110.73 292.23 110.72C288.91 110.66 285.59 110.67 282.28 110.72C281.54 110.72 281.35 110.52 281.35 109.78C281.37 95.24 281.37 80.01 281.35 65.47C281.35 64.83 281.47 64.54 282.19 64.55C285.63 64.58 289.07 64.59 292.5 64.55C293.3 64.55 293.41 64.88 293.4 65.55C293.36 67.1 293.39 68.65 293.39 70.52L293.38 70.53Z" fill="#2C7ABD"/>
<path d="M530.26 45.73C537.58 45.75 544.22 47.98 550.35 51.89C550.99 52.3 550.99 52.63 550.69 53.23C549.25 56.04 547.83 58.85 546.46 61.68C546.09 62.44 545.82 62.55 545.1 62.07C541.43 59.64 537.44 57.95 533.04 57.42C529.67 57.01 526.33 57.18 523.15 58.52C520.82 59.5 519.23 61.12 519.07 63.79C518.89 66.66 520.18 68.71 522.67 70.02C525.29 71.39 528.2 71.8 531.04 72.39C534.52 73.12 537.99 73.82 541.34 75.04C548.49 77.63 552.14 82.75 552.3 90.36C552.41 95.22 551.44 99.73 548.17 103.51C545.31 106.8 541.61 108.72 537.42 109.62C526.11 112.05 515.44 110.59 505.69 104.06C503.96 102.9 503.99 102.86 505.01 101.06C506.32 98.73 507.67 96.42 508.93 94.06C509.42 93.13 509.71 92.92 510.7 93.62C517.67 98.56 525.38 100.16 533.77 98.52C534.83 98.31 535.82 97.89 536.77 97.36C539.18 96.01 540.46 93.98 540.35 91.2C540.23 88.26 538.43 86.57 535.85 85.61C533.33 84.68 530.67 84.31 528.03 83.91C524.83 83.43 521.67 82.79 518.57 81.83C511.34 79.59 507.42 74.49 507.1 66.93C506.92 62.58 507.47 58.39 509.88 54.64C512.87 49.97 517.4 47.65 522.64 46.49C525.14 45.93 527.69 45.7 530.25 45.72L530.26 45.73Z" fill="#2C7ABD"/>
<path d="M476.85 45.73C484.13 45.73 490.72 47.98 496.83 51.83C497.45 52.22 497.6 52.57 497.24 53.26C495.77 56.09 494.34 58.95 492.95 61.82C492.59 62.56 492.34 62.48 491.74 62.1C487.45 59.33 482.84 57.42 477.66 57.27C474.69 57.18 471.74 57.41 469.05 58.86C464.66 61.23 464.37 66.7 468.48 69.54C470.51 70.95 472.89 71.37 475.21 71.88C479.65 72.87 484.14 73.6 488.42 75.22C494.99 77.71 498.68 82.89 498.89 89.92C499.03 94.54 498.3 98.91 495.41 102.7C492.5 106.5 488.52 108.64 483.97 109.63C473.33 111.95 463.19 110.66 453.74 105.03C452.71 104.42 451.33 103.88 450.94 102.89C450.53 101.83 451.8 100.82 452.35 99.8C453.43 97.76 454.62 95.77 455.72 93.73C456.09 93.04 456.32 92.92 457.02 93.43C463.71 98.3 471.18 100 479.33 98.76C480.88 98.52 482.35 98 483.69 97.18C485.97 95.78 487.08 93.75 486.92 91.07C486.77 88.46 485.25 86.81 482.96 85.85C480.25 84.71 477.34 84.36 474.47 83.91C470.76 83.32 467.05 82.68 463.56 81.28C457.68 78.94 454.42 74.57 453.82 68.24C453.44 64.16 453.71 60.19 455.5 56.43C458.07 51.03 462.64 48.23 468.2 46.76C471.03 46.01 473.93 45.73 476.86 45.74L476.85 45.73Z" fill="#2C7ABD"/>
<path d="M355.43 78.14C355.43 67.95 355.44 57.77 355.41 47.58C355.41 46.57 355.7 46.33 356.68 46.33C364.79 46.37 372.91 46.31 381.02 46.37C386.97 46.41 392.29 48.11 396.36 52.71C399.98 56.81 401.16 61.73 400.93 67.05C400.67 72.97 398.49 78 393.61 81.6C390.16 84.15 386.19 85.27 381.94 85.33C377.5 85.39 373.07 85.38 368.63 85.32C367.6 85.31 367.4 85.62 367.4 86.59C367.44 94.02 367.4 102.06 367.45 109.5C367.45 110.45 367.19 110.7 366.26 110.68C363.06 110.62 359.86 110.62 356.67 110.68C355.68 110.7 355.41 110.45 355.41 109.44C355.45 99.21 355.43 88.37 355.43 78.15V78.14ZM367.43 65.8C367.43 68.12 367.45 70.43 367.42 72.75C367.42 73.46 367.51 73.82 368.38 73.81C372.66 73.76 376.93 73.84 381.21 73.77C384.86 73.72 387.46 71.59 388.23 68.08C388.65 66.14 388.58 64.17 387.82 62.31C386.72 59.61 384.65 58.09 381.74 58.02C377.27 57.92 372.79 58.02 368.31 57.97C367.5 57.97 367.41 58.29 367.42 58.96C367.45 61.24 367.43 63.51 367.43 65.79V65.8Z" fill="#2C7ABD"/>
<path d="M449.97 110.68C445.77 110.68 441.92 110.67 437.82 110.69C437.18 110.69 437.15 110.24 437.01 109.85C436.04 107.11 435.05 103.72 434.14 100.95C433.88 100.15 433.54 99.83 432.64 99.83C425.61 99.87 418.57 99.87 411.54 99.83C410.72 99.83 410.36 100.08 410.1 100.86C409.2 103.58 408.18 106.92 407.29 109.65C407.01 110.5 406.6 110.71 405.76 110.7C402.28 110.65 398.81 110.68 395.33 110.68C394.377 110.68 394.067 110.247 394.4 109.38C399.64 95.68 404.89 81.33 410.13 67.63C412.71 60.89 415.29 54.16 417.83 47.41C418.13 46.61 418.5 46.29 419.38 46.33C421.22 46.4 423.06 46.38 424.89 46.33C425.63 46.31 426 46.52 426.29 47.26C434.16 67.89 442.06 89.16 449.95 109.78C450.05 110.03 450.43 110.67 449.96 110.67L449.97 110.68ZM422.1 66.68C419.62 73.78 417.27 80.54 414.88 87.29C414.6 88.07 414.77 88.23 415.55 88.22C418.54 88.19 421.54 88.21 424.53 88.21C426.19 88.21 427.85 88.21 429.65 88.21C427.14 81.06 424.68 74.05 422.1 66.68Z" fill="#2C7ABD"/>
<path d="M196.23 78.81C196.3 81.91 196.09 85.58 196.42 89.25C197.14 97.12 205.61 101.38 212.13 97.11C214.7 95.43 216.11 92.9 216.82 89.98C217.07 88.94 217.5 88.63 218.58 88.66C221.93 88.75 225.29 88.69 228.65 88.69C229.18 88.69 229.72 88.59 229.54 89.45C228.2 96.02 225.72 101.97 220.3 106.29C215.92 109.78 210.83 110.93 205.36 110.68C201.75 110.52 198.22 109.87 194.96 108.21C188.53 104.96 185.37 99.45 184.22 92.58C183.86 90.41 183.75 88.22 183.76 86.02C183.79 79.95 183.74 73.88 183.85 67.81C183.92 63.95 184.69 60.19 186.47 56.72C189.77 50.29 195.26 47.02 202.25 46.03C206.78 45.39 211.26 45.55 215.56 47.33C221.72 49.87 225.48 54.65 227.83 60.68C228.57 62.58 229.06 64.56 229.5 66.54C229.68 67.35 229.61 67.77 228.57 67.75C225.13 67.69 221.7 67.69 218.26 67.75C217.39 67.77 217.09 67.43 216.9 66.66C216.37 64.54 215.44 62.61 213.96 60.97C211.11 57.8 207.53 57.16 203.57 58.16C199.66 59.15 197.58 61.89 196.69 65.67C196.32 67.23 196.28 68.83 196.25 70.43C196.21 73.03 196.24 75.62 196.24 78.79L196.23 78.81Z" fill="#2C7ABD"/>
<path d="M234.77 87.56C234.79 83.98 234.62 80.66 235.43 77.4C237.25 70.04 242.25 65.39 249.73 64.28C253.71 63.69 257.7 63.73 261.61 64.86C267.99 66.71 272.03 70.94 273.34 77.36C274.64 83.73 274.6 90.26 273.44 96.65C271.98 104.67 266.1 109.7 257.98 110.52C254.53 110.87 251.11 110.8 247.76 109.91C240.56 107.99 235.92 102.51 235.05 95.08C234.75 92.49 234.83 89.9 234.78 87.57L234.77 87.56ZM261.87 87.36C261.87 87.36 261.91 87.36 261.92 87.36C261.92 85.68 262 84 261.9 82.33C261.68 78.28 258.99 75.73 254.83 75.52C250.55 75.31 247.53 77.52 247.01 81.56C246.53 85.32 246.54 89.14 247 92.89C247.5 97.02 250.16 99.05 254.58 99.03C258.58 99.01 261.34 96.75 261.82 92.85C262.04 91.04 261.86 89.19 261.86 87.35L261.87 87.36Z" fill="#2C7ABD"/>
<path d="M199.6 137.6C198.42 138.17 196.89 138.45 195 138.45C192.53 138.45 190.59 137.72 189.17 136.27C187.76 134.82 187.05 132.88 187.05 130.46C187.05 127.88 187.85 125.8 189.44 124.19C191.03 122.58 193.1 121.79 195.63 121.79C197.2 121.79 198.53 121.99 199.61 122.38V125.87C198.53 125.23 197.3 124.9 195.93 124.9C194.42 124.9 193.2 125.38 192.27 126.33C191.34 127.28 190.88 128.57 190.88 130.19C190.88 131.81 191.32 132.99 192.19 133.91C193.07 134.83 194.25 135.3 195.73 135.3C197.21 135.3 198.44 134.96 199.62 134.27V137.58L199.6 137.6Z" fill="black"/>
<path d="M207.77 138.45C205.85 138.45 204.35 137.91 203.25 136.84C202.15 135.77 201.6 134.31 201.6 132.47C201.6 130.63 202.17 129.08 203.31 128.01C204.45 126.94 205.99 126.4 207.93 126.4C209.87 126.4 211.34 126.94 212.42 128.01C213.51 129.08 214.05 130.51 214.05 132.27C214.05 134.18 213.49 135.69 212.37 136.8C211.25 137.91 209.72 138.46 207.77 138.46V138.45ZM207.86 129.11C207.02 129.11 206.37 129.4 205.9 129.97C205.44 130.55 205.2 131.36 205.2 132.42C205.2 134.63 206.09 135.73 207.87 135.73C209.65 135.73 210.42 134.6 210.42 132.33C210.42 130.18 209.56 129.11 207.85 129.11H207.86Z" fill="black"/>
<path d="M234.84 138.17H231.3V131.61C231.3 129.94 230.69 129.11 229.46 129.11C228.88 129.11 228.4 129.36 228.03 129.86C227.66 130.36 227.48 130.99 227.48 131.74V138.18H223.93V131.55C223.93 129.93 223.33 129.11 222.12 129.11C221.51 129.11 221.03 129.35 220.67 129.83C220.31 130.31 220.13 130.96 220.13 131.78V138.17H216.58V126.67H220.13V128.47H220.17C220.54 127.86 221.05 127.36 221.71 126.97C222.37 126.58 223.1 126.39 223.88 126.39C225.5 126.39 226.62 127.11 227.22 128.54C228.1 127.11 229.38 126.39 231.08 126.39C233.58 126.39 234.83 127.93 234.83 131.02V138.17H234.84Z" fill="black"/>
<path d="M256.13 138.17H252.59V131.61C252.59 129.94 251.98 129.11 250.75 129.11C250.17 129.11 249.69 129.36 249.32 129.86C248.95 130.36 248.77 130.99 248.77 131.74V138.18H245.22V131.55C245.22 129.93 244.62 129.11 243.41 129.11C242.8 129.11 242.32 129.35 241.96 129.83C241.6 130.31 241.42 130.96 241.42 131.78V138.17H237.87V126.67H241.42V128.47H241.46C241.83 127.86 242.34 127.36 243 126.97C243.66 126.58 244.39 126.39 245.17 126.39C246.79 126.39 247.91 127.11 248.51 128.54C249.39 127.11 250.67 126.39 252.37 126.39C254.87 126.39 256.12 127.93 256.12 131.02V138.17H256.13Z" fill="black"/>
<path d="M270.1 138.17H266.56V136.42H266.5C265.62 137.78 264.45 138.45 262.99 138.45C260.32 138.45 258.99 136.84 258.99 133.61V126.67H262.53V133.3C262.53 134.92 263.17 135.74 264.46 135.74C265.1 135.74 265.61 135.52 265.99 135.07C266.37 134.62 266.56 134.02 266.56 133.26V126.68H270.1V138.18V138.17Z" fill="black"/>
<path d="M284.42 138.17H280.88V131.78C280.88 130 280.24 129.11 278.97 129.11C278.36 129.11 277.85 129.35 277.45 129.82C277.05 130.29 276.86 130.89 276.86 131.62V138.18H273.31V126.68H276.86V128.5H276.9C277.75 127.1 278.98 126.4 280.59 126.4C283.14 126.4 284.41 127.98 284.41 131.14V138.18L284.42 138.17Z" fill="black"/>
<path d="M289.26 124.85C288.66 124.85 288.17 124.67 287.79 124.32C287.41 123.97 287.22 123.53 287.22 123.01C287.22 122.49 287.41 122.04 287.79 121.71C288.17 121.38 288.66 121.21 289.26 121.21C289.86 121.21 290.36 121.38 290.74 121.71C291.12 122.04 291.31 122.48 291.31 123.01C291.31 123.54 291.12 123.99 290.74 124.34C290.36 124.69 289.87 124.86 289.26 124.86V124.85ZM291.01 138.17H287.46V126.67H291.01V138.17Z" fill="black"/>
<path d="M301.18 138.04C300.66 138.32 299.87 138.46 298.81 138.46C296.31 138.46 295.06 137.16 295.06 134.56V129.29H293.2V126.67H295.06V124.19L298.6 123.18V126.67H301.18V129.29H298.6V133.94C298.6 135.14 299.08 135.74 300.03 135.74C300.4 135.74 300.79 135.63 301.19 135.41V138.04H301.18Z" fill="black"/>
<path d="M314.36 126.67L309.69 139.09C308.57 142.08 306.87 143.57 304.61 143.57C303.75 143.57 303.04 143.47 302.49 143.28V140.45C302.96 140.73 303.48 140.87 304.03 140.87C304.94 140.87 305.58 140.44 305.94 139.58L306.55 138.15L301.88 126.67H305.81L307.96 133.67C308.09 134.1 308.2 134.62 308.27 135.21H308.31C308.38 134.78 308.5 134.27 308.68 133.69L310.85 126.67H314.37H314.36Z" fill="black"/>
<path d="M326.56 132.62V138.17H322.93V122.07H328.61C332.67 122.07 334.7 123.78 334.7 127.2C334.7 128.82 334.12 130.13 332.95 131.13C331.79 132.13 330.23 132.63 328.28 132.63H326.55L326.56 132.62ZM326.56 124.85V129.87H327.99C329.92 129.87 330.89 129.02 330.89 127.33C330.89 125.64 329.92 124.85 327.99 124.85H326.56Z" fill="black"/>
<path d="M345.94 138.17H342.58V136.52H342.54C341.77 137.81 340.63 138.45 339.12 138.45C338 138.45 337.13 138.13 336.49 137.5C335.85 136.87 335.53 136.02 335.53 134.97C335.53 132.74 336.85 131.45 339.49 131.11L342.61 130.69C342.61 129.43 341.93 128.8 340.57 128.8C339.21 128.8 337.9 129.21 336.66 130.02V127.35C337.15 127.1 337.83 126.87 338.69 126.68C339.55 126.48 340.33 126.39 341.03 126.39C344.31 126.39 345.95 128.03 345.95 131.3V138.17H345.94ZM342.6 133.5V132.72L340.51 132.99C339.36 133.14 338.78 133.66 338.78 134.55C338.78 134.95 338.92 135.29 339.2 135.54C339.48 135.8 339.86 135.93 340.34 135.93C341.01 135.93 341.55 135.7 341.97 135.24C342.39 134.78 342.6 134.2 342.6 133.49V133.5Z" fill="black"/>
<path d="M356.48 129.87C356.05 129.64 355.56 129.52 354.99 129.52C354.22 129.52 353.62 129.8 353.18 130.37C352.75 130.94 352.53 131.7 352.53 132.68V138.17H348.98V126.67H352.53V128.8H352.57C353.13 127.24 354.14 126.46 355.6 126.46C355.98 126.46 356.27 126.5 356.48 126.59V129.86V129.87Z" fill="black"/>
<path d="M365.98 138.04C365.46 138.32 364.67 138.46 363.61 138.46C361.11 138.46 359.86 137.16 359.86 134.56V129.29H358V126.67H359.86V124.19L363.4 123.18V126.67H365.98V129.29H363.4V133.94C363.4 135.14 363.88 135.74 364.83 135.74C365.2 135.74 365.59 135.63 365.99 135.41V138.04H365.98Z" fill="black"/>
<path d="M379.31 138.17H375.77V131.78C375.77 130 375.13 129.11 373.86 129.11C373.25 129.11 372.74 129.35 372.34 129.82C371.94 130.29 371.75 130.89 371.75 131.62V138.18H368.2V126.68H371.75V128.5H371.79C372.64 127.1 373.87 126.4 375.48 126.4C378.03 126.4 379.3 127.98 379.3 131.14V138.18L379.31 138.17Z" fill="black"/>
<path d="M392.68 133.43H385.18C385.3 135.1 386.35 135.93 388.34 135.93C389.61 135.93 390.72 135.63 391.67 135.03V137.59C390.61 138.16 389.23 138.44 387.53 138.44C385.67 138.44 384.23 137.92 383.21 136.9C382.18 135.87 381.67 134.44 381.67 132.59C381.67 130.74 382.22 129.17 383.33 128.05C384.44 126.93 385.8 126.38 387.42 126.38C389.04 126.38 390.39 126.88 391.31 127.87C392.23 128.86 392.69 130.22 392.69 131.92V133.41L392.68 133.43ZM389.39 131.25C389.39 129.6 388.72 128.78 387.39 128.78C386.82 128.78 386.33 129.02 385.91 129.49C385.49 129.96 385.24 130.55 385.15 131.25H389.38H389.39Z" fill="black"/>
<path d="M402.52 129.87C402.09 129.64 401.6 129.52 401.03 129.52C400.26 129.52 399.66 129.8 399.22 130.37C398.79 130.94 398.57 131.7 398.57 132.68V138.17H395.02V126.67H398.57V128.8H398.61C399.17 127.24 400.18 126.46 401.64 126.46C402.02 126.46 402.31 126.5 402.52 126.59V129.86V129.87Z" fill="black"/>
<path d="M403.79 137.87V134.99C404.37 135.34 404.96 135.6 405.54 135.78C406.12 135.95 406.67 136.04 407.19 136.04C407.82 136.04 408.31 135.95 408.68 135.78C409.04 135.61 409.22 135.35 409.22 134.99C409.22 134.77 409.14 134.58 408.97 134.43C408.81 134.28 408.59 134.15 408.34 134.04C408.08 133.93 407.8 133.83 407.49 133.74C407.18 133.65 406.89 133.55 406.6 133.44C406.14 133.27 405.74 133.08 405.39 132.88C405.04 132.68 404.75 132.45 404.51 132.19C404.27 131.93 404.09 131.63 403.97 131.28C403.85 130.94 403.78 130.53 403.78 130.06C403.78 129.42 403.92 128.86 404.2 128.4C404.48 127.94 404.86 127.56 405.32 127.26C405.78 126.96 406.32 126.75 406.93 126.61C407.54 126.47 408.16 126.4 408.81 126.4C409.32 126.4 409.84 126.44 410.36 126.52C410.88 126.6 411.4 126.71 411.91 126.86V129.6C411.46 129.34 410.98 129.14 410.47 129.01C409.96 128.88 409.45 128.81 408.96 128.81C408.73 128.81 408.51 128.83 408.3 128.87C408.09 128.91 407.91 128.97 407.76 129.05C407.6 129.13 407.48 129.23 407.39 129.35C407.3 129.47 407.26 129.61 407.26 129.77C407.26 129.98 407.33 130.16 407.46 130.31C407.59 130.46 407.77 130.59 407.99 130.7C408.21 130.81 408.45 130.91 408.71 130.99C408.97 131.07 409.24 131.16 409.5 131.25C409.97 131.42 410.4 131.59 410.78 131.79C411.16 131.98 411.49 132.21 411.76 132.48C412.03 132.74 412.24 133.05 412.39 133.4C412.54 133.75 412.61 134.17 412.61 134.66C412.61 135.34 412.46 135.92 412.17 136.41C411.87 136.89 411.48 137.29 410.99 137.59C410.5 137.89 409.93 138.11 409.29 138.25C408.65 138.39 407.99 138.46 407.3 138.46C406.04 138.46 404.86 138.26 403.79 137.88V137.87Z" fill="black"/>
<path d="M425.93 138.17H422.39V131.63C422.39 129.95 421.78 129.1 420.55 129.1C419.92 129.1 419.41 129.34 419.02 129.81C418.63 130.28 418.44 130.88 418.44 131.61V138.17H414.89V121.14H418.44V128.37H418.48C419.35 127.04 420.53 126.38 422.02 126.38C424.63 126.38 425.93 127.95 425.93 131.1V138.16V138.17Z" fill="black"/>
<path d="M430.76 124.85C430.16 124.85 429.67 124.67 429.29 124.32C428.91 123.97 428.72 123.53 428.72 123.01C428.72 122.49 428.91 122.04 429.29 121.71C429.67 121.38 430.16 121.21 430.76 121.21C431.36 121.21 431.86 121.38 432.24 121.71C432.62 122.04 432.81 122.48 432.81 123.01C432.81 123.54 432.62 123.99 432.24 124.34C431.86 124.69 431.37 124.86 430.76 124.86V124.85ZM432.51 138.17H428.96V126.67H432.51V138.17Z" fill="black"/>
<path d="M439.33 136.84H439.29V143.46H435.74V126.67H439.29V128.4H439.33C440.21 127.06 441.44 126.39 443.02 126.39C444.51 126.39 445.66 126.9 446.47 127.92C447.28 128.94 447.69 130.33 447.69 132.09C447.69 134.01 447.22 135.55 446.27 136.71C445.32 137.87 444.06 138.45 442.49 138.45C441.11 138.45 440.05 137.91 439.32 136.83L439.33 136.84ZM439.23 132.12V133.04C439.23 133.83 439.44 134.48 439.86 134.98C440.28 135.48 440.83 135.73 441.51 135.73C442.32 135.73 442.95 135.42 443.39 134.79C443.83 134.16 444.06 133.28 444.06 132.13C444.06 130.11 443.27 129.1 441.7 129.1C440.97 129.1 440.38 129.37 439.92 129.93C439.46 130.48 439.23 131.21 439.23 132.11V132.12Z" fill="black"/>
<path d="M449.47 137.87V134.99C450.05 135.34 450.64 135.6 451.22 135.78C451.8 135.95 452.35 136.04 452.87 136.04C453.5 136.04 453.99 135.95 454.36 135.78C454.72 135.61 454.9 135.35 454.9 134.99C454.9 134.77 454.82 134.58 454.65 134.43C454.49 134.28 454.27 134.15 454.02 134.04C453.76 133.93 453.48 133.83 453.17 133.74C452.86 133.65 452.57 133.55 452.28 133.44C451.82 133.27 451.42 133.08 451.07 132.88C450.72 132.68 450.43 132.45 450.19 132.19C449.95 131.93 449.77 131.63 449.65 131.28C449.53 130.94 449.46 130.53 449.46 130.06C449.46 129.42 449.6 128.86 449.88 128.4C450.16 127.94 450.54 127.56 451 127.26C451.46 126.96 452 126.75 452.61 126.61C453.22 126.47 453.84 126.4 454.49 126.4C455 126.4 455.52 126.44 456.04 126.52C456.56 126.6 457.08 126.71 457.59 126.86V129.6C457.14 129.34 456.66 129.14 456.15 129.01C455.64 128.88 455.13 128.81 454.64 128.81C454.41 128.81 454.19 128.83 453.98 128.87C453.77 128.91 453.59 128.97 453.44 129.05C453.28 129.13 453.16 129.23 453.07 129.35C452.98 129.47 452.94 129.61 452.94 129.77C452.94 129.98 453.01 130.16 453.14 130.31C453.27 130.46 453.45 130.59 453.67 130.7C453.89 130.81 454.13 130.91 454.39 130.99C454.65 131.07 454.92 131.16 455.18 131.25C455.65 131.42 456.08 131.59 456.46 131.79C456.84 131.98 457.17 132.21 457.44 132.48C457.71 132.74 457.92 133.05 458.07 133.4C458.22 133.75 458.29 134.17 458.29 134.66C458.29 135.34 458.14 135.92 457.85 136.41C457.55 136.89 457.16 137.29 456.67 137.59C456.18 137.89 455.61 138.11 454.97 138.25C454.33 138.39 453.67 138.46 452.98 138.46C451.72 138.46 450.54 138.26 449.47 137.88V137.87Z" fill="black"/>
<path d="M474.1 138.04C473.58 138.32 472.79 138.46 471.73 138.46C469.23 138.46 467.98 137.16 467.98 134.56V129.29H466.12V126.67H467.98V124.19L471.52 123.18V126.67H474.1V129.29H471.52V133.94C471.52 135.14 472 135.74 472.95 135.74C473.32 135.74 473.71 135.63 474.11 135.41V138.04H474.1Z" fill="black"/>
<path d="M481.72 138.45C479.8 138.45 478.3 137.91 477.2 136.84C476.1 135.77 475.55 134.31 475.55 132.47C475.55 130.63 476.12 129.08 477.26 128.01C478.4 126.94 479.94 126.4 481.88 126.4C483.82 126.4 485.29 126.94 486.37 128.01C487.46 129.08 488 130.51 488 132.27C488 134.18 487.44 135.69 486.32 136.8C485.2 137.91 483.67 138.46 481.72 138.46V138.45ZM481.81 129.11C480.97 129.11 480.32 129.4 479.85 129.97C479.39 130.55 479.15 131.36 479.15 132.42C479.15 134.63 480.04 135.73 481.82 135.73C483.6 135.73 484.37 134.6 484.37 132.33C484.37 130.18 483.51 129.11 481.8 129.11H481.81Z" fill="black"/>
<path d="M202.6 161.56H198.65L197.5 157.98H191.77L190.64 161.56H186.71L192.57 145.46H196.87L202.6 161.56ZM196.67 155.19L194.94 149.78C194.81 149.38 194.72 148.89 194.67 148.33H194.58C194.54 148.8 194.45 149.27 194.3 149.73L192.55 155.19H196.67Z" fill="black"/>
<path d="M215.75 161.56H212.2V159.98H212.16C211.35 161.22 210.16 161.85 208.6 161.85C207.16 161.85 206.01 161.34 205.13 160.33C204.25 159.32 203.82 157.9 203.82 156.08C203.82 154.26 204.3 152.66 205.27 151.51C206.23 150.36 207.5 149.79 209.06 149.79C210.54 149.79 211.58 150.32 212.16 151.39H212.2V144.55H215.75V161.58V161.56ZM212.27 155.97V155.11C212.27 154.36 212.05 153.74 211.62 153.24C211.19 152.75 210.62 152.5 209.92 152.5C209.13 152.5 208.52 152.81 208.08 153.43C207.64 154.05 207.42 154.9 207.42 155.97C207.42 156.98 207.63 157.76 208.06 158.31C208.49 158.86 209.08 159.13 209.83 159.13C210.58 159.13 211.13 158.84 211.59 158.27C212.05 157.7 212.27 156.93 212.27 155.98V155.97Z" fill="black"/>
<path d="M229.91 150.06L225.63 161.56H221.59L217.51 150.06H221.31L223.31 157.15C223.53 157.95 223.67 158.63 223.7 159.19H223.74C223.79 158.66 223.93 158 224.16 157.21L226.2 150.06H229.91Z" fill="black"/>
<path d="M241.23 161.56H237.87V159.91H237.83C237.06 161.2 235.92 161.84 234.41 161.84C233.29 161.84 232.42 161.52 231.78 160.89C231.14 160.26 230.82 159.41 230.82 158.36C230.82 156.13 232.14 154.84 234.78 154.5L237.9 154.08C237.9 152.82 237.22 152.19 235.86 152.19C234.5 152.19 233.19 152.6 231.95 153.41V150.74C232.44 150.49 233.12 150.26 233.98 150.07C234.84 149.87 235.62 149.78 236.32 149.78C239.6 149.78 241.24 151.42 241.24 154.69V161.56H241.23ZM237.89 156.89V156.11L235.8 156.38C234.65 156.53 234.07 157.05 234.07 157.94C234.07 158.34 234.21 158.68 234.49 158.93C234.77 159.19 235.15 159.32 235.63 159.32C236.3 159.32 236.84 159.09 237.26 158.63C237.68 158.17 237.89 157.59 237.89 156.88V156.89Z" fill="black"/>
<path d="M255.37 161.56H251.83V155.17C251.83 153.39 251.19 152.5 249.92 152.5C249.31 152.5 248.8 152.74 248.4 153.21C248 153.68 247.81 154.28 247.81 155.01V161.57H244.26V150.07H247.81V151.89H247.85C248.7 150.49 249.93 149.79 251.54 149.79C254.09 149.79 255.36 151.37 255.36 154.53V161.57L255.37 161.56Z" fill="black"/>
<path d="M267.13 161.15C266.33 161.61 265.17 161.85 263.66 161.85C261.89 161.85 260.46 161.31 259.37 160.24C258.28 159.17 257.73 157.79 257.73 156.1C257.73 154.14 258.32 152.6 259.49 151.48C260.66 150.36 262.23 149.79 264.19 149.79C265.55 149.79 266.53 149.97 267.13 150.33V153.34C266.39 152.79 265.56 152.51 264.65 152.51C263.63 152.51 262.82 152.81 262.23 153.4C261.63 153.99 261.34 154.82 261.34 155.86C261.34 156.9 261.62 157.68 262.19 158.26C262.76 158.84 263.54 159.13 264.54 159.13C265.42 159.13 266.29 158.85 267.13 158.3V161.15Z" fill="black"/>
<path d="M280.01 156.82H272.51C272.63 158.49 273.68 159.32 275.67 159.32C276.94 159.32 278.05 159.02 279 158.42V160.98C277.94 161.55 276.56 161.83 274.86 161.83C273 161.83 271.56 161.31 270.54 160.29C269.51 159.26 269 157.83 269 155.98C269 154.13 269.55 152.56 270.66 151.44C271.77 150.32 273.13 149.77 274.75 149.77C276.37 149.77 277.72 150.27 278.64 151.26C279.56 152.25 280.02 153.61 280.02 155.31V156.8L280.01 156.82ZM276.72 154.64C276.72 152.99 276.05 152.17 274.72 152.17C274.15 152.17 273.66 152.41 273.24 152.88C272.82 153.35 272.57 153.94 272.48 154.64H276.71H276.72Z" fill="black"/>
<path d="M288.54 160.94V157.35C289.19 157.9 289.9 158.31 290.66 158.58C291.42 158.85 292.2 158.99 292.97 158.99C293.43 158.99 293.82 158.95 294.17 158.87C294.52 158.79 294.79 158.67 295.02 158.53C295.25 158.38 295.42 158.21 295.53 158.01C295.64 157.81 295.7 157.6 295.7 157.36C295.7 157.05 295.61 156.77 295.43 156.52C295.25 156.27 295.01 156.05 294.69 155.84C294.37 155.63 294.01 155.43 293.58 155.23C293.15 155.03 292.69 154.84 292.2 154.63C290.94 154.11 290 153.47 289.39 152.71C288.77 151.95 288.46 151.04 288.46 149.97C288.46 149.13 288.63 148.41 288.97 147.81C289.31 147.21 289.76 146.71 290.35 146.32C290.93 145.93 291.6 145.65 292.37 145.46C293.14 145.27 293.94 145.18 294.8 145.18C295.66 145.18 296.38 145.23 297.03 145.33C297.68 145.43 298.28 145.59 298.82 145.8V149.16C298.55 148.97 298.26 148.81 297.94 148.67C297.62 148.53 297.29 148.41 296.96 148.32C296.62 148.23 296.29 148.16 295.96 148.11C295.63 148.06 295.31 148.04 295.01 148.04C294.6 148.04 294.22 148.08 293.89 148.16C293.55 148.24 293.27 148.35 293.04 148.49C292.81 148.63 292.63 148.8 292.5 149C292.37 149.2 292.31 149.42 292.31 149.67C292.31 149.94 292.38 150.18 292.52 150.39C292.66 150.6 292.86 150.81 293.13 151C293.39 151.19 293.71 151.38 294.08 151.56C294.45 151.74 294.88 151.93 295.35 152.13C295.99 152.4 296.57 152.69 297.09 152.99C297.6 153.29 298.04 153.64 298.41 154.02C298.78 154.4 299.06 154.84 299.25 155.33C299.44 155.82 299.54 156.39 299.54 157.04C299.54 157.94 299.37 158.69 299.03 159.3C298.69 159.91 298.23 160.4 297.64 160.78C297.05 161.16 296.38 161.43 295.6 161.59C294.83 161.76 294.01 161.84 293.15 161.84C292.29 161.84 291.43 161.76 290.63 161.62C289.83 161.47 289.14 161.24 288.56 160.95L288.54 160.94Z" fill="black"/>
<path d="M310.77 161.15C309.97 161.61 308.81 161.85 307.3 161.85C305.53 161.85 304.1 161.31 303.01 160.24C301.92 159.17 301.37 157.79 301.37 156.1C301.37 154.14 301.96 152.6 303.13 151.48C304.3 150.36 305.87 149.79 307.83 149.79C309.19 149.79 310.17 149.97 310.77 150.33V153.34C310.03 152.79 309.2 152.51 308.29 152.51C307.27 152.51 306.46 152.81 305.87 153.4C305.27 153.99 304.98 154.82 304.98 155.86C304.98 156.9 305.26 157.68 305.83 158.26C306.4 158.84 307.18 159.13 308.18 159.13C309.06 159.13 309.93 158.85 310.77 158.3V161.15Z" fill="black"/>
<path d="M315.12 148.24C314.52 148.24 314.03 148.06 313.65 147.71C313.27 147.36 313.08 146.92 313.08 146.4C313.08 145.88 313.27 145.43 313.65 145.1C314.03 144.77 314.52 144.6 315.12 144.6C315.72 144.6 316.22 144.77 316.6 145.1C316.98 145.43 317.17 145.87 317.17 146.4C317.17 146.93 316.98 147.38 316.6 147.73C316.22 148.08 315.73 148.25 315.12 148.25V148.24ZM316.87 161.56H313.32V150.06H316.87V161.56Z" fill="black"/>
<path d="M330.42 156.82H322.92C323.04 158.49 324.09 159.32 326.08 159.32C327.35 159.32 328.46 159.02 329.41 158.42V160.98C328.35 161.55 326.97 161.83 325.27 161.83C323.41 161.83 321.97 161.31 320.95 160.29C319.92 159.26 319.41 157.83 319.41 155.98C319.41 154.13 319.96 152.56 321.07 151.44C322.18 150.32 323.54 149.77 325.16 149.77C326.78 149.77 328.13 150.27 329.05 151.26C329.97 152.25 330.43 153.61 330.43 155.31V156.8L330.42 156.82ZM327.13 154.64C327.13 152.99 326.46 152.17 325.13 152.17C324.56 152.17 324.07 152.41 323.65 152.88C323.23 153.35 322.98 153.94 322.89 154.64H327.12H327.13Z" fill="black"/>
<path d="M343.87 161.56H340.33V155.17C340.33 153.39 339.69 152.5 338.42 152.5C337.81 152.5 337.3 152.74 336.9 153.21C336.5 153.68 336.31 154.28 336.31 155.01V161.57H332.76V150.07H336.31V151.89H336.35C337.2 150.49 338.43 149.79 340.04 149.79C342.59 149.79 343.86 151.37 343.86 154.53V161.57L343.87 161.56Z" fill="black"/>
<path d="M355.62 161.15C354.82 161.61 353.66 161.85 352.15 161.85C350.38 161.85 348.95 161.31 347.86 160.24C346.77 159.17 346.22 157.79 346.22 156.1C346.22 154.14 346.81 152.6 347.98 151.48C349.15 150.36 350.72 149.79 352.68 149.79C354.04 149.79 355.02 149.97 355.62 150.33V153.34C354.88 152.79 354.05 152.51 353.14 152.51C352.12 152.51 351.31 152.81 350.72 153.4C350.12 153.99 349.83 154.82 349.83 155.86C349.83 156.9 350.11 157.68 350.68 158.26C351.25 158.84 352.03 159.13 353.03 159.13C353.91 159.13 354.78 158.85 355.62 158.3V161.15Z" fill="black"/>
<path d="M368.51 156.82H361.01C361.13 158.49 362.18 159.32 364.17 159.32C365.44 159.32 366.55 159.02 367.5 158.42V160.98C366.44 161.55 365.06 161.83 363.36 161.83C361.5 161.83 360.06 161.31 359.04 160.29C358.01 159.26 357.5 157.83 357.5 155.98C357.5 154.13 358.05 152.56 359.16 151.44C360.27 150.32 361.63 149.77 363.25 149.77C364.87 149.77 366.22 150.27 367.14 151.26C368.06 152.25 368.52 153.61 368.52 155.31V156.8L368.51 156.82ZM365.22 154.64C365.22 152.99 364.55 152.17 363.22 152.17C362.65 152.17 362.16 152.41 361.74 152.88C361.32 153.35 361.07 153.94 360.98 154.64H365.21H365.22Z" fill="black"/>
<path d="M384.92 147.25C384.46 147.07 384.02 146.98 383.61 146.98C382.47 146.98 381.9 147.6 381.9 148.83V150.05H384.53V152.67H381.9V161.55H378.36V152.67H376.43V150.05H378.36V148.62C378.36 147.31 378.79 146.25 379.64 145.45C380.49 144.65 381.65 144.25 383.12 144.25C383.84 144.25 384.44 144.33 384.92 144.47V147.23V147.25Z" fill="black"/>
<path d="M391.95 161.84C390.03 161.84 388.53 161.3 387.43 160.23C386.33 159.16 385.78 157.7 385.78 155.86C385.78 154.02 386.35 152.47 387.49 151.4C388.63 150.33 390.17 149.79 392.11 149.79C394.05 149.79 395.52 150.33 396.6 151.4C397.69 152.47 398.23 153.9 398.23 155.66C398.23 157.57 397.67 159.08 396.55 160.19C395.43 161.3 393.9 161.85 391.95 161.85V161.84ZM392.04 152.5C391.2 152.5 390.55 152.79 390.08 153.36C389.62 153.94 389.38 154.75 389.38 155.81C389.38 158.02 390.27 159.12 392.05 159.12C393.83 159.12 394.6 157.99 394.6 155.72C394.6 153.57 393.74 152.5 392.03 152.5H392.04Z" fill="black"/>
<path d="M408.26 153.26C407.83 153.03 407.34 152.91 406.77 152.91C406 152.91 405.4 153.19 404.96 153.76C404.53 154.33 404.31 155.09 404.31 156.07V161.56H400.76V150.06H404.31V152.19H404.35C404.91 150.63 405.92 149.85 407.38 149.85C407.76 149.85 408.05 149.89 408.26 149.98V153.25V153.26Z" fill="black"/>
<path d="M416.32 160.94V157.35C416.97 157.9 417.68 158.31 418.44 158.58C419.2 158.85 419.98 158.99 420.75 158.99C421.21 158.99 421.6 158.95 421.95 158.87C422.3 158.79 422.57 158.67 422.8 158.53C423.03 158.38 423.2 158.21 423.31 158.01C423.42 157.81 423.48 157.6 423.48 157.36C423.48 157.05 423.39 156.77 423.21 156.52C423.03 156.27 422.79 156.05 422.47 155.84C422.15 155.63 421.79 155.43 421.36 155.23C420.93 155.03 420.47 154.84 419.98 154.63C418.72 154.11 417.78 153.47 417.17 152.71C416.55 151.95 416.24 151.04 416.24 149.97C416.24 149.13 416.41 148.41 416.75 147.81C417.09 147.21 417.54 146.71 418.13 146.32C418.71 145.93 419.38 145.65 420.15 145.46C420.92 145.27 421.72 145.18 422.58 145.18C423.44 145.18 424.16 145.23 424.81 145.33C425.46 145.43 426.06 145.59 426.6 145.8V149.16C426.33 148.97 426.04 148.81 425.72 148.67C425.4 148.53 425.07 148.41 424.74 148.32C424.4 148.23 424.07 148.16 423.74 148.11C423.41 148.06 423.09 148.04 422.79 148.04C422.38 148.04 422 148.08 421.67 148.16C421.33 148.24 421.05 148.35 420.82 148.49C420.59 148.63 420.41 148.8 420.28 149C420.15 149.2 420.09 149.42 420.09 149.67C420.09 149.94 420.16 150.18 420.3 150.39C420.44 150.6 420.64 150.81 420.91 151C421.17 151.19 421.49 151.38 421.86 151.56C422.23 151.74 422.66 151.93 423.13 152.13C423.77 152.4 424.35 152.69 424.87 152.99C425.38 153.29 425.82 153.64 426.19 154.02C426.56 154.4 426.84 154.84 427.03 155.33C427.22 155.82 427.32 156.39 427.32 157.04C427.32 157.94 427.15 158.69 426.81 159.3C426.47 159.91 426.01 160.4 425.42 160.78C424.83 161.16 424.16 161.43 423.38 161.59C422.61 161.76 421.79 161.84 420.93 161.84C420.07 161.84 419.21 161.76 418.41 161.62C417.61 161.47 416.92 161.24 416.34 160.95L416.32 160.94Z" fill="black"/>
<path d="M435.32 161.84C433.4 161.84 431.9 161.3 430.8 160.23C429.7 159.16 429.15 157.7 429.15 155.86C429.15 154.02 429.72 152.47 430.86 151.4C432 150.33 433.54 149.79 435.48 149.79C437.42 149.79 438.89 150.33 439.97 151.4C441.06 152.47 441.6 153.9 441.6 155.66C441.6 157.57 441.04 159.08 439.92 160.19C438.8 161.3 437.27 161.85 435.32 161.85V161.84ZM435.41 152.5C434.57 152.5 433.92 152.79 433.45 153.36C432.99 153.94 432.75 154.75 432.75 155.81C432.75 158.02 433.64 159.12 435.42 159.12C437.2 159.12 437.97 157.99 437.97 155.72C437.97 153.57 437.11 152.5 435.4 152.5H435.41Z" fill="black"/>
<path d="M452.85 161.15C452.05 161.61 450.89 161.85 449.38 161.85C447.61 161.85 446.18 161.31 445.09 160.24C444 159.17 443.45 157.79 443.45 156.1C443.45 154.14 444.04 152.6 445.21 151.48C446.38 150.36 447.95 149.79 449.91 149.79C451.27 149.79 452.25 149.97 452.85 150.33V153.34C452.11 152.79 451.28 152.51 450.37 152.51C449.35 152.51 448.54 152.81 447.95 153.4C447.35 153.99 447.06 154.82 447.06 155.86C447.06 156.9 447.34 157.68 447.91 158.26C448.48 158.84 449.26 159.13 450.26 159.13C451.14 159.13 452.01 158.85 452.85 158.3V161.15Z" fill="black"/>
<path d="M457.2 148.24C456.6 148.24 456.11 148.06 455.73 147.71C455.35 147.36 455.16 146.92 455.16 146.4C455.16 145.88 455.35 145.43 455.73 145.1C456.11 144.77 456.6 144.6 457.2 144.6C457.8 144.6 458.3 144.77 458.68 145.1C459.06 145.43 459.25 145.87 459.25 146.4C459.25 146.93 459.06 147.38 458.68 147.73C458.3 148.08 457.81 148.25 457.2 148.25V148.24ZM458.95 161.56H455.4V150.06H458.95V161.56Z" fill="black"/>
<path d="M472.5 156.82H465C465.12 158.49 466.17 159.32 468.16 159.32C469.43 159.32 470.54 159.02 471.49 158.42V160.98C470.43 161.55 469.05 161.83 467.35 161.83C465.49 161.83 464.05 161.31 463.03 160.29C462 159.26 461.49 157.83 461.49 155.98C461.49 154.13 462.04 152.56 463.15 151.44C464.26 150.32 465.62 149.77 467.24 149.77C468.86 149.77 470.21 150.27 471.13 151.26C472.05 152.25 472.51 153.61 472.51 155.31V156.8L472.5 156.82ZM469.21 154.64C469.21 152.99 468.54 152.17 467.21 152.17C466.64 152.17 466.15 152.41 465.73 152.88C465.31 153.35 465.06 153.94 464.97 154.64H469.2H469.21Z" fill="black"/>
<path d="M481.79 161.43C481.27 161.71 480.48 161.85 479.42 161.85C476.92 161.85 475.67 160.55 475.67 157.95V152.68H473.81V150.06H475.67V147.58L479.21 146.57V150.06H481.79V152.68H479.21V157.33C479.21 158.53 479.69 159.13 480.64 159.13C481.01 159.13 481.4 159.02 481.8 158.8V161.43H481.79Z" fill="black"/>
<path d="M494.97 150.06L490.3 162.48C489.18 165.47 487.48 166.96 485.22 166.96C484.36 166.96 483.65 166.86 483.1 166.67V163.84C483.57 164.12 484.09 164.26 484.64 164.26C485.55 164.26 486.19 163.83 486.55 162.97L487.16 161.54L482.49 150.06H486.42L488.57 157.06C488.7 157.49 488.81 158.01 488.88 158.6H488.92C488.99 158.17 489.11 157.66 489.29 157.08L491.46 150.06H494.98H494.97Z" fill="black"/>
<path d="M0.2 83.34C0.22 83.43 0.2 83.5 0.13 83.56C-0.0700001 83.41 -0.0100001 83.35 0.2 83.34Z" fill="#53A7D7"/>
</g>
<defs>
<clipPath id="clip0_116_832">
<rect width="552.33" height="166.98" fill="white"/>
</clipPath>
</defs>
</svg>
