<svg width="576" height="288" viewBox="0 120 576 120" fill="none" xmlns="http://www.w3.org/2000/svg">
<path d="M212.05 199.89C210.86 200.47 209.31 200.75 207.39 200.75C204.89 200.75 202.92 200.02 201.49 198.55C200.06 197.08 199.34 195.12 199.34 192.68C199.34 190.07 200.14 187.96 201.75 186.34C203.36 184.72 205.45 183.91 208.01 183.91C209.6 183.91 210.94 184.11 212.03 184.51V188.04C210.94 187.39 209.7 187.06 208.31 187.06C206.78 187.06 205.55 187.54 204.61 188.5C203.67 189.46 203.2 190.76 203.2 192.41C203.2 193.99 203.64 195.24 204.53 196.17C205.42 197.11 206.61 197.57 208.11 197.57C209.54 197.57 210.85 197.22 212.04 196.52V199.89H212.05Z" fill="white"/>
<path d="M220.09 200.76C218.15 200.76 216.63 200.22 215.52 199.13C214.41 198.04 213.85 196.57 213.85 194.71C213.85 192.79 214.43 191.28 215.58 190.2C216.73 189.11 218.29 188.57 220.25 188.57C222.18 188.57 223.69 189.11 224.79 190.2C225.89 191.29 226.44 192.72 226.44 194.51C226.44 196.44 225.88 197.97 224.74 199.09C223.61 200.2 222.05 200.76 220.09 200.76ZM220.18 191.31C219.33 191.31 218.67 191.6 218.2 192.19C217.73 192.77 217.49 193.6 217.49 194.67C217.49 196.9 218.39 198.02 220.19 198.02C221.91 198.02 222.77 196.87 222.77 194.58C222.78 192.39 221.91 191.31 220.18 191.31Z" fill="white"/>
<path d="M247.23 200.47H243.65V193.84C243.65 192.15 243.03 191.31 241.79 191.31C241.2 191.31 240.72 191.57 240.35 192.07C239.98 192.58 239.79 193.21 239.79 193.97V200.48H236.2V193.78C236.2 192.14 235.59 191.31 234.37 191.31C233.76 191.31 233.27 191.55 232.9 192.04C232.53 192.53 232.35 193.18 232.35 194.02V200.48H228.76V188.85H232.35V190.67H232.39C232.76 190.05 233.28 189.54 233.95 189.15C234.62 188.76 235.35 188.56 236.15 188.56C237.79 188.56 238.92 189.28 239.52 190.73C240.41 189.28 241.71 188.56 243.43 188.56C245.96 188.56 247.22 190.12 247.22 193.24V200.47H247.23Z" fill="white"/>
<path d="M268.54 200.47H264.96V193.84C264.96 192.15 264.34 191.31 263.1 191.31C262.51 191.31 262.03 191.57 261.66 192.07C261.29 192.58 261.1 193.21 261.1 193.97V200.48H257.51V193.78C257.51 192.14 256.9 191.31 255.68 191.31C255.07 191.31 254.58 191.55 254.21 192.04C253.84 192.53 253.66 193.18 253.66 194.02V200.48H250.07V188.85H253.66V190.67H253.7C254.07 190.05 254.59 189.54 255.26 189.15C255.93 188.76 256.66 188.56 257.46 188.56C259.1 188.56 260.23 189.28 260.83 190.73C261.72 189.28 263.02 188.56 264.74 188.56C267.27 188.56 268.53 190.12 268.53 193.24V200.47H268.54Z" fill="white"/>
<path d="M282.43 200.47H278.85V198.7H278.79C277.9 200.07 276.72 200.76 275.23 200.76C272.54 200.76 271.19 199.13 271.19 195.87V188.85H274.77V195.55C274.77 197.2 275.42 198.02 276.72 198.02C277.36 198.02 277.88 197.79 278.26 197.34C278.65 196.89 278.84 196.28 278.84 195.5V188.84H282.42V200.47H282.43Z" fill="white"/>
<path d="M296.69 200.47H293.11V194.01C293.11 192.21 292.47 191.31 291.18 191.31C290.56 191.31 290.05 191.55 289.65 192.03C289.25 192.51 289.05 193.11 289.05 193.85V200.48H285.46V188.85H289.05V190.69H289.09C289.94 189.28 291.19 188.57 292.83 188.57C295.4 188.57 296.69 190.17 296.69 193.36V200.47Z" fill="white"/>
<path d="M301.34 187C300.73 187 300.24 186.82 299.85 186.46C299.47 186.1 299.27 185.66 299.27 185.14C299.27 184.6 299.46 184.16 299.85 183.82C300.24 183.48 300.73 183.31 301.34 183.31C301.95 183.31 302.45 183.48 302.83 183.82C303.21 184.16 303.41 184.6 303.41 185.14C303.41 185.68 303.22 186.13 302.83 186.48C302.45 186.83 301.96 187 301.34 187ZM303.12 200.47H299.53V188.84H303.12V200.47Z" fill="white"/>
<path d="M313.17 200.34C312.64 200.62 311.84 200.76 310.78 200.76C308.25 200.76 306.99 199.45 306.99 196.82V191.49H305.1V188.84H306.99V186.33L310.57 185.31V188.84H313.18V191.49H310.57V196.19C310.57 197.4 311.05 198.01 312.01 198.01C312.39 198.01 312.78 197.9 313.18 197.68V200.34H313.17Z" fill="white"/>
<path d="M326.26 188.84L321.54 201.4C320.4 204.42 318.69 205.93 316.41 205.93C315.54 205.93 314.82 205.83 314.26 205.63V202.77C314.74 203.05 315.26 203.19 315.82 203.19C316.74 203.19 317.39 202.75 317.75 201.88L318.36 200.44L313.64 188.83H317.61L319.78 195.91C319.92 196.35 320.02 196.87 320.1 197.47H320.15C320.22 197.03 320.34 196.52 320.52 195.94L322.71 188.84H326.26Z" fill="white"/>
<path d="M338.15 194.86V200.47H334.48V184.18H340.23C344.33 184.18 346.39 185.91 346.39 189.37C346.39 191.01 345.8 192.33 344.62 193.34C343.44 194.35 341.87 194.86 339.9 194.86H338.15ZM338.15 187V192.08H339.59C341.54 192.08 342.52 191.22 342.52 189.51C342.52 187.84 341.54 187 339.59 187H338.15Z" fill="white"/>
<path d="M358.09 200.47H354.69V198.8H354.65C353.87 200.1 352.72 200.75 351.19 200.75C350.06 200.75 349.17 200.43 348.53 199.79C347.88 199.15 347.56 198.3 347.56 197.23C347.56 194.97 348.9 193.67 351.57 193.32L354.73 192.9C354.73 191.63 354.04 190.99 352.66 190.99C351.27 190.99 349.96 191.4 348.71 192.23V189.53C349.21 189.27 349.89 189.04 350.76 188.85C351.63 188.65 352.42 188.55 353.13 188.55C356.45 188.55 358.11 190.21 358.11 193.51V200.47H358.09ZM354.72 195.75V194.97L352.61 195.24C351.44 195.39 350.86 195.92 350.86 196.82C350.86 197.23 351 197.56 351.29 197.82C351.57 198.08 351.96 198.21 352.44 198.21C353.11 198.21 353.66 197.98 354.09 197.51C354.5 197.05 354.72 196.46 354.72 195.75Z" fill="white"/>
<path d="M368.52 192.08C368.09 191.84 367.58 191.73 367.01 191.73C366.23 191.73 365.62 192.02 365.18 192.59C364.74 193.16 364.52 193.94 364.52 194.92V200.48H360.93V188.85H364.52V191H364.56C365.13 189.43 366.15 188.64 367.63 188.64C368.01 188.64 368.3 188.68 368.52 188.78V192.08Z" fill="white"/>
<path d="M377.22 200.34C376.69 200.62 375.89 200.76 374.83 200.76C372.3 200.76 371.04 199.45 371.04 196.82V191.49H369.15V188.84H371.04V186.33L374.62 185.31V188.84H377.23V191.49H374.62V196.19C374.62 197.4 375.1 198.01 376.06 198.01C376.44 198.01 376.83 197.9 377.23 197.68V200.34H377.22Z" fill="white"/>
<path d="M390.47 200.47H386.89V194.01C386.89 192.21 386.25 191.31 384.96 191.31C384.34 191.31 383.83 191.55 383.43 192.03C383.03 192.51 382.83 193.11 382.83 193.85V200.48H379.24V188.85H382.83V190.69H382.87C383.72 189.28 384.97 188.57 386.61 188.57C389.18 188.57 390.47 190.17 390.47 193.36V200.47Z" fill="white"/>
<path d="M403.76 195.68H396.17C396.29 197.37 397.35 198.21 399.36 198.21C400.64 198.21 401.76 197.91 402.73 197.3V199.89C401.66 200.47 400.26 200.75 398.54 200.75C396.66 200.75 395.2 200.23 394.17 199.19C393.13 198.15 392.61 196.7 392.61 194.83C392.61 192.9 393.17 191.37 394.29 190.24C395.41 189.11 396.79 188.55 398.43 188.55C400.13 188.55 401.44 189.05 402.36 190.06C403.29 191.07 403.75 192.43 403.75 194.16V195.68H403.76ZM400.43 193.48C400.43 191.81 399.76 190.98 398.41 190.98C397.83 190.98 397.34 191.22 396.91 191.7C396.49 192.18 396.23 192.77 396.14 193.48H400.43Z" fill="white"/>
<path d="M413.48 192.08C413.05 191.84 412.54 191.73 411.97 191.73C411.19 191.73 410.58 192.02 410.14 192.59C409.7 193.16 409.48 193.94 409.48 194.92V200.48H405.89V188.85H409.48V191H409.52C410.09 189.43 411.11 188.64 412.59 188.64C412.97 188.64 413.26 188.68 413.48 188.78V192.08Z" fill="white"/>
<path d="M414.39 200.17V197.26C414.98 197.62 415.57 197.88 416.16 198.05C416.75 198.22 417.3 198.31 417.83 198.31C418.47 198.31 418.97 198.22 419.33 198.05C419.7 197.88 419.88 197.61 419.88 197.26C419.88 197.03 419.8 196.84 419.63 196.69C419.46 196.54 419.25 196.41 418.99 196.29C418.73 196.18 418.44 196.08 418.13 195.98C417.82 195.89 417.52 195.79 417.23 195.67C416.77 195.5 416.36 195.31 416.01 195.11C415.66 194.91 415.36 194.68 415.12 194.41C414.88 194.15 414.7 193.84 414.58 193.49C414.46 193.14 414.39 192.73 414.39 192.25C414.39 191.6 414.53 191.04 414.82 190.57C415.11 190.1 415.48 189.72 415.96 189.42C416.43 189.12 416.97 188.9 417.58 188.76C418.19 188.62 418.82 188.55 419.48 188.55C419.99 188.55 420.52 188.59 421.05 188.67C421.58 188.75 422.1 188.86 422.62 189.01V191.78C422.17 191.51 421.68 191.32 421.16 191.18C420.64 191.05 420.13 190.98 419.63 190.98C419.4 190.98 419.17 191 418.97 191.04C418.76 191.08 418.58 191.14 418.42 191.22C418.26 191.3 418.14 191.4 418.05 191.53C417.96 191.65 417.91 191.8 417.91 191.96C417.91 192.17 417.98 192.35 418.11 192.51C418.25 192.66 418.43 192.79 418.64 192.9C418.86 193.01 419.1 193.11 419.37 193.2C419.64 193.29 419.91 193.37 420.17 193.47C420.65 193.64 421.08 193.82 421.47 194.01C421.85 194.21 422.19 194.44 422.46 194.7C422.74 194.96 422.95 195.28 423.1 195.63C423.25 195.99 423.32 196.41 423.32 196.9C423.32 197.59 423.17 198.18 422.87 198.67C422.57 199.16 422.17 199.56 421.68 199.86C421.18 200.17 420.61 200.39 419.96 200.53C419.31 200.67 418.64 200.74 417.94 200.74C416.67 200.76 415.48 200.56 414.39 200.17Z" fill="white"/>
<path d="M436.55 200.47H432.97V193.86C432.97 192.16 432.35 191.3 431.11 191.3C430.47 191.3 429.96 191.54 429.57 192.02C429.18 192.5 428.98 193.1 428.98 193.84V200.47H425.39V183.25H428.98V190.57H429.02C429.9 189.23 431.09 188.56 432.6 188.56C435.23 188.56 436.55 190.15 436.55 193.33V200.47Z" fill="white"/>
<path d="M441.21 187C440.6 187 440.11 186.82 439.72 186.46C439.34 186.1 439.14 185.66 439.14 185.14C439.14 184.6 439.33 184.16 439.72 183.82C440.11 183.48 440.6 183.31 441.21 183.31C441.82 183.31 442.32 183.48 442.7 183.82C443.08 184.16 443.28 184.6 443.28 185.14C443.28 185.68 443.09 186.13 442.7 186.48C442.32 186.83 441.82 187 441.21 187ZM442.98 200.47H439.39V188.84H442.98V200.47Z" fill="white"/>
<path d="M449.64 199.12H449.6V205.82H446V188.84H449.59V190.59H449.63C450.52 189.23 451.76 188.56 453.37 188.56C454.88 188.56 456.04 189.08 456.86 190.11C457.68 191.14 458.09 192.55 458.09 194.33C458.09 196.27 457.61 197.83 456.65 199C455.69 200.18 454.42 200.76 452.83 200.76C451.44 200.76 450.37 200.21 449.64 199.12ZM449.54 194.35V195.28C449.54 196.08 449.75 196.74 450.18 197.25C450.61 197.76 451.16 198.01 451.85 198.01C452.67 198.01 453.3 197.69 453.75 197.06C454.2 196.43 454.43 195.53 454.43 194.37C454.43 192.32 453.63 191.3 452.04 191.3C451.31 191.3 450.7 191.58 450.24 192.14C449.77 192.7 449.54 193.43 449.54 194.35Z" fill="white"/>
<path d="M459.67 200.17V197.26C460.26 197.62 460.85 197.88 461.44 198.05C462.03 198.22 462.58 198.31 463.11 198.31C463.75 198.31 464.25 198.22 464.61 198.05C464.98 197.88 465.16 197.61 465.16 197.26C465.16 197.03 465.08 196.84 464.91 196.69C464.74 196.54 464.53 196.41 464.27 196.29C464.01 196.18 463.72 196.08 463.41 195.98C463.1 195.89 462.8 195.79 462.51 195.67C462.05 195.5 461.64 195.31 461.29 195.11C460.94 194.91 460.64 194.68 460.4 194.41C460.16 194.15 459.98 193.84 459.86 193.49C459.74 193.14 459.67 192.73 459.67 192.25C459.67 191.6 459.81 191.04 460.1 190.57C460.39 190.1 460.76 189.72 461.24 189.42C461.71 189.12 462.25 188.9 462.86 188.76C463.47 188.62 464.1 188.55 464.76 188.55C465.27 188.55 465.8 188.59 466.33 188.67C466.86 188.75 467.38 188.86 467.9 189.01V191.78C467.45 191.51 466.96 191.32 466.44 191.18C465.92 191.05 465.41 190.98 464.91 190.98C464.67 190.98 464.45 191 464.25 191.04C464.04 191.08 463.86 191.14 463.7 191.22C463.54 191.3 463.42 191.4 463.33 191.53C463.24 191.65 463.19 191.8 463.19 191.96C463.19 192.17 463.26 192.35 463.39 192.51C463.53 192.66 463.71 192.79 463.92 192.9C464.13 193.01 464.38 193.11 464.65 193.2C464.92 193.29 465.19 193.37 465.45 193.47C465.93 193.64 466.36 193.82 466.75 194.01C467.13 194.21 467.47 194.44 467.74 194.7C468.02 194.96 468.23 195.28 468.38 195.63C468.53 195.99 468.6 196.41 468.6 196.9C468.6 197.59 468.45 198.18 468.15 198.67C467.85 199.16 467.45 199.56 466.96 199.86C466.46 200.17 465.89 200.39 465.24 200.53C464.59 200.67 463.92 200.74 463.22 200.74C461.94 200.76 460.76 200.56 459.67 200.17Z" fill="white"/>
<path d="M484.11 200.34C483.58 200.62 482.78 200.76 481.72 200.76C479.19 200.76 477.93 199.45 477.93 196.82V191.49H476.04V188.84H477.93V186.33L481.51 185.31V188.84H484.12V191.49H481.51V196.19C481.51 197.4 481.99 198.01 482.95 198.01C483.33 198.01 483.72 197.9 484.12 197.68V200.34H484.11Z" fill="white"/>
<path d="M491.68 200.76C489.74 200.76 488.22 200.22 487.11 199.13C486 198.04 485.44 196.57 485.44 194.71C485.44 192.79 486.02 191.28 487.17 190.2C488.32 189.11 489.88 188.57 491.84 188.57C493.77 188.57 495.28 189.11 496.38 190.2C497.48 191.29 498.03 192.72 498.03 194.51C498.03 196.44 497.47 197.97 496.33 199.09C495.19 200.2 493.64 200.76 491.68 200.76ZM491.76 191.31C490.91 191.31 490.25 191.6 489.78 192.19C489.31 192.77 489.07 193.6 489.07 194.67C489.07 196.9 489.97 198.02 491.77 198.02C493.49 198.02 494.35 196.87 494.35 194.58C494.37 192.39 493.5 191.31 491.76 191.31Z" fill="white"/>
<path d="M215.56 223.58H211.56L210.4 219.96H204.61L203.46 223.58H199.49L205.42 207.29H209.77L215.56 223.58ZM209.56 217.14L207.81 211.67C207.68 211.26 207.59 210.77 207.54 210.21H207.45C207.41 210.69 207.32 211.16 207.17 211.63L205.4 217.15H209.56V217.14Z" fill="white"/>
<path d="M228.62 223.58H225.03V221.98H224.99C224.17 223.24 222.97 223.87 221.39 223.87C219.94 223.87 218.77 223.36 217.88 222.33C216.99 221.3 216.55 219.87 216.55 218.03C216.55 216.11 217.04 214.57 218.02 213.41C219 212.25 220.28 211.67 221.86 211.67C223.36 211.67 224.4 212.21 225 213.28H225.04V206.36H228.63V223.58H228.62ZM225.1 217.92V217.04C225.1 216.28 224.88 215.65 224.44 215.15C224 214.65 223.43 214.4 222.72 214.4C221.93 214.4 221.3 214.71 220.86 215.34C220.41 215.96 220.19 216.82 220.19 217.91C220.19 218.93 220.41 219.72 220.84 220.27C221.27 220.82 221.87 221.1 222.63 221.1C223.36 221.1 223.95 220.81 224.41 220.22C224.87 219.66 225.1 218.88 225.1 217.92Z" fill="white"/>
<path d="M242.71 211.95L238.38 223.58H234.29L230.17 211.95H234.01L236.03 219.12C236.26 219.93 236.39 220.62 236.43 221.19H236.47C236.52 220.65 236.66 219.99 236.89 219.19L238.96 211.95H242.71Z" fill="white"/>
<path d="M253.92 223.58H250.52V221.91H250.48C249.7 223.21 248.55 223.86 247.02 223.86C245.89 223.86 245 223.54 244.36 222.9C243.72 222.26 243.39 221.41 243.39 220.34C243.39 218.08 244.73 216.78 247.4 216.43L250.56 216.01C250.56 214.74 249.87 214.1 248.49 214.1C247.1 214.1 245.79 214.51 244.54 215.34V212.64C245.04 212.38 245.72 212.15 246.59 211.96C247.46 211.76 248.25 211.66 248.96 211.66C252.28 211.66 253.94 213.32 253.94 216.62V223.58H253.92ZM250.55 218.85V218.07L248.44 218.34C247.27 218.49 246.69 219.02 246.69 219.92C246.69 220.33 246.83 220.66 247.12 220.92C247.4 221.18 247.79 221.31 248.27 221.31C248.94 221.31 249.49 221.08 249.92 220.61C250.34 220.15 250.55 219.57 250.55 218.85Z" fill="white"/>
<path d="M268 223.58H264.42V217.12C264.42 215.32 263.78 214.42 262.49 214.42C261.87 214.42 261.36 214.66 260.96 215.14C260.56 215.62 260.36 216.22 260.36 216.96V223.59H256.77V211.96H260.36V213.8H260.4C261.25 212.39 262.5 211.68 264.14 211.68C266.71 211.68 268 213.28 268 216.47V223.58Z" fill="white"/>
<path d="M279.65 223.16C278.84 223.63 277.67 223.87 276.14 223.87C274.35 223.87 272.91 223.33 271.8 222.25C270.69 221.17 270.14 219.77 270.14 218.06C270.14 216.08 270.73 214.53 271.92 213.39C273.1 212.25 274.69 211.68 276.67 211.68C278.04 211.68 279.03 211.86 279.64 212.23V215.27C278.89 214.71 278.05 214.43 277.13 214.43C276.1 214.43 275.28 214.73 274.68 215.33C274.08 215.93 273.78 216.76 273.78 217.82C273.78 218.85 274.07 219.66 274.64 220.24C275.22 220.83 276.01 221.12 277.01 221.12C277.9 221.12 278.78 220.84 279.63 220.28V223.16H279.65Z" fill="white"/>
<path d="M292.45 218.79H284.86C284.98 220.48 286.04 221.32 288.05 221.32C289.33 221.32 290.45 221.02 291.42 220.41V223C290.35 223.58 288.95 223.86 287.23 223.86C285.35 223.86 283.89 223.34 282.86 222.3C281.82 221.26 281.3 219.81 281.3 217.94C281.3 216.01 281.86 214.48 282.98 213.35C284.1 212.22 285.48 211.66 287.12 211.66C288.82 211.66 290.13 212.16 291.05 213.17C291.98 214.18 292.44 215.54 292.44 217.27V218.79H292.45ZM289.12 216.58C289.12 214.91 288.45 214.08 287.1 214.08C286.52 214.08 286.03 214.32 285.6 214.8C285.18 215.28 284.92 215.87 284.83 216.58H289.12Z" fill="white"/>
<path d="M300.61 222.95V219.32C301.27 219.87 301.98 220.29 302.76 220.56C303.53 220.84 304.31 220.97 305.1 220.97C305.56 220.97 305.96 220.93 306.31 220.84C306.65 220.76 306.94 220.64 307.17 220.49C307.4 220.34 307.57 220.17 307.69 219.97C307.8 219.77 307.86 219.55 307.86 219.32C307.86 219 307.77 218.72 307.59 218.47C307.41 218.22 307.16 217.99 306.85 217.78C306.54 217.57 306.16 217.36 305.73 217.17C305.3 216.97 304.83 216.77 304.33 216.57C303.06 216.04 302.11 215.39 301.49 214.63C300.86 213.86 300.55 212.94 300.55 211.86C300.55 211.01 300.72 210.28 301.06 209.67C301.4 209.06 301.87 208.56 302.45 208.16C303.04 207.77 303.72 207.48 304.49 207.29C305.26 207.1 306.08 207.01 306.94 207.01C307.79 207.01 308.54 207.06 309.19 207.16C309.85 207.26 310.45 207.42 311 207.63V211.03C310.73 210.84 310.43 210.67 310.11 210.53C309.79 210.39 309.46 210.27 309.12 210.17C308.78 210.08 308.44 210 308.1 209.96C307.76 209.92 307.44 209.89 307.14 209.89C306.72 209.89 306.35 209.93 306.01 210.01C305.67 210.09 305.38 210.2 305.15 210.35C304.91 210.49 304.73 210.67 304.61 210.87C304.48 211.07 304.42 211.3 304.42 211.55C304.42 211.82 304.49 212.07 304.64 212.28C304.78 212.49 304.99 212.7 305.25 212.89C305.51 213.08 305.84 213.27 306.21 213.46C306.59 213.65 307.02 213.84 307.49 214.03C308.14 214.3 308.73 214.59 309.24 214.9C309.76 215.21 310.2 215.55 310.57 215.94C310.94 216.32 311.23 216.77 311.42 217.26C311.62 217.75 311.72 218.33 311.72 218.99C311.72 219.9 311.55 220.66 311.2 221.28C310.86 221.9 310.39 222.4 309.8 222.78C309.21 223.16 308.52 223.44 307.74 223.6C306.96 223.77 306.13 223.85 305.26 223.85C304.37 223.85 303.52 223.77 302.71 223.62C301.9 223.49 301.2 223.26 300.61 222.95Z" fill="white"/>
<path d="M322.86 223.16C322.05 223.63 320.88 223.87 319.35 223.87C317.56 223.87 316.12 223.33 315.01 222.25C313.9 221.17 313.35 219.77 313.35 218.06C313.35 216.08 313.94 214.53 315.13 213.39C316.31 212.25 317.9 211.68 319.88 211.68C321.25 211.68 322.24 211.86 322.85 212.23V215.27C322.1 214.71 321.26 214.43 320.34 214.43C319.31 214.43 318.49 214.73 317.89 215.33C317.29 215.93 316.99 216.76 316.99 217.82C316.99 218.85 317.28 219.66 317.85 220.24C318.43 220.83 319.22 221.12 320.22 221.12C321.11 221.12 321.99 220.84 322.84 220.28V223.16H322.86Z" fill="white"/>
<path d="M327.03 210.11C326.42 210.11 325.93 209.93 325.54 209.57C325.16 209.21 324.96 208.77 324.96 208.25C324.96 207.71 325.15 207.27 325.54 206.93C325.93 206.59 326.42 206.42 327.03 206.42C327.64 206.42 328.14 206.59 328.52 206.93C328.9 207.27 329.1 207.71 329.1 208.25C329.1 208.79 328.91 209.24 328.52 209.59C328.14 209.93 327.64 210.11 327.03 210.11ZM328.8 223.58H325.21V211.95H328.8V223.58Z" fill="white"/>
<path d="M342.27 218.79H334.68C334.8 220.48 335.86 221.32 337.87 221.32C339.15 221.32 340.27 221.02 341.24 220.41V223C340.17 223.58 338.77 223.86 337.05 223.86C335.17 223.86 333.71 223.34 332.68 222.3C331.64 221.26 331.12 219.81 331.12 217.94C331.12 216.01 331.68 214.48 332.8 213.35C333.92 212.22 335.3 211.66 336.94 211.66C338.64 211.66 339.95 212.16 340.87 213.17C341.8 214.18 342.26 215.54 342.26 217.27V218.79H342.27ZM338.94 216.58C338.94 214.91 338.27 214.08 336.92 214.08C336.34 214.08 335.85 214.32 335.42 214.8C335 215.28 334.74 215.87 334.65 216.58H338.94Z" fill="white"/>
<path d="M355.64 223.58H352.06V217.12C352.06 215.32 351.42 214.42 350.13 214.42C349.51 214.42 349 214.66 348.6 215.14C348.2 215.62 348 216.22 348 216.96V223.59H344.41V211.96H348V213.8H348.04C348.89 212.39 350.14 211.68 351.78 211.68C354.35 211.68 355.64 213.28 355.64 216.47V223.58Z" fill="white"/>
<path d="M367.29 223.16C366.48 223.63 365.31 223.87 363.78 223.87C361.99 223.87 360.55 223.33 359.44 222.25C358.33 221.17 357.78 219.77 357.78 218.06C357.78 216.08 358.37 214.53 359.56 213.39C360.74 212.25 362.33 211.68 364.31 211.68C365.68 211.68 366.67 211.86 367.28 212.23V215.27C366.53 214.71 365.69 214.43 364.77 214.43C363.74 214.43 362.92 214.73 362.32 215.33C361.72 215.93 361.42 216.76 361.42 217.82C361.42 218.85 361.71 219.66 362.28 220.24C362.86 220.83 363.65 221.12 364.65 221.12C365.54 221.12 366.42 220.84 367.27 220.28V223.16H367.29Z" fill="white"/>
<path d="M380.09 218.79H372.5C372.62 220.48 373.68 221.32 375.69 221.32C376.97 221.32 378.09 221.02 379.06 220.41V223C377.99 223.58 376.59 223.86 374.87 223.86C372.99 223.86 371.53 223.34 370.5 222.3C369.46 221.26 368.94 219.81 368.94 217.94C368.94 216.01 369.5 214.48 370.62 213.35C371.74 212.22 373.12 211.66 374.76 211.66C376.46 211.66 377.77 212.16 378.69 213.17C379.62 214.18 380.08 215.54 380.08 217.27V218.79H380.09ZM376.76 216.58C376.76 214.91 376.09 214.08 374.74 214.08C374.16 214.08 373.67 214.32 373.24 214.8C372.82 215.28 372.56 215.87 372.47 216.58H376.76Z" fill="white"/>
<path d="M396.23 209.11C395.77 208.93 395.33 208.84 394.9 208.84C393.75 208.84 393.17 209.46 393.17 210.71V211.95H395.83V214.6H393.17V223.58H389.59V214.6H387.64V211.95H389.59V210.51C389.59 209.19 390.02 208.12 390.89 207.31C391.75 206.5 392.93 206.09 394.41 206.09C395.14 206.09 395.74 206.16 396.23 206.32V209.11Z" fill="white"/>
<path d="M403.1 223.86C401.16 223.86 399.64 223.32 398.53 222.23C397.42 221.14 396.86 219.67 396.86 217.81C396.86 215.89 397.44 214.38 398.59 213.3C399.74 212.21 401.3 211.67 403.26 211.67C405.19 211.67 406.7 212.21 407.8 213.3C408.9 214.39 409.45 215.82 409.45 217.61C409.45 219.54 408.89 221.07 407.75 222.19C406.62 223.3 405.07 223.86 403.1 223.86ZM403.19 214.41C402.34 214.41 401.68 214.7 401.21 215.29C400.74 215.87 400.5 216.7 400.5 217.77C400.5 220 401.4 221.12 403.2 221.12C404.92 221.12 405.78 219.97 405.78 217.68C405.8 215.5 404.93 214.41 403.19 214.41Z" fill="white"/>
<path d="M419.37 215.19C418.94 214.95 418.43 214.84 417.86 214.84C417.08 214.84 416.47 215.13 416.03 215.7C415.59 216.27 415.37 217.05 415.37 218.03V223.59H411.78V211.96H415.37V214.12H415.41C415.98 212.55 417 211.76 418.48 211.76C418.86 211.76 419.15 211.8 419.37 211.9V215.19Z" fill="white"/>
<path d="M427.06 222.95V219.32C427.72 219.87 428.43 220.29 429.21 220.56C429.98 220.84 430.76 220.97 431.55 220.97C432.01 220.97 432.41 220.93 432.76 220.84C433.11 220.75 433.39 220.64 433.62 220.49C433.85 220.34 434.02 220.17 434.14 219.97C434.25 219.77 434.31 219.55 434.31 219.32C434.31 219 434.22 218.72 434.04 218.47C433.86 218.22 433.61 217.99 433.3 217.78C432.99 217.57 432.61 217.36 432.18 217.17C431.75 216.97 431.28 216.77 430.78 216.57C429.51 216.04 428.56 215.39 427.94 214.63C427.31 213.86 427 212.94 427 211.86C427 211.01 427.17 210.28 427.51 209.67C427.85 209.06 428.32 208.56 428.9 208.16C429.48 207.76 430.17 207.48 430.94 207.29C431.71 207.1 432.53 207.01 433.39 207.01C434.24 207.01 434.99 207.06 435.64 207.16C436.3 207.26 436.9 207.42 437.45 207.63V211.03C437.18 210.84 436.88 210.67 436.56 210.53C436.24 210.39 435.91 210.27 435.57 210.17C435.23 210.08 434.89 210 434.55 209.96C434.21 209.92 433.89 209.89 433.59 209.89C433.17 209.89 432.8 209.93 432.46 210.01C432.12 210.09 431.83 210.2 431.6 210.35C431.36 210.49 431.18 210.67 431.06 210.87C430.93 211.07 430.87 211.3 430.87 211.55C430.87 211.82 430.94 212.07 431.09 212.28C431.24 212.49 431.44 212.7 431.7 212.89C431.96 213.08 432.29 213.27 432.66 213.46C433.04 213.65 433.47 213.84 433.94 214.03C434.59 214.3 435.18 214.59 435.69 214.9C436.21 215.21 436.65 215.55 437.02 215.94C437.39 216.32 437.68 216.77 437.87 217.26C438.07 217.75 438.17 218.33 438.17 218.99C438.17 219.9 438 220.66 437.65 221.28C437.31 221.9 436.84 222.4 436.25 222.78C435.66 223.16 434.97 223.44 434.19 223.6C433.41 223.77 432.58 223.85 431.71 223.85C430.82 223.85 429.97 223.77 429.16 223.62C428.35 223.49 427.65 223.26 427.06 222.95Z" fill="white"/>
<path d="M446.04 223.86C444.1 223.86 442.58 223.32 441.47 222.23C440.36 221.14 439.8 219.67 439.8 217.81C439.8 215.89 440.38 214.38 441.53 213.3C442.68 212.21 444.24 211.67 446.2 211.67C448.13 211.67 449.64 212.21 450.74 213.3C451.84 214.39 452.39 215.82 452.39 217.61C452.39 219.54 451.83 221.07 450.69 222.19C449.56 223.3 448.01 223.86 446.04 223.86ZM446.13 214.41C445.28 214.41 444.62 214.7 444.15 215.29C443.68 215.87 443.45 216.7 443.45 217.77C443.45 220 444.35 221.12 446.15 221.12C447.87 221.12 448.73 219.97 448.73 217.68C448.73 215.5 447.86 214.41 446.13 214.41Z" fill="white"/>
<path d="M463.53 223.16C462.72 223.63 461.55 223.87 460.02 223.87C458.23 223.87 456.79 223.33 455.68 222.25C454.57 221.17 454.02 219.77 454.02 218.06C454.02 216.08 454.61 214.53 455.8 213.39C456.98 212.25 458.57 211.68 460.55 211.68C461.92 211.68 462.91 211.86 463.52 212.23V215.27C462.77 214.71 461.93 214.43 461.01 214.43C459.98 214.43 459.16 214.73 458.56 215.33C457.96 215.93 457.66 216.76 457.66 217.82C457.66 218.85 457.95 219.66 458.52 220.24C459.1 220.83 459.89 221.12 460.89 221.12C461.78 221.12 462.66 220.84 463.51 220.28V223.16H463.53Z" fill="white"/>
<path d="M467.7 210.11C467.09 210.11 466.6 209.93 466.21 209.57C465.83 209.21 465.63 208.77 465.63 208.25C465.63 207.71 465.82 207.27 466.21 206.93C466.6 206.59 467.09 206.42 467.7 206.42C468.31 206.42 468.81 206.59 469.19 206.93C469.57 207.27 469.77 207.71 469.77 208.25C469.77 208.79 469.58 209.24 469.19 209.59C468.81 209.93 468.31 210.11 467.7 210.11ZM469.47 223.58H465.88V211.95H469.47V223.58Z" fill="white"/>
<path d="M482.94 218.79H475.35C475.47 220.48 476.53 221.32 478.54 221.32C479.82 221.32 480.94 221.02 481.91 220.41V223C480.84 223.58 479.44 223.86 477.72 223.86C475.84 223.86 474.38 223.34 473.35 222.3C472.31 221.26 471.79 219.81 471.79 217.94C471.79 216.01 472.35 214.48 473.47 213.35C474.59 212.22 475.97 211.66 477.61 211.66C479.31 211.66 480.62 212.16 481.54 213.17C482.47 214.18 482.93 215.54 482.93 217.27V218.79H482.94ZM479.61 216.58C479.61 214.91 478.94 214.08 477.59 214.08C477.01 214.08 476.52 214.32 476.09 214.8C475.67 215.28 475.41 215.87 475.32 216.58H479.61Z" fill="white"/>
<path d="M492.11 223.44C491.58 223.72 490.78 223.86 489.72 223.86C487.19 223.86 485.93 222.55 485.93 219.92V214.59H484.04V211.94H485.93V209.43L489.51 208.41V211.94H492.12V214.59H489.51V219.29C489.51 220.5 489.99 221.11 490.95 221.11C491.33 221.11 491.72 221 492.12 220.78V223.44H492.11Z" fill="white"/>
<path d="M505.2 211.95L500.48 224.51C499.34 227.53 497.63 229.04 495.35 229.04C494.48 229.04 493.76 228.94 493.2 228.74V225.88C493.68 226.16 494.2 226.3 494.76 226.3C495.68 226.3 496.33 225.86 496.69 224.99L497.3 223.55L492.58 211.94H496.55L498.72 219.02C498.86 219.46 498.96 219.98 499.04 220.58H499.09C499.16 220.14 499.28 219.63 499.46 219.05L501.65 211.95H505.2Z" fill="white"/>
<path d="M207 170.03C203.58 168.19 200.98 165.51 199.18 162C197.38 158.48 196.49 154.23 196.49 149.25V131.92C196.49 126.94 197.39 122.69 199.18 119.17C200.97 115.65 203.58 112.97 207 111.12C210.42 109.27 214.53 108.34 219.33 108.34C223.3 108.34 226.84 109.19 229.97 110.9C233.1 112.61 235.68 115.09 237.72 118.35C239.76 121.61 241.17 125.54 241.95 130.14H229.62C229.16 128.05 228.44 126.27 227.47 124.8C226.5 123.32 225.33 122.19 223.95 121.41C222.58 120.63 221.03 120.24 219.33 120.24C217.1 120.24 215.2 120.69 213.64 121.61C212.08 122.52 210.88 123.85 210.06 125.61C209.23 127.36 208.82 129.47 208.82 131.93V149.26C208.82 151.72 209.23 153.82 210.06 155.56C210.89 157.3 212.08 158.62 213.64 159.53C215.2 160.44 217.1 160.9 219.33 160.9C221.07 160.9 222.63 160.52 224.02 159.75C225.41 158.98 226.58 157.86 227.54 156.38C228.5 154.91 229.19 153.11 229.62 151H241.95C241.14 155.6 239.71 159.53 237.67 162.79C235.63 166.05 233.05 168.53 229.94 170.24C226.83 171.95 223.29 172.8 219.32 172.8C214.52 172.79 210.41 171.87 207 170.03Z" fill="white"/>
<path d="M256.01 170.49C253.1 168.95 250.88 166.72 249.37 163.78C247.86 160.84 247.09 157.3 247.09 153.16V145.82C247.09 141.74 247.85 138.24 249.37 135.33C250.89 132.42 253.11 130.21 256.01 128.69C258.92 127.17 262.43 126.41 266.54 126.41C270.65 126.41 274.16 127.17 277.07 128.69C279.98 130.21 282.19 132.42 283.71 135.33C285.23 138.24 285.99 141.74 285.99 145.82V153.29C285.99 157.4 285.23 160.91 283.71 163.82C282.19 166.73 279.98 168.95 277.07 170.49C274.16 172.02 270.65 172.79 266.54 172.79C262.43 172.79 258.92 172.02 256.01 170.49ZM272.1 159.22C273.43 157.82 274.1 155.84 274.1 153.29V145.82C274.1 143.3 273.44 141.35 272.1 139.96C270.77 138.57 268.9 137.88 266.5 137.88C264.13 137.88 262.28 138.57 260.96 139.96C259.64 141.35 258.98 143.3 258.98 145.82V153.29C258.98 155.84 259.63 157.81 260.93 159.22C262.23 160.63 264.09 161.33 266.49 161.33C268.9 161.32 270.77 160.62 272.1 159.22Z" fill="white"/>
<path d="M293.3 127.06H305.2V172.14H293.3V127.06ZM319.57 146.12C319.57 143.49 318.92 141.45 317.62 140.02C316.32 138.59 314.48 137.87 312.1 137.87C309.9 137.87 308.2 138.48 307 139.71C305.8 140.94 305.2 142.67 305.2 144.9L304.29 134.91C305.62 132.13 307.28 130.02 309.28 128.57C311.28 127.12 313.62 126.4 316.31 126.4C319.49 126.4 322.22 127.17 324.5 128.7C326.77 130.24 328.5 132.48 329.69 135.43C330.88 138.38 331.47 141.93 331.47 146.07V172.13H319.57V146.12ZM345.84 146.12C345.84 143.49 345.21 141.45 343.95 140.02C342.69 138.59 340.9 137.87 338.59 137.87C336.3 137.87 334.54 138.56 333.31 139.93C332.08 141.31 331.46 143.25 331.46 145.77L329.25 135.35C330.67 132.48 332.51 130.28 334.79 128.73C337.06 127.18 339.59 126.41 342.37 126.41C345.61 126.41 348.38 127.18 350.68 128.71C352.98 130.25 354.73 132.49 355.94 135.44C357.14 138.39 357.74 141.94 357.74 146.08V172.14H345.84V146.12Z" fill="white"/>
<path d="M366.78 108.99H378.68V172.13H366.78V108.99ZM372.2 136.18H392.39C393.81 136.18 395.06 135.85 396.15 135.2C397.24 134.55 398.08 133.63 398.69 132.44C399.3 131.25 399.6 129.89 399.6 128.36C399.6 126.8 399.3 125.41 398.71 124.21C398.12 123.01 397.28 122.08 396.19 121.43C395.1 120.78 393.84 120.45 392.39 120.45H372.2V108.98H392.09C396.03 108.98 399.49 109.78 402.49 111.39C405.49 113 407.81 115.26 409.46 118.19C411.11 121.11 411.94 124.5 411.94 128.35C411.94 132.2 411.12 135.58 409.46 138.49C407.81 141.4 405.49 143.65 402.49 145.24C399.49 146.83 396.03 147.63 392.09 147.63H372.2V136.18Z" fill="white"/>
<path d="M429.18 108.99H436.74L460.88 172.13H448.07L432.96 129.01L417.85 172.13H405.04L429.18 108.99ZM416.63 150.55H449.85V162.02H416.63V150.55Z" fill="white"/>
<path d="M476.24 171.88C473.36 171.27 470.65 170.38 468.12 169.21C465.59 168.04 463.32 166.63 461.32 164.98L466.84 155.17C469.27 157.17 472.08 158.71 475.26 159.8C478.44 160.89 481.71 161.43 485.07 161.43C488.95 161.43 491.96 160.77 494.1 159.45C496.24 158.13 497.31 156.27 497.31 153.87V153.83C497.31 152.15 496.83 150.82 495.88 149.83C494.92 148.85 493.68 148.12 492.14 147.66C490.6 147.2 488.64 146.78 486.23 146.4C486.14 146.37 486.06 146.36 485.99 146.36C485.92 146.36 485.84 146.35 485.75 146.32L484.79 146.19C480.56 145.52 477.06 144.69 474.28 143.69C471.5 142.69 469.14 140.94 467.2 138.43C465.26 135.93 464.29 132.37 464.29 127.77V127.73C464.29 123.65 465.2 120.16 467.03 117.26C468.85 114.36 471.5 112.16 474.98 110.64C478.46 109.12 482.65 108.36 487.57 108.36C489.83 108.36 492.14 108.62 494.5 109.14C496.86 109.66 499.17 110.42 501.43 111.4C503.69 112.38 505.83 113.57 507.86 114.96L502.82 125.04C500.39 123.36 497.85 122.06 495.2 121.13C492.55 120.2 490.01 119.74 487.58 119.74C483.93 119.74 481.11 120.34 479.11 121.54C477.11 122.74 476.11 124.43 476.11 126.6V126.64C476.11 128.46 476.63 129.91 477.67 130.96C478.71 132.02 480 132.79 481.54 133.28C483.08 133.77 485.23 134.29 488.01 134.84C488.12 134.87 488.24 134.89 488.36 134.9C488.47 134.92 488.59 134.94 488.71 134.96C488.88 134.99 489.05 135.03 489.21 135.07C489.37 135.11 489.54 135.15 489.71 135.18C493.71 135.96 497.04 136.91 499.72 138.02C502.4 139.14 504.63 140.93 506.43 143.4C508.22 145.88 509.12 149.26 509.12 153.54V153.63C509.12 157.65 508.18 161.1 506.3 163.97C504.42 166.84 501.68 169.02 498.07 170.53C494.47 172.04 490.13 172.79 485.06 172.79C482.06 172.79 479.12 172.49 476.24 171.88Z" fill="white"/>
<path d="M529.26 171.88C526.38 171.27 523.67 170.38 521.14 169.21C518.61 168.04 516.34 166.63 514.34 164.98L519.86 155.17C522.29 157.17 525.1 158.71 528.28 159.8C531.46 160.89 534.73 161.43 538.09 161.43C541.97 161.43 544.98 160.77 547.12 159.45C549.26 158.13 550.33 156.27 550.33 153.87V153.83C550.33 152.15 549.85 150.82 548.9 149.83C547.94 148.85 546.7 148.12 545.16 147.66C543.62 147.2 541.66 146.78 539.25 146.4C539.16 146.37 539.08 146.36 539.01 146.36C538.94 146.36 538.86 146.35 538.77 146.32L537.81 146.19C533.58 145.52 530.08 144.69 527.3 143.69C524.52 142.69 522.16 140.94 520.22 138.43C518.28 135.93 517.31 132.37 517.31 127.77V127.73C517.31 123.65 518.22 120.16 520.05 117.26C521.87 114.36 524.52 112.16 528 110.64C531.48 109.12 535.67 108.36 540.59 108.36C542.85 108.36 545.16 108.62 547.52 109.14C549.88 109.66 552.19 110.42 554.45 111.4C556.71 112.38 558.85 113.57 560.88 114.96L555.84 125.04C553.41 123.36 550.87 122.06 548.22 121.13C545.57 120.2 543.03 119.74 540.6 119.74C536.95 119.74 534.13 120.34 532.13 121.54C530.13 122.74 529.13 124.43 529.13 126.6V126.64C529.13 128.46 529.65 129.91 530.69 130.96C531.73 132.02 533.02 132.79 534.56 133.28C536.1 133.77 538.25 134.29 541.03 134.84C541.14 134.87 541.26 134.89 541.38 134.9C541.49 134.92 541.61 134.94 541.73 134.96C541.9 134.99 542.07 135.03 542.23 135.07C542.39 135.11 542.56 135.15 542.73 135.18C546.72 135.96 550.06 136.91 552.74 138.02C555.42 139.14 557.65 140.93 559.45 143.4C561.24 145.88 562.14 149.26 562.14 153.54V153.63C562.14 157.65 561.2 161.1 559.32 163.97C557.44 166.84 554.7 169.02 551.09 170.53C547.49 172.04 543.15 172.79 538.08 172.79C535.09 172.79 532.14 172.49 529.26 171.88Z" fill="white"/>
<path fill-rule="evenodd" clip-rule="evenodd" d="M20.2799 65.39C26.9999 58.67 37.8999 58.67 44.6199 65.39C51.3399 72.11 51.3399 83.01 44.6199 89.73C37.8999 96.45 26.9999 96.45 20.2799 89.73C13.5499 83.01 13.5499 72.11 20.2799 65.39ZM26.4499 134.46C30.0199 101.4 56.2899 75.14 89.3499 71.57L81.5499 94.96C66.5899 99.88 54.7599 111.7 49.8399 126.67L26.4499 134.46Z" fill="#9D9FA2"/>
<path fill-rule="evenodd" clip-rule="evenodd" d="M20.2799 194.64C26.9999 187.92 37.8999 187.92 44.6199 194.64C51.3399 201.36 51.3399 212.26 44.6199 218.98C37.8999 225.7 26.9999 225.7 20.2799 218.98C13.5499 212.26 13.5499 201.36 20.2799 194.64ZM89.3399 212.81C56.2799 209.24 30.0199 182.98 26.4399 149.91L49.8299 157.7C54.7499 172.66 66.5799 184.49 81.5399 189.41L89.3399 212.81Z" fill="#8A8C8E"/>
<path fill-rule="evenodd" clip-rule="evenodd" d="M149.52 194.64C156.24 187.92 167.14 187.92 173.86 194.64C180.58 201.36 180.58 212.26 173.86 218.98C167.14 225.7 156.24 225.7 149.52 218.98C142.8 212.26 142.8 201.36 149.52 194.64ZM167.69 149.91C164.12 182.97 137.85 209.23 104.79 212.81L112.59 189.42C127.55 184.5 139.38 172.68 144.3 157.71L167.69 149.91Z" fill="#BCBEC0"/>
<path fill-rule="evenodd" clip-rule="evenodd" d="M149.52 65.39C156.24 58.67 167.14 58.67 173.86 65.39C180.58 72.11 180.58 83.01 173.86 89.73C167.14 96.45 156.24 96.45 149.52 89.73C142.8 83.01 142.8 72.11 149.52 65.39ZM104.79 71.56C137.85 75.13 164.12 101.39 167.69 134.45L144.3 126.66C139.38 111.69 127.56 99.87 112.59 94.95L104.79 71.56Z" fill="#6D6E71"/>
<path fill-rule="evenodd" clip-rule="evenodd" d="M97.07 58.96L117.88 121.38L180.3 142.18L117.88 162.99L97.07 225.41L76.26 162.99L13.84 142.18L76.26 121.38L97.07 58.96Z" fill="#77787B"/>
<path fill-rule="evenodd" clip-rule="evenodd" d="M97.07 142.18V225.41L76.26 162.99L97.07 142.18L117.88 162.99L180.3 142.18H97.07ZM97.07 142.18V58.96L117.87 121.38L97.07 142.18H13.84L76.26 121.37L97.07 142.18Z" fill="white"/>
</svg>
