<svg width="236" height="73" viewBox="0 0 236 73" fill="none" xmlns="http://www.w3.org/2000/svg">
<path d="M85.0737 60.4885C84.5629 60.7375 83.8976 60.8577 83.0735 60.8577C82.0005 60.8577 81.155 60.5443 80.5412 59.9134C79.9274 59.2825 79.6184 58.4412 79.6184 57.3939C79.6184 56.2737 79.9618 55.3681 80.6528 54.6727C81.3438 53.9774 82.2409 53.6298 83.3397 53.6298C84.0221 53.6298 84.5972 53.7156 85.0651 53.8873V55.4024C84.5972 55.1234 84.065 54.9818 83.4684 54.9818C82.8117 54.9818 82.2838 55.1878 81.8803 55.5998C81.4769 56.0119 81.2752 56.5698 81.2752 57.278C81.2752 57.9562 81.464 58.4927 81.846 58.8919C82.228 59.2953 82.7388 59.4928 83.3826 59.4928C83.9964 59.4928 84.5586 59.3425 85.0694 59.0421V60.4885H85.0737Z" fill="white"/>
<path d="M88.5246 60.8619C87.6919 60.8619 87.0395 60.6302 86.5631 60.1623C86.0867 59.6945 85.8463 59.0636 85.8463 58.2652C85.8463 57.4411 86.0953 56.793 86.5888 56.3295C87.0824 55.8617 87.752 55.6299 88.5933 55.6299C89.4216 55.6299 90.0697 55.8617 90.5419 56.3295C91.014 56.7973 91.2501 57.4111 91.2501 58.1794C91.2501 59.0078 91.0097 59.6645 90.5204 60.1452C90.0354 60.6216 89.3658 60.8619 88.5246 60.8619ZM88.5632 56.8059C88.1984 56.8059 87.9151 56.9304 87.7134 57.1836C87.5116 57.4326 87.4086 57.7888 87.4086 58.2481C87.4086 59.2052 87.7949 59.6859 88.5675 59.6859C89.3057 59.6859 89.6749 59.1923 89.6749 58.2094C89.6792 57.2695 89.3057 56.8059 88.5632 56.8059Z" fill="white"/>
<path d="M100.173 60.7375H98.6368V57.8918C98.6368 57.1665 98.3707 56.8059 97.8385 56.8059C97.5852 56.8059 97.3792 56.9175 97.2204 57.1321C97.0616 57.351 96.98 57.6214 96.98 57.9476V60.7418H95.4392V57.8661C95.4392 57.1622 95.1774 56.8059 94.6537 56.8059C94.3919 56.8059 94.1816 56.9089 94.0228 57.1193C93.864 57.3296 93.7867 57.6086 93.7867 57.9691V60.7418H92.2458V55.7501H93.7867V56.5312H93.8039C93.9627 56.2651 94.1859 56.0462 94.4734 55.8788C94.761 55.7115 95.0743 55.6256 95.4177 55.6256C96.1216 55.6256 96.6066 55.9346 96.8642 56.557C97.2461 55.9346 97.8041 55.6256 98.5424 55.6256C99.6283 55.6256 100.169 56.2952 100.169 57.6343V60.7375H100.173Z" fill="white"/>
<path d="M109.32 60.7375H107.783V57.8918C107.783 57.1665 107.517 56.8059 106.985 56.8059C106.732 56.8059 106.526 56.9175 106.367 57.1321C106.208 57.351 106.126 57.6214 106.126 57.9476V60.7418H104.586V57.8661C104.586 57.1622 104.324 56.8059 103.8 56.8059C103.538 56.8059 103.328 56.9089 103.169 57.1193C103.01 57.3296 102.933 57.6086 102.933 57.9691V60.7418H101.392V55.7501H102.933V56.5312H102.95C103.109 56.2651 103.332 56.0462 103.62 55.8788C103.907 55.7115 104.221 55.6256 104.564 55.6256C105.268 55.6256 105.753 55.9346 106.011 56.557C106.392 55.9346 106.95 55.6256 107.689 55.6256C108.775 55.6256 109.315 56.2952 109.315 57.6343V60.7375H109.32Z" fill="white"/>
<path d="M115.281 60.7376H113.745V59.9779H113.719C113.337 60.5659 112.831 60.862 112.191 60.862C111.037 60.862 110.457 60.1624 110.457 58.7632V55.7501H111.994V58.6259C111.994 59.334 112.273 59.686 112.831 59.686C113.105 59.686 113.329 59.5873 113.492 59.3941C113.659 59.201 113.741 58.9392 113.741 58.6044V55.7458H115.277V60.7376H115.281Z" fill="white"/>
<path d="M121.402 60.7375H119.865V57.9648C119.865 57.1922 119.591 56.8059 119.037 56.8059C118.771 56.8059 118.552 56.9089 118.38 57.1149C118.209 57.321 118.123 57.5785 118.123 57.8961V60.7418H116.582V55.7501H118.123V56.5398H118.14C118.505 55.9346 119.041 55.6299 119.745 55.6299C120.848 55.6299 121.402 56.3166 121.402 57.6858V60.7375Z" fill="white"/>
<path d="M123.398 54.9561C123.136 54.9561 122.926 54.8788 122.758 54.7243C122.595 54.5698 122.509 54.381 122.509 54.1578C122.509 53.926 122.591 53.7371 122.758 53.5912C122.926 53.4453 123.136 53.3723 123.398 53.3723C123.66 53.3723 123.874 53.4453 124.037 53.5912C124.2 53.7371 124.286 53.926 124.286 54.1578C124.286 54.3895 124.205 54.5827 124.037 54.7329C123.874 54.8831 123.664 54.9561 123.398 54.9561ZM124.162 60.7376H122.621V55.7458H124.162V60.7376Z" fill="white"/>
<path d="M128.475 60.6817C128.248 60.8019 127.905 60.862 127.45 60.862C126.364 60.862 125.823 60.2997 125.823 59.1709V56.8832H125.012V55.7458H125.823V54.6685L127.359 54.2307V55.7458H128.48V56.8832H127.359V58.9005C127.359 59.4199 127.566 59.6817 127.978 59.6817C128.141 59.6817 128.308 59.6345 128.48 59.54V60.6817H128.475Z" fill="white"/>
<path d="M134.094 55.7459L132.068 61.1367C131.579 62.433 130.845 63.0811 129.866 63.0811C129.493 63.0811 129.184 63.0381 128.943 62.9523V61.7248C129.149 61.8449 129.372 61.905 129.613 61.905C130.008 61.905 130.287 61.7162 130.441 61.3428L130.703 60.7247L128.677 55.7416H130.381L131.312 58.7804C131.373 58.9692 131.415 59.1924 131.45 59.4499H131.471C131.501 59.2611 131.553 59.0422 131.63 58.7933L132.57 55.7459H134.094Z" fill="white"/>
<path d="M139.197 58.3296V60.7374H137.622V53.7456H140.09C141.85 53.7456 142.734 54.4881 142.734 55.9732C142.734 56.6771 142.48 57.2437 141.974 57.6772C141.468 58.1107 140.794 58.3296 139.948 58.3296H139.197ZM139.197 54.956V57.1364H139.815C140.652 57.1364 141.073 56.7672 141.073 56.0333C141.073 55.3165 140.652 54.956 139.815 54.956H139.197Z" fill="white"/>
<path d="M147.756 60.7375H146.296V60.0207H146.279C145.944 60.5787 145.451 60.8577 144.794 60.8577C144.309 60.8577 143.927 60.7203 143.652 60.4457C143.373 60.171 143.236 59.8061 143.236 59.3469C143.236 58.3769 143.811 57.8189 144.957 57.6687L146.313 57.4884C146.313 56.9433 146.017 56.6686 145.425 56.6686C144.828 56.6686 144.266 56.8446 143.73 57.2008V56.042C143.944 55.9304 144.236 55.8317 144.609 55.7501C144.983 55.6643 145.322 55.6213 145.627 55.6213C147.052 55.6213 147.764 56.3338 147.764 57.7502V60.7375H147.756ZM146.309 58.7116V58.3769L145.403 58.4928C144.901 58.5571 144.652 58.7846 144.652 59.1709C144.652 59.3469 144.712 59.4885 144.837 59.6001C144.957 59.7117 145.124 59.7675 145.331 59.7675C145.618 59.7675 145.854 59.6688 146.039 59.4671C146.215 59.2696 146.309 59.0164 146.309 58.7116Z" fill="white"/>
<path d="M152.232 57.1364C152.048 57.0334 151.829 56.9862 151.584 56.9862C151.249 56.9862 150.987 57.1106 150.799 57.3553C150.61 57.5999 150.515 57.9347 150.515 58.3553V60.7418H148.974V55.75H150.515V56.6728H150.533C150.777 55.999 151.215 55.6599 151.85 55.6599C152.013 55.6599 152.138 55.6771 152.232 55.72V57.1364Z" fill="white"/>
<path d="M155.966 60.6817C155.739 60.8019 155.395 60.862 154.94 60.862C153.855 60.862 153.314 60.2997 153.314 59.1709V56.8832H152.503V55.7458H153.314V54.6685L154.85 54.2307V55.7458H155.971V56.8832H154.85V58.9005C154.85 59.4199 155.056 59.6817 155.468 59.6817C155.632 59.6817 155.799 59.6345 155.971 59.54V60.6817H155.966Z" fill="white"/>
<path d="M161.653 60.7375H160.117V57.9648C160.117 57.1922 159.842 56.8059 159.288 56.8059C159.022 56.8059 158.803 56.9089 158.632 57.1149C158.46 57.321 158.374 57.5785 158.374 57.8961V60.7418H156.833V55.7501H158.374V56.5398H158.391C158.756 55.9346 159.293 55.6299 159.997 55.6299C161.1 55.6299 161.653 56.3166 161.653 57.6858V60.7375Z" fill="white"/>
<path d="M167.357 58.6816H164.1C164.151 59.407 164.606 59.7675 165.469 59.7675C166.018 59.7675 166.499 59.6387 166.915 59.3769V60.4886C166.456 60.7375 165.855 60.8577 165.117 60.8577C164.31 60.8577 163.683 60.6345 163.241 60.1881C162.795 59.7418 162.572 59.1194 162.572 58.3168C162.572 57.4884 162.812 56.8317 163.293 56.3467C163.774 55.8617 164.366 55.6213 165.07 55.6213C165.799 55.6213 166.362 55.8359 166.757 56.2694C167.156 56.7029 167.353 57.2867 167.353 58.0292V58.6816H167.357ZM165.928 57.7373C165.928 57.0206 165.641 56.6643 165.061 56.6643C164.812 56.6643 164.602 56.7673 164.417 56.9733C164.237 57.1794 164.126 57.4326 164.087 57.7373H165.928Z" fill="white"/>
<path d="M171.529 57.1364C171.345 57.0334 171.126 56.9862 170.881 56.9862C170.547 56.9862 170.285 57.1106 170.096 57.3553C169.907 57.5999 169.813 57.9347 169.813 58.3553V60.7418H168.272V55.75H169.813V56.6728H169.83C170.074 55.999 170.512 55.6599 171.147 55.6599C171.311 55.6599 171.435 55.6771 171.529 55.72V57.1364Z" fill="white"/>
<path d="M171.92 60.6088V59.3598C172.173 59.5143 172.427 59.6259 172.68 59.6988C172.933 59.7718 173.169 59.8104 173.397 59.8104C173.671 59.8104 173.886 59.7718 174.04 59.6988C174.199 59.6259 174.276 59.51 174.276 59.3598C174.276 59.261 174.242 59.1795 174.169 59.1151C174.096 59.0507 174.006 58.9949 173.894 58.9434C173.783 58.8962 173.658 58.8533 173.525 58.8104C173.392 58.7717 173.263 58.7288 173.139 58.6773C172.942 58.6043 172.766 58.5228 172.615 58.437C172.465 58.3511 172.336 58.2524 172.233 58.1365C172.13 58.0249 172.053 57.8919 172.002 57.7416C171.95 57.5914 171.92 57.4154 171.92 57.2094C171.92 56.9304 171.98 56.6901 172.105 56.4883C172.229 56.2866 172.388 56.1235 172.594 55.9947C172.796 55.866 173.027 55.7716 173.289 55.7115C173.551 55.6514 173.821 55.6213 174.105 55.6213C174.324 55.6213 174.551 55.6385 174.779 55.6728C175.006 55.7072 175.229 55.7544 175.452 55.8188V57.0077C175.259 56.8918 175.049 56.8102 174.826 56.7502C174.603 56.6944 174.384 56.6643 174.169 56.6643C174.07 56.6643 173.972 56.6729 173.886 56.6901C173.796 56.7072 173.718 56.733 173.65 56.7673C173.581 56.8017 173.53 56.8446 173.491 56.9004C173.452 56.9519 173.431 57.0163 173.431 57.0849C173.431 57.1751 173.461 57.2523 173.517 57.321C173.577 57.3854 173.654 57.4412 173.744 57.4884C173.839 57.5356 173.942 57.5785 174.058 57.6172C174.173 57.6558 174.289 57.6901 174.401 57.733C174.607 57.806 174.791 57.8833 174.959 57.9648C175.122 58.0507 175.268 58.1494 175.384 58.261C175.504 58.3726 175.594 58.5099 175.658 58.6601C175.723 58.8147 175.753 58.9949 175.753 59.2052C175.753 59.5014 175.688 59.7546 175.56 59.9649C175.431 60.1753 175.259 60.3469 175.049 60.4757C174.834 60.6088 174.59 60.7032 174.311 60.7633C174.032 60.8234 173.744 60.8534 173.444 60.8534C172.899 60.862 172.388 60.7761 171.92 60.6088Z" fill="white"/>
<path d="M181.431 60.7377H179.895V57.9006C179.895 57.1709 179.629 56.8018 179.096 56.8018C178.822 56.8018 178.603 56.9048 178.435 57.1109C178.268 57.3169 178.182 57.5744 178.182 57.892V60.7377H176.641V53.3467H178.182V56.4885H178.199C178.577 55.9134 179.088 55.6258 179.736 55.6258C180.865 55.6258 181.431 56.3082 181.431 57.6731V60.7377Z" fill="white"/>
<path d="M183.431 54.9561C183.17 54.9561 182.959 54.8788 182.792 54.7243C182.629 54.5698 182.543 54.381 182.543 54.1578C182.543 53.926 182.625 53.7371 182.792 53.5912C182.959 53.4453 183.17 53.3723 183.431 53.3723C183.693 53.3723 183.908 53.4453 184.071 53.5912C184.234 53.7371 184.32 53.926 184.32 54.1578C184.32 54.3895 184.238 54.5827 184.071 54.7329C183.908 54.8831 183.693 54.9561 183.431 54.9561ZM184.191 60.7376H182.65V55.7458H184.191V60.7376Z" fill="white"/>
<path d="M187.05 60.1581H187.032V63.0338H185.487V55.7458H187.028V56.4969H187.045C187.427 55.9132 187.96 55.6256 188.651 55.6256C189.299 55.6256 189.797 55.8488 190.149 56.2909C190.5 56.733 190.676 57.3382 190.676 58.1022C190.676 58.9348 190.47 59.6044 190.058 60.1066C189.646 60.613 189.101 60.862 188.419 60.862C187.822 60.862 187.363 60.6259 187.05 60.1581ZM187.007 58.1107V58.5099C187.007 58.8533 187.097 59.1365 187.281 59.3554C187.466 59.5743 187.702 59.6816 187.998 59.6816C188.35 59.6816 188.621 59.5443 188.814 59.2739C189.007 59.0035 189.106 58.6172 189.106 58.1193C189.106 57.2394 188.762 56.8016 188.08 56.8016C187.766 56.8016 187.505 56.9218 187.307 57.1622C187.105 57.4025 187.007 57.7159 187.007 58.1107Z" fill="white"/>
<path d="M191.355 60.6088V59.3598C191.608 59.5143 191.861 59.6259 192.114 59.6988C192.368 59.7718 192.604 59.8104 192.831 59.8104C193.106 59.8104 193.32 59.7718 193.475 59.6988C193.634 59.6259 193.711 59.51 193.711 59.3598C193.711 59.261 193.677 59.1795 193.604 59.1151C193.531 59.0507 193.441 58.9949 193.329 58.9434C193.217 58.8962 193.093 58.8533 192.96 58.8104C192.827 58.7717 192.698 58.7288 192.574 58.6773C192.376 58.6043 192.2 58.5228 192.05 58.437C191.9 58.3511 191.771 58.2524 191.668 58.1365C191.565 58.0249 191.488 57.8919 191.436 57.7416C191.385 57.5914 191.355 57.4154 191.355 57.2094C191.355 56.9304 191.415 56.6901 191.539 56.4883C191.664 56.2866 191.822 56.1235 192.028 55.9947C192.23 55.866 192.462 55.7716 192.724 55.7115C192.986 55.6514 193.256 55.6213 193.539 55.6213C193.758 55.6213 193.986 55.6385 194.213 55.6728C194.441 55.7072 194.664 55.7544 194.887 55.8188V57.0077C194.694 56.8918 194.484 56.8102 194.26 56.7502C194.037 56.6944 193.818 56.6643 193.604 56.6643C193.501 56.6643 193.406 56.6729 193.32 56.6901C193.23 56.7072 193.153 56.733 193.084 56.7673C193.016 56.8017 192.964 56.8446 192.926 56.9004C192.887 56.9519 192.865 57.0163 192.865 57.0849C192.865 57.1751 192.895 57.2523 192.951 57.321C193.011 57.3854 193.089 57.4412 193.179 57.4884C193.269 57.5356 193.376 57.5785 193.492 57.6172C193.608 57.6558 193.724 57.6901 193.835 57.733C194.041 57.806 194.226 57.8833 194.393 57.9648C194.557 58.0507 194.702 58.1494 194.818 58.261C194.939 58.3726 195.029 58.5099 195.093 58.6601C195.157 58.8147 195.187 58.9949 195.187 59.2052C195.187 59.5014 195.123 59.7546 194.994 59.9649C194.866 60.1753 194.694 60.3469 194.484 60.4757C194.269 60.6088 194.024 60.7032 193.745 60.7633C193.466 60.8234 193.179 60.8534 192.878 60.8534C192.329 60.862 191.822 60.7761 191.355 60.6088Z" fill="white"/>
<path d="M201.845 60.6817C201.617 60.8019 201.274 60.862 200.819 60.862C199.733 60.862 199.192 60.2997 199.192 59.1709V56.8832H198.381V55.7458H199.192V54.6685L200.729 54.2307V55.7458H201.849V56.8832H200.729V58.9005C200.729 59.4199 200.935 59.6817 201.347 59.6817C201.51 59.6817 201.677 59.6345 201.849 59.54V60.6817H201.845Z" fill="white"/>
<path d="M205.094 60.8619C204.261 60.8619 203.609 60.6302 203.132 60.1623C202.656 59.6945 202.415 59.0636 202.415 58.2652C202.415 57.4411 202.664 56.793 203.158 56.3295C203.652 55.8617 204.321 55.6299 205.162 55.6299C205.991 55.6299 206.639 55.8617 207.111 56.3295C207.583 56.7973 207.819 57.4111 207.819 58.1794C207.819 59.0078 207.579 59.6645 207.089 60.1452C206.6 60.6216 205.935 60.8619 205.094 60.8619ZM205.128 56.8059C204.763 56.8059 204.48 56.9304 204.278 57.1836C204.076 57.4326 203.973 57.7888 203.973 58.2481C203.973 59.2052 204.36 59.6859 205.132 59.6859C205.871 59.6859 206.24 59.1923 206.24 58.2094C206.248 57.2695 205.875 56.8059 205.128 56.8059Z" fill="white"/>
<path d="M86.5803 70.6566H84.8634L84.3655 69.1029H81.8804L81.3868 70.6566H79.6829L82.2281 63.6648H84.0951L86.5803 70.6566ZM84.005 67.8925L83.2539 65.5447C83.1981 65.3688 83.1595 65.1585 83.138 64.9181H83.0994C83.0822 65.1241 83.0436 65.3258 82.9792 65.5276L82.2195 67.8968H84.005V67.8925Z" fill="white"/>
<path d="M92.1857 70.6566H90.6448V69.9699H90.6277C90.2757 70.5107 89.7607 70.7811 89.0825 70.7811C88.4601 70.7811 87.958 70.5622 87.576 70.1201C87.194 69.678 87.0051 69.0642 87.0051 68.2745C87.0051 67.4504 87.2154 66.7894 87.6361 66.2916C88.0567 65.7937 88.6061 65.5447 89.2842 65.5447C89.928 65.5447 90.3744 65.7765 90.6319 66.2358H90.6491V63.2656H92.19V70.6566H92.1857ZM90.6749 68.2273V67.8496C90.6749 67.5234 90.5804 67.253 90.3916 67.0384C90.2027 66.8238 89.9581 66.7165 89.6534 66.7165C89.3143 66.7165 89.0439 66.8495 88.855 67.1199C88.6619 67.386 88.5675 67.7552 88.5675 68.223C88.5675 68.6608 88.6619 68.9999 88.8464 69.2359C89.031 69.472 89.2885 69.5922 89.6147 69.5922C89.928 69.5922 90.1813 69.4677 90.3787 69.2145C90.5762 68.9741 90.6749 68.6393 90.6749 68.2273Z" fill="white"/>
<path d="M98.2332 65.6649L96.3748 70.6566H94.6193L92.851 65.6649H94.4991L95.3661 68.7424C95.4648 69.09 95.5206 69.3862 95.5378 69.6308H95.555C95.5764 69.399 95.6365 69.1158 95.7352 68.7724L96.6237 65.6649H98.2332Z" fill="white"/>
<path d="M103.045 70.6566H101.585V69.9398H101.568C101.233 70.4978 100.74 70.7768 100.083 70.7768C99.5982 70.7768 99.2162 70.6394 98.9415 70.3647C98.6668 70.09 98.5251 69.7252 98.5251 69.2659C98.5251 68.2959 99.1003 67.738 100.246 67.5877L101.603 67.4075C101.603 66.8624 101.306 66.5877 100.714 66.5877C100.118 66.5877 99.5552 66.7637 99.0187 67.1199V65.961C99.2333 65.8494 99.5252 65.7507 99.8986 65.6692C100.272 65.5833 100.611 65.5404 100.916 65.5404C102.341 65.5404 103.053 66.2529 103.053 67.6693V70.6566H103.045ZM101.598 68.6264V68.2916L100.693 68.4075C100.19 68.4719 99.9415 68.6994 99.9415 69.0857C99.9415 69.2617 100.002 69.4033 100.126 69.5149C100.246 69.6265 100.414 69.6823 100.62 69.6823C100.907 69.6823 101.143 69.5836 101.328 69.3818C101.508 69.1844 101.598 68.9355 101.598 68.6264Z" fill="white"/>
<path d="M109.088 70.6564H107.551V67.8837C107.551 67.1112 107.277 66.7249 106.723 66.7249C106.457 66.7249 106.238 66.8279 106.066 67.0339C105.895 67.2399 105.809 67.4974 105.809 67.8151V70.6607H104.268V65.669H105.809V66.4588H105.826C106.191 65.8536 106.727 65.5488 107.431 65.5488C108.534 65.5488 109.088 66.2356 109.088 67.6047V70.6564Z" fill="white"/>
<path d="M114.088 70.4762C113.741 70.6779 113.238 70.7809 112.582 70.7809C111.813 70.7809 111.195 70.5491 110.719 70.0856C110.243 69.622 110.006 69.0211 110.006 68.2872C110.006 67.4374 110.26 66.7721 110.77 66.2828C111.277 65.7935 111.959 65.5488 112.809 65.5488C113.397 65.5488 113.822 65.6261 114.084 65.7849V67.0897C113.762 66.8493 113.402 66.7292 113.007 66.7292C112.565 66.7292 112.213 66.8579 111.955 67.1154C111.698 67.373 111.569 67.7292 111.569 68.1842C111.569 68.6263 111.693 68.9739 111.938 69.2229C112.187 69.4761 112.526 69.6006 112.955 69.6006C113.337 69.6006 113.715 69.4804 114.08 69.24V70.4762H114.088Z" fill="white"/>
<path d="M119.582 68.6007H116.324C116.376 69.326 116.831 69.6866 117.694 69.6866C118.243 69.6866 118.724 69.5578 119.14 69.296V70.4076C118.681 70.6566 118.08 70.7768 117.342 70.7768C116.535 70.7768 115.908 70.5536 115.466 70.1072C115.02 69.6608 114.797 69.0385 114.797 68.2358C114.797 67.4075 115.037 66.7508 115.518 66.2658C115.998 65.7808 116.591 65.5404 117.295 65.5404C118.024 65.5404 118.586 65.755 118.981 66.1885C119.38 66.622 119.578 67.2057 119.578 67.9483V68.6007H119.582ZM118.153 67.6521C118.153 66.9353 117.865 66.5791 117.286 66.5791C117.037 66.5791 116.827 66.6821 116.642 66.8881C116.462 67.0941 116.35 67.3474 116.312 67.6521H118.153Z" fill="white"/>
<path d="M123.085 70.3862V68.8281C123.368 69.0642 123.673 69.2445 124.007 69.3604C124.338 69.4805 124.673 69.5363 125.012 69.5363C125.209 69.5363 125.381 69.5192 125.531 69.4805C125.677 69.4462 125.802 69.3947 125.9 69.3303C125.999 69.2659 126.072 69.193 126.123 69.1071C126.171 69.0213 126.196 68.9269 126.196 68.8281C126.196 68.6908 126.158 68.5706 126.08 68.4633C126.003 68.356 125.896 68.2573 125.763 68.1671C125.63 68.077 125.467 67.9869 125.282 67.9053C125.098 67.8195 124.896 67.7336 124.681 67.6478C124.136 67.4203 123.728 67.1413 123.462 66.8151C123.192 66.4846 123.059 66.0898 123.059 65.6262C123.059 65.2614 123.132 64.9481 123.278 64.6863C123.424 64.4244 123.625 64.2098 123.874 64.0382C124.128 63.8708 124.419 63.7463 124.75 63.6647C125.08 63.5832 125.432 63.5446 125.801 63.5446C126.166 63.5446 126.488 63.566 126.767 63.6089C127.05 63.6519 127.308 63.7205 127.544 63.8107V65.27C127.428 65.1884 127.299 65.1155 127.162 65.0554C127.025 64.9953 126.883 64.9438 126.737 64.9009C126.591 64.8622 126.445 64.8279 126.299 64.8107C126.153 64.7936 126.016 64.7807 125.887 64.7807C125.707 64.7807 125.548 64.7978 125.402 64.8322C125.256 64.8665 125.132 64.9137 125.033 64.9781C124.93 65.0382 124.853 65.1155 124.801 65.2013C124.746 65.2871 124.72 65.3859 124.72 65.4932C124.72 65.6091 124.75 65.7164 124.814 65.8065C124.874 65.8966 124.965 65.9868 125.076 66.0683C125.188 66.1499 125.329 66.2314 125.488 66.313C125.651 66.3945 125.836 66.4761 126.038 66.5576C126.317 66.6735 126.57 66.798 126.789 66.931C127.012 67.0641 127.201 67.21 127.36 67.3774C127.518 67.5405 127.643 67.7336 127.724 67.944C127.81 68.1543 127.853 68.4032 127.853 68.6865C127.853 69.0771 127.78 69.4033 127.63 69.6694C127.484 69.9355 127.282 70.1501 127.029 70.3132C126.776 70.4763 126.48 70.5965 126.145 70.6652C125.81 70.7381 125.454 70.7725 125.08 70.7725C124.698 70.7725 124.334 70.7381 123.986 70.6737C123.638 70.6179 123.338 70.5192 123.085 70.3862Z" fill="white"/>
<path d="M132.634 70.4762C132.287 70.6779 131.785 70.7809 131.128 70.7809C130.36 70.7809 129.742 70.5491 129.265 70.0856C128.789 69.622 128.553 69.0211 128.553 68.2872C128.553 67.4374 128.806 66.7721 129.317 66.2828C129.823 65.7935 130.506 65.5488 131.355 65.5488C131.943 65.5488 132.368 65.6261 132.63 65.7849V67.0897C132.308 66.8493 131.948 66.7292 131.553 66.7292C131.111 66.7292 130.759 66.8579 130.501 67.1154C130.244 67.373 130.115 67.7292 130.115 68.1842C130.115 68.6263 130.239 68.9739 130.484 69.2229C130.733 69.4761 131.072 69.6006 131.501 69.6006C131.883 69.6006 132.261 69.4804 132.626 69.24V70.4762H132.634Z" fill="white"/>
<path d="M134.424 64.875C134.162 64.875 133.952 64.7978 133.785 64.6433C133.622 64.4888 133.536 64.2999 133.536 64.0767C133.536 63.8449 133.617 63.6561 133.785 63.5102C133.952 63.3642 134.162 63.2913 134.424 63.2913C134.686 63.2913 134.901 63.3642 135.064 63.5102C135.227 63.6561 135.313 63.8449 135.313 64.0767C135.313 64.3085 135.231 64.5016 135.064 64.6519C134.901 64.7978 134.686 64.875 134.424 64.875ZM135.184 70.6565H133.643V65.6648H135.184V70.6565Z" fill="white"/>
<path d="M140.965 68.6007H137.708C137.759 69.326 138.214 69.6866 139.077 69.6866C139.626 69.6866 140.107 69.5578 140.523 69.296V70.4076C140.064 70.6566 139.463 70.7768 138.725 70.7768C137.918 70.7768 137.291 70.5536 136.849 70.1072C136.403 69.6608 136.18 69.0385 136.18 68.2358C136.18 67.4075 136.42 66.7508 136.901 66.2658C137.381 65.7808 137.974 65.5404 138.678 65.5404C139.407 65.5404 139.97 65.755 140.364 66.1885C140.764 66.622 140.961 67.2057 140.961 67.9483V68.6007H140.965ZM139.536 67.6521C139.536 66.9353 139.249 66.5791 138.669 66.5791C138.42 66.5791 138.21 66.6821 138.025 66.8881C137.845 67.0941 137.733 67.3474 137.695 67.6521H139.536Z" fill="white"/>
<path d="M146.704 70.6564H145.167V67.8837C145.167 67.1112 144.893 66.7249 144.339 66.7249C144.073 66.7249 143.854 66.8279 143.682 67.0339C143.511 67.2399 143.425 67.4974 143.425 67.8151V70.6607H141.884V65.669H143.425V66.4588H143.442C143.807 65.8536 144.343 65.5488 145.047 65.5488C146.15 65.5488 146.704 66.2356 146.704 67.6047V70.6564Z" fill="white"/>
<path d="M151.704 70.4762C151.357 70.6779 150.854 70.7809 150.198 70.7809C149.429 70.7809 148.811 70.5491 148.335 70.0856C147.859 69.622 147.622 69.0211 147.622 68.2872C147.622 67.4374 147.876 66.7721 148.386 66.2828C148.893 65.7935 149.575 65.5488 150.425 65.5488C151.013 65.5488 151.438 65.6261 151.7 65.7849V67.0897C151.378 66.8493 151.017 66.7292 150.623 66.7292C150.181 66.7292 149.829 66.8579 149.571 67.1154C149.314 67.373 149.185 67.7292 149.185 68.1842C149.185 68.6263 149.309 68.9739 149.554 69.2229C149.803 69.4761 150.142 69.6006 150.571 69.6006C150.953 69.6006 151.331 69.4804 151.696 69.24V70.4762H151.704Z" fill="white"/>
<path d="M157.198 68.6007H153.94C153.992 69.326 154.447 69.6866 155.31 69.6866C155.859 69.6866 156.34 69.5578 156.756 69.296V70.4076C156.297 70.6566 155.696 70.7768 154.958 70.7768C154.151 70.7768 153.524 70.5536 153.082 70.1072C152.636 69.6608 152.412 69.0385 152.412 68.2358C152.412 67.4075 152.653 66.7508 153.134 66.2658C153.614 65.7808 154.207 65.5404 154.91 65.5404C155.64 65.5404 156.202 65.755 156.597 66.1885C156.996 66.622 157.194 67.2057 157.194 67.9483V68.6007H157.198ZM155.769 67.6521C155.769 66.9353 155.481 66.5791 154.902 66.5791C154.653 66.5791 154.443 66.6821 154.258 66.8881C154.078 67.0941 153.966 67.3474 153.928 67.6521H155.769Z" fill="white"/>
<path d="M164.126 64.446C163.928 64.3687 163.739 64.3301 163.555 64.3301C163.061 64.3301 162.812 64.5962 162.812 65.1327V65.665H163.954V66.8024H162.812V70.6567H161.276V66.8024H160.439V65.665H161.276V65.0469C161.276 64.4803 161.46 64.0211 161.834 63.6734C162.203 63.3258 162.709 63.1498 163.344 63.1498C163.658 63.1498 163.915 63.1798 164.126 63.2485V64.446Z" fill="white"/>
<path d="M167.074 70.7766C166.242 70.7766 165.589 70.5448 165.113 70.077C164.636 69.6092 164.396 68.9782 164.396 68.1799C164.396 67.3558 164.645 66.7077 165.139 66.2442C165.632 65.7763 166.302 65.5446 167.143 65.5446C167.971 65.5446 168.619 65.7763 169.092 66.2442C169.564 66.712 169.8 67.3258 169.8 68.0941C169.8 68.9224 169.559 69.5791 169.07 70.0598C168.585 70.5363 167.92 70.7766 167.074 70.7766ZM167.113 66.7206C166.748 66.7206 166.465 66.8451 166.263 67.0983C166.061 67.3472 165.958 67.7035 165.958 68.1627C165.958 69.1199 166.345 69.6006 167.117 69.6006C167.855 69.6006 168.225 69.107 168.225 68.1241C168.233 67.1884 167.86 66.7206 167.113 66.7206Z" fill="white"/>
<path d="M174.058 67.0554C173.873 66.9524 173.654 66.9052 173.409 66.9052C173.075 66.9052 172.813 67.0297 172.624 67.2743C172.435 67.519 172.341 67.8538 172.341 68.2744V70.6608H170.8V65.6691H172.341V66.5962H172.358C172.602 65.9223 173.04 65.5833 173.676 65.5833C173.839 65.5833 173.963 65.6004 174.058 65.6433V67.0554Z" fill="white"/>
<path d="M177.358 70.3862V68.8281C177.641 69.0642 177.946 69.2445 178.281 69.3604C178.611 69.4805 178.946 69.5363 179.285 69.5363C179.483 69.5363 179.654 69.5192 179.805 69.4805C179.955 69.4419 180.075 69.3947 180.174 69.3303C180.272 69.2659 180.345 69.193 180.397 69.1071C180.444 69.0213 180.47 68.9269 180.47 68.8281C180.47 68.6908 180.431 68.5706 180.354 68.4633C180.277 68.356 180.169 68.2573 180.036 68.1671C179.903 68.077 179.74 67.9869 179.556 67.9053C179.371 67.8195 179.169 67.7336 178.955 67.6478C178.41 67.4203 178.002 67.1413 177.736 66.8151C177.465 66.4846 177.332 66.0898 177.332 65.6262C177.332 65.2614 177.405 64.9481 177.551 64.6863C177.697 64.4244 177.899 64.2098 178.148 64.0382C178.397 63.8665 178.693 63.7463 179.023 63.6647C179.354 63.5832 179.706 63.5446 180.075 63.5446C180.44 63.5446 180.762 63.566 181.041 63.6089C181.324 63.6519 181.582 63.7205 181.818 63.8107V65.27C181.702 65.1884 181.573 65.1155 181.436 65.0554C181.298 64.9953 181.157 64.9438 181.011 64.9009C180.865 64.8622 180.719 64.8279 180.573 64.8107C180.427 64.7936 180.29 64.7807 180.161 64.7807C179.981 64.7807 179.822 64.7978 179.676 64.8322C179.53 64.8665 179.405 64.9137 179.307 64.9781C179.204 65.0382 179.126 65.1155 179.075 65.2013C179.019 65.2871 178.993 65.3859 178.993 65.4932C178.993 65.6091 179.023 65.7164 179.088 65.8065C179.152 65.8966 179.238 65.9868 179.35 66.0683C179.461 66.1499 179.603 66.2314 179.762 66.313C179.925 66.3945 180.109 66.4761 180.311 66.5576C180.59 66.6735 180.843 66.798 181.062 66.931C181.285 67.0641 181.474 67.21 181.633 67.3774C181.792 67.5405 181.916 67.7336 181.998 67.944C182.084 68.1543 182.127 68.4032 182.127 68.6865C182.127 69.0771 182.054 69.4033 181.903 69.6694C181.758 69.9355 181.556 70.1501 181.303 70.3132C181.049 70.4763 180.753 70.5965 180.418 70.6652C180.084 70.7381 179.727 70.7725 179.354 70.7725C178.972 70.7725 178.607 70.7381 178.259 70.6737C177.912 70.6179 177.611 70.5192 177.358 70.3862Z" fill="white"/>
<path d="M185.504 70.7766C184.672 70.7766 184.019 70.5448 183.543 70.077C183.067 69.6092 182.826 68.9782 182.826 68.1799C182.826 67.3558 183.075 66.7077 183.569 66.2442C184.062 65.7763 184.732 65.5446 185.573 65.5446C186.402 65.5446 187.05 65.7763 187.522 66.2442C187.994 66.712 188.23 67.3258 188.23 68.0941C188.23 68.9224 187.99 69.5791 187.5 70.0598C187.015 70.5363 186.35 70.7766 185.504 70.7766ZM185.543 66.7206C185.178 66.7206 184.895 66.8451 184.693 67.0983C184.492 67.3472 184.393 67.7035 184.393 68.1627C184.393 69.1199 184.779 69.6006 185.552 69.6006C186.29 69.6006 186.659 69.107 186.659 68.1241C186.659 67.1884 186.286 66.7206 185.543 66.7206Z" fill="white"/>
<path d="M193.011 70.4762C192.664 70.6779 192.162 70.7809 191.505 70.7809C190.737 70.7809 190.118 70.5491 189.642 70.0856C189.166 69.622 188.93 69.0211 188.93 68.2872C188.93 67.4374 189.183 66.7721 189.694 66.2828C190.2 65.7935 190.882 65.5488 191.732 65.5488C192.32 65.5488 192.745 65.6261 193.007 65.7849V67.0897C192.685 66.8493 192.325 66.7292 191.93 66.7292C191.488 66.7292 191.136 66.8579 190.878 67.1154C190.621 67.373 190.492 67.7292 190.492 68.1842C190.492 68.6263 190.616 68.9739 190.861 69.2229C191.11 69.4761 191.449 69.6006 191.878 69.6006C192.26 69.6006 192.638 69.4804 193.003 69.24V70.4762H193.011Z" fill="white"/>
<path d="M194.801 64.875C194.539 64.875 194.329 64.7978 194.162 64.6433C193.999 64.4888 193.913 64.2999 193.913 64.0767C193.913 63.8449 193.994 63.6561 194.162 63.5102C194.329 63.3642 194.539 63.2913 194.801 63.2913C195.063 63.2913 195.278 63.3642 195.441 63.5102C195.604 63.6561 195.69 63.8449 195.69 64.0767C195.69 64.3085 195.608 64.5016 195.441 64.6519C195.278 64.7978 195.063 64.875 194.801 64.875ZM195.561 70.6565H194.02V65.6648H195.561V70.6565Z" fill="white"/>
<path d="M201.342 68.6007H198.085C198.136 69.326 198.591 69.6866 199.454 69.6866C200.003 69.6866 200.484 69.5578 200.9 69.296V70.4076C200.441 70.6566 199.84 70.7768 199.102 70.7768C198.295 70.7768 197.668 70.5536 197.226 70.1072C196.78 69.6608 196.557 69.0385 196.557 68.2358C196.557 67.4075 196.797 66.7508 197.278 66.2658C197.758 65.7808 198.351 65.5404 199.055 65.5404C199.784 65.5404 200.347 65.755 200.741 66.1885C201.141 66.622 201.338 67.2057 201.338 67.9483V68.6007H201.342ZM199.913 67.6521C199.913 66.9353 199.625 66.5791 199.046 66.5791C198.797 66.5791 198.587 66.6821 198.402 66.8881C198.222 67.0941 198.11 67.3474 198.072 67.6521H199.913Z" fill="white"/>
<path d="M205.278 70.5965C205.051 70.7167 204.707 70.7768 204.252 70.7768C203.166 70.7768 202.626 70.2145 202.626 69.0857V66.798H201.814V65.6606H202.626V64.5833L204.162 64.1455V65.6606H205.282V66.798H204.162V68.8153C204.162 69.3347 204.368 69.5965 204.78 69.5965C204.943 69.5965 205.111 69.5493 205.282 69.4548V70.5965H205.278Z" fill="white"/>
<path d="M210.897 65.6647L208.871 71.0556C208.381 72.3518 207.647 72.9999 206.669 72.9999C206.295 72.9999 205.986 72.957 205.746 72.8711V71.6436C205.952 71.7638 206.175 71.8239 206.416 71.8239C206.811 71.8239 207.09 71.635 207.244 71.2616L207.506 70.6435L205.48 65.6604H207.184L208.115 68.6992C208.175 68.8881 208.218 69.1112 208.253 69.3688H208.274C208.304 69.1799 208.356 68.961 208.433 68.7121L209.373 65.6647H210.897Z" fill="white"/>
<path d="M82.9061 47.6723C81.4382 46.8825 80.3223 45.7323 79.5497 44.2257C78.7771 42.7149 78.3951 40.8908 78.3951 38.7533V31.3151C78.3951 29.1776 78.7814 27.3535 79.5497 25.8427C80.318 24.3319 81.4382 23.1816 82.9061 22.3875C84.374 21.5935 86.1381 21.1943 88.1983 21.1943C89.9023 21.1943 91.4217 21.5592 92.7651 22.2931C94.1085 23.0271 95.2159 24.0915 96.0915 25.4907C96.9671 26.89 97.5722 28.5767 97.907 30.5511H92.6149C92.4174 29.6541 92.1084 28.8901 91.6921 28.2591C91.2757 27.6239 90.7736 27.1389 90.1812 26.8041C89.5932 26.4693 88.9279 26.3019 88.1983 26.3019C87.2412 26.3019 86.4257 26.4951 85.7561 26.89C85.0865 27.2805 84.5715 27.8514 84.2195 28.6068C83.8633 29.3579 83.6873 30.2635 83.6873 31.3194V38.7576C83.6873 39.8135 83.8633 40.7148 84.2195 41.4616C84.5758 42.2085 85.0865 42.775 85.7561 43.1656C86.4257 43.5562 87.2412 43.7536 88.1983 43.7536C88.9451 43.7536 89.6147 43.5905 90.2113 43.26C90.8079 42.9295 91.3101 42.4488 91.7221 41.8136C92.1341 41.1826 92.4303 40.4101 92.6149 39.5044H97.907C97.5594 41.4788 96.9456 43.1656 96.07 44.5648C95.1944 45.964 94.0871 47.0285 92.7522 47.7624C91.4174 48.4964 89.898 48.8612 88.194 48.8612C86.1338 48.8569 84.3697 48.462 82.9061 47.6723Z" fill="white"/>
<path d="M103.942 47.8698C102.693 47.2088 101.74 46.2516 101.092 44.9898C100.444 43.7279 100.113 42.2085 100.113 40.4316V37.2812C100.113 35.53 100.439 34.0277 101.092 32.7787C101.744 31.5297 102.697 30.5812 103.942 29.9288C105.191 29.2764 106.697 28.9502 108.461 28.9502C110.225 28.9502 111.732 29.2764 112.981 29.9288C114.23 30.5812 115.178 31.5297 115.831 32.7787C116.483 34.0277 116.809 35.53 116.809 37.2812V40.4874C116.809 42.2514 116.483 43.7579 115.831 45.0069C115.178 46.2559 114.23 47.2088 112.981 47.8698C111.732 48.5265 110.225 48.8569 108.461 48.8569C106.697 48.8569 105.191 48.5265 103.942 47.8698ZM110.848 43.0326C111.419 42.4317 111.706 41.5818 111.706 40.4874V37.2812C111.706 36.1996 111.423 35.3626 110.848 34.766C110.277 34.1694 109.474 33.8732 108.444 33.8732C107.427 33.8732 106.633 34.1694 106.066 34.766C105.5 35.3626 105.216 36.1996 105.216 37.2812V40.4874C105.216 41.5818 105.495 42.4274 106.053 43.0326C106.611 43.6378 107.41 43.9382 108.44 43.9382C109.474 43.9339 110.277 43.6335 110.848 43.0326Z" fill="white"/>
<path d="M119.947 29.2292H125.055V48.578H119.947V29.2292ZM131.222 37.4099C131.222 36.2811 130.943 35.4055 130.385 34.7918C129.827 34.178 129.038 33.869 128.016 33.869C127.072 33.869 126.342 34.1308 125.827 34.6587C125.312 35.1866 125.055 35.9292 125.055 36.8863L124.664 32.5985C125.235 31.4053 125.947 30.4997 126.806 29.8773C127.664 29.255 128.668 28.9459 129.823 28.9459C131.188 28.9459 132.36 29.2764 133.338 29.9331C134.313 30.5941 135.055 31.5555 135.566 32.8217C136.077 34.0879 136.33 35.6116 136.33 37.3885V48.5737H131.222V37.4099ZM142.498 37.4099C142.498 36.2811 142.227 35.4055 141.686 34.7918C141.146 34.178 140.377 33.869 139.386 33.869C138.403 33.869 137.648 34.1651 137.12 34.7531C136.592 35.3454 136.326 36.1781 136.326 37.2597L135.377 32.7874C135.986 31.5555 136.776 30.6113 137.755 29.946C138.729 29.2807 139.815 28.9502 141.008 28.9502C142.399 28.9502 143.588 29.2807 144.575 29.9374C145.562 30.5984 146.313 31.5598 146.833 32.826C147.348 34.0921 147.605 35.6158 147.605 37.3928V48.578H142.498V37.4099Z" fill="white"/>
<path d="M151.485 21.4734H156.593V48.5737H151.485V21.4734ZM153.812 33.1436H162.477C163.087 33.1436 163.623 33.002 164.091 32.723C164.559 32.444 164.92 32.0491 165.181 31.5384C165.443 31.0276 165.572 30.4439 165.572 29.7872C165.572 29.1176 165.443 28.521 165.19 28.006C164.937 27.4909 164.576 27.0918 164.108 26.8128C163.641 26.5338 163.1 26.3922 162.477 26.3922H153.812V21.4691H162.349C164.04 21.4691 165.525 21.8125 166.812 22.5035C168.1 23.1945 169.096 24.1646 169.804 25.4221C170.512 26.6754 170.868 28.1305 170.868 29.7829C170.868 31.4354 170.517 32.8861 169.804 34.1351C169.096 35.3841 168.1 36.3498 166.812 37.0323C165.525 37.7147 164.04 38.0581 162.349 38.0581H153.812V33.1436Z" fill="white"/>
<path d="M178.268 21.4734H181.513L191.874 48.5737H186.376L179.89 30.0662L173.405 48.5737H167.907L178.268 21.4734ZM172.881 39.3114H187.14V44.2344H172.881V39.3114Z" fill="white"/>
<path d="M198.467 48.4664C197.23 48.2046 196.067 47.8226 194.981 47.3204C193.895 46.8183 192.921 46.2131 192.063 45.5049L194.432 41.2943C195.475 42.1527 196.681 42.8137 198.046 43.2816C199.411 43.7494 200.814 43.9812 202.256 43.9812C203.922 43.9812 205.214 43.6979 206.132 43.1313C207.051 42.5648 207.51 41.7664 207.51 40.7363V40.7192C207.51 39.9981 207.304 39.4273 206.896 39.0023C206.484 38.5817 205.952 38.2684 205.291 38.071C204.63 37.8735 203.789 37.6932 202.754 37.5301C202.716 37.5173 202.681 37.513 202.651 37.513C202.621 37.513 202.587 37.5087 202.548 37.4958L202.136 37.44C200.321 37.1524 198.819 36.7962 197.625 36.367C196.432 35.9378 195.419 35.1867 194.587 34.1093C193.754 33.0363 193.337 31.5083 193.337 29.534V29.5168C193.337 27.7656 193.728 26.2677 194.514 25.023C195.295 23.7783 196.432 22.834 197.926 22.1816C199.419 21.5292 201.218 21.203 203.33 21.203C204.3 21.203 205.291 21.3146 206.304 21.5378C207.317 21.761 208.308 22.0872 209.278 22.5078C210.248 22.9284 211.167 23.4392 212.038 24.0358L209.875 28.3622C208.832 27.6412 207.742 27.0832 206.604 26.684C205.467 26.2848 204.377 26.0874 203.334 26.0874C201.767 26.0874 200.557 26.3449 199.698 26.86C198.84 27.375 198.411 28.1004 198.411 29.0318V29.049C198.411 29.8301 198.634 30.4525 199.08 30.9031C199.527 31.3581 200.08 31.6886 200.741 31.8989C201.402 32.1092 202.325 32.3324 203.518 32.5685C203.566 32.5814 203.617 32.5899 203.669 32.5942C203.716 32.6028 203.767 32.6114 203.819 32.62C203.892 32.6329 203.965 32.65 204.033 32.6672C204.102 32.6844 204.175 32.7015 204.248 32.7144C205.965 33.0492 207.394 33.4569 208.544 33.9334C209.695 34.4141 210.652 35.1824 211.424 36.2425C212.193 37.307 212.579 38.7577 212.579 40.5947V40.6333C212.579 42.3588 212.176 43.8395 211.369 45.0714C210.562 46.3032 209.386 47.2389 207.836 47.887C206.291 48.5351 204.428 48.857 202.252 48.857C200.965 48.857 199.703 48.7282 198.467 48.4664Z" fill="white"/>
<path d="M221.223 48.4664C219.987 48.2046 218.824 47.8226 217.738 47.3204C216.652 46.8183 215.678 46.2131 214.82 45.5049L217.189 41.2943C218.232 42.1527 219.438 42.8137 220.803 43.2816C222.168 43.7494 223.571 43.9812 225.013 43.9812C226.679 43.9812 227.971 43.6979 228.889 43.1313C229.808 42.5648 230.267 41.7664 230.267 40.7363V40.7192C230.267 39.9981 230.061 39.4273 229.653 39.0023C229.241 38.5817 228.709 38.2684 228.048 38.071C227.387 37.8735 226.546 37.6932 225.511 37.5301C225.473 37.5173 225.438 37.513 225.408 37.513C225.378 37.513 225.344 37.5087 225.305 37.4958L224.893 37.44C223.078 37.1524 221.575 36.7962 220.382 36.367C219.189 35.9378 218.176 35.1867 217.343 34.1093C216.511 33.0363 216.094 31.5083 216.094 29.534V29.5168C216.094 27.7656 216.485 26.2677 217.27 25.023C218.052 23.7783 219.189 22.834 220.683 22.1816C222.176 21.5292 223.975 21.203 226.086 21.203C227.056 21.203 228.048 21.3146 229.061 21.5378C230.074 21.761 231.065 22.0872 232.035 22.5078C233.005 22.9284 233.924 23.4392 234.795 24.0358L232.632 28.3622C231.589 27.6412 230.499 27.0832 229.361 26.684C228.224 26.2848 227.134 26.0874 226.091 26.0874C224.524 26.0874 223.314 26.3449 222.455 26.86C221.597 27.375 221.168 28.1004 221.168 29.0318V29.049C221.168 29.8301 221.391 30.4525 221.837 30.9031C222.284 31.3581 222.837 31.6886 223.498 31.8989C224.159 32.1092 225.082 32.3324 226.275 32.5685C226.322 32.5814 226.374 32.5899 226.425 32.5942C226.473 32.6028 226.524 32.6114 226.576 32.62C226.649 32.6329 226.722 32.65 226.79 32.6672C226.859 32.6844 226.932 32.7015 227.005 32.7144C228.717 33.0492 230.151 33.4569 231.301 33.9334C232.452 34.4141 233.409 35.1824 234.181 36.2425C234.95 37.307 235.336 38.7577 235.336 40.5947V40.6333C235.336 42.3588 234.932 43.8395 234.125 45.0714C233.319 46.3032 232.142 47.2389 230.593 47.887C229.048 48.5351 227.185 48.857 225.009 48.857C223.726 48.857 222.46 48.7282 221.223 48.4664Z" fill="white"/>
<path fill-rule="evenodd" clip-rule="evenodd" d="M2.76409 2.75978C5.64838 -0.124515 10.3268 -0.124515 13.2111 2.75978C16.0953 5.64407 16.0953 10.3225 13.2111 13.2067C10.3268 16.091 5.64838 16.091 2.76409 13.2067C-0.124489 10.3225 -0.124489 5.64407 2.76409 2.75978ZM5.41232 32.4053C6.9446 18.2156 18.2199 6.94457 32.4096 5.41229L29.0618 15.4515C22.6408 17.5632 17.5632 22.6365 15.4515 29.0618L5.41232 32.4053Z" fill="#9D9FA2"/>
<path fill-rule="evenodd" clip-rule="evenodd" d="M2.76409 58.2352C5.64838 55.3509 10.3268 55.3509 13.2111 58.2352C16.0954 61.1195 16.0954 65.7979 13.2111 68.6821C10.3268 71.5664 5.64838 71.5664 2.76409 68.6821C-0.124489 65.7979 -0.124489 61.1195 2.76409 58.2352ZM32.4053 66.0339C18.2156 64.5016 6.9446 53.2306 5.40803 39.0366L15.4472 42.3802C17.559 48.8011 22.6365 53.8787 29.0575 55.9904L32.4053 66.0339Z" fill="#8A8C8E"/>
<path fill-rule="evenodd" clip-rule="evenodd" d="M58.2352 58.2352C61.1195 55.3509 65.7979 55.3509 68.6821 58.2352C71.5664 61.1195 71.5664 65.7979 68.6821 68.6821C65.7979 71.5664 61.1195 71.5664 58.2352 68.6821C55.3509 65.7979 55.3509 61.1195 58.2352 58.2352ZM66.0339 39.0366C64.5016 53.2263 53.2263 64.4973 39.0366 66.0339L42.3845 55.9947C48.8054 53.883 53.883 48.8097 55.9947 42.3845L66.0339 39.0366Z" fill="#BCBEC0"/>
<path fill-rule="evenodd" clip-rule="evenodd" d="M58.2352 2.75978C61.1195 -0.124515 65.7979 -0.124515 68.6821 2.75978C71.5664 5.64407 71.5664 10.3225 68.6821 13.2067C65.7979 16.091 61.1195 16.091 58.2352 13.2067C55.3509 10.3225 55.3509 5.64407 58.2352 2.75978ZM39.0366 5.408C53.2263 6.94028 64.5016 18.2113 66.0339 32.401L55.9947 29.0575C53.883 22.6322 48.8097 17.5589 42.3845 15.4472L39.0366 5.408Z" fill="#6D6E71"/>
<path fill-rule="evenodd" clip-rule="evenodd" d="M35.7231 0L44.655 26.7913L71.4463 35.7188L44.655 44.6507L35.7231 71.442L26.7913 44.6507L0 35.7188L26.7913 26.7913L35.7231 0Z" fill="#77787B"/>
<path fill-rule="evenodd" clip-rule="evenodd" d="M35.7231 35.7188V71.442L26.7913 44.6507L35.7231 35.7188L44.655 44.6507L71.4463 35.7188H35.7231ZM35.7231 35.7188V0L44.6507 26.7913L35.7231 35.7188H0L26.7913 26.787L35.7231 35.7188Z" fill="white"/>
</svg>
