<svg width="315" height="206" viewBox="0 0 315 206" fill="none" xmlns="http://www.w3.org/2000/svg">
<path d="M110.31 11.57H102.23V0.109985H136.24V11.57H128.17C127.56 11.57 127.08 12.06 127.08 12.67V47.07L111.41 33.06V12.67C111.42 12.07 110.92 11.57 110.31 11.57ZM183.69 12.67V35.5L191.5 45.82L199.35 35.46V12.67C199.35 12.06 199.85 11.57 200.46 11.57H208.54V0.109985H174.53V11.57H182.6C183.21 11.57 183.69 12.07 183.69 12.67ZM236.33 32.57H244.41V21.1H215.42L191.51 52.68L167.59 21.1H138.6V32.56H146.67C147.28 32.56 147.77 33.05 147.77 33.66V71.11L91.83 21.1H66.34V32.56H74.4C75.01 32.56 75.5 33.05 75.5 33.66V78.97C75.5 79.58 75.01 80.07 74.4 80.07H66.34V91.53H99.85V80.07H92.27C91.66 80.07 91.17 79.58 91.17 78.97V41.53L147.12 91.55H163.45V41.58L191.51 78.64L219.57 41.58V78.98C219.57 79.59 219.08 80.08 218.47 80.08H210.88V91.54H244.41V80.08H236.33C235.72 80.08 235.23 79.59 235.23 78.98V33.67C235.23 33.06 235.72 32.57 236.33 32.57ZM183.67 75.15V94.5C183.67 94.93 183.5 95.35 183.2 95.66C179.85 99.05 169.82 105.5 155.4 105.5C140.97 105.5 130.95 99.04 127.6 95.66C127.3 95.35 127.13 94.94 127.13 94.5V79.2L111.46 65.19V97.76C111.46 98.24 111.62 98.72 111.91 99.1C122 112.3 138.88 117.76 155.4 117.76C171.92 117.76 188.8 112.29 198.89 99.1C199.18 98.72 199.34 98.24 199.34 97.76V75.14L191.51 85.48L183.67 75.15Z" fill="#BA0C2F"/>
<path d="M6.46 148.85H0.119995V145.6H16.34V148.85H10V165.58H6.46V148.85ZM20.05 145.59H23.56V153.9H33.1V145.59H36.61V165.58H33.1V157.16H23.56V165.58H20.05V145.59ZM41.09 145.59H55.91V148.73H44.61V153.93H54.63V157.07H44.61V162.44H56.06V165.58H41.09V145.59ZM74.22 157.1V145.59H77.73V156.96C77.73 160.67 79.64 162.67 82.78 162.67C85.89 162.67 87.81 160.78 87.81 157.1V145.59H91.32V156.92C91.32 162.89 87.95 165.89 82.73 165.89C77.53 165.89 74.22 162.89 74.22 157.1ZM96.25 145.59H99.5L110.21 159.41V145.59H113.66V165.58H110.72L99.7 151.36V165.58H96.25V145.59ZM119.49 145.59H123V165.58H119.49V145.59ZM126.71 145.59H130.59L136.61 160.95L142.61 145.59H146.41L138.1 165.72H135.02L126.71 145.59ZM150.02 145.59H164.84V148.73H153.53V153.93H163.55V157.07H153.53V162.44H164.98V165.58H150.02V145.59ZM169.43 145.59H178.34C180.85 145.59 182.82 146.33 184.11 147.59C185.17 148.68 185.77 150.16 185.77 151.9V151.96C185.77 155.24 183.8 157.21 181 158.01L186.4 165.58H182.26L177.35 158.61H172.95V165.58H169.44V145.59H169.43ZM178.08 155.5C180.59 155.5 182.19 154.19 182.19 152.16V152.1C182.19 149.96 180.65 148.79 178.05 148.79H172.94V155.5H178.08ZM188.89 162.67L191 160.16C192.91 161.82 194.83 162.76 197.31 162.76C199.48 162.76 200.85 161.76 200.85 160.25V160.19C200.85 158.76 200.05 157.99 196.34 157.13C192.08 156.1 189.69 154.85 189.69 151.16V151.1C189.69 147.67 192.55 145.3 196.51 145.3C199.42 145.3 201.74 146.18 203.76 147.81L201.88 150.46C200.08 149.12 198.28 148.4 196.45 148.4C194.39 148.4 193.19 149.46 193.19 150.77V150.83C193.19 152.37 194.1 153.06 197.93 153.97C202.16 155 204.36 156.51 204.36 159.82V159.88C204.36 163.62 201.42 165.85 197.22 165.85C194.17 165.86 191.29 164.81 188.89 162.67ZM208.39 145.59H211.9V165.58H208.39V145.59ZM221.7 148.85H215.36V145.6H231.58V148.85H225.24V165.58H221.7V148.85ZM241.86 157.7L233.92 145.59H238.06L243.66 154.44L249.31 145.59H253.34L245.4 157.61V165.58H241.86V157.7ZM268.81 155.64V155.58C268.81 149.95 273.15 145.24 279.29 145.24C285.43 145.24 289.71 149.89 289.71 155.52V155.58C289.71 161.2 285.37 165.92 279.23 165.92C273.09 165.92 268.81 161.27 268.81 155.64ZM286.02 155.64V155.58C286.02 151.7 283.19 148.47 279.22 148.47C275.25 148.47 272.48 151.64 272.48 155.52V155.58C272.48 159.46 275.31 162.69 279.28 162.69C283.25 162.69 286.02 159.52 286.02 155.64ZM293.59 145.59H308.47V148.79H297.1V154.24H307.18V157.44H297.1V165.58H293.59V145.59ZM0.119995 172.28H5.37L22.65 194.58V172.28H28.23V204.54H23.48L5.7 181.59V204.54H0.119995V172.28ZM35.61 172.28H59.53V177.35H41.28V185.74H57.45V190.81H41.28V199.47H59.76V204.54H35.61V172.28ZM63.51 172.28H69.64L77.34 196.2L85.27 172.19H90.06L97.99 196.2L105.69 172.28H111.63L100.39 204.77H95.51L87.58 181.59L79.65 204.77H74.77L63.51 172.28ZM131.03 172.28H137.07L146.89 187.53L156.71 172.28H162.75V204.54H157.08V181.4L146.9 196.61H146.72L136.63 181.5V204.54H131.05V172.28H131.03ZM170.26 172.28H194.18V177.35H175.93V185.74H192.1V190.81H175.93V199.47H194.41V204.54H170.26V172.28ZM210.75 188.13L199.46 172.28H206.14L214.16 183.85L222.22 172.28H228.72L217.48 188.04L229.18 204.54H222.5L214.02 192.33L205.49 204.54H199L210.75 188.13ZM234.45 172.28H240.12V204.54H234.45V172.28ZM276.83 188.5V188.41C276.83 179.33 283.83 171.73 293.74 171.73C303.65 171.73 310.56 179.24 310.56 188.32V188.41C310.56 197.49 303.56 205.09 293.65 205.09C283.74 205.09 276.83 197.58 276.83 188.5ZM304.86 188.5V188.41C304.86 182.14 300.3 176.94 293.89 176.94C287.48 176.94 283.01 182.06 283.01 188.32V188.41C283.01 194.68 287.57 199.88 293.98 199.88C300.39 199.88 304.86 194.77 304.86 188.5ZM271.33 195.96C269.4 198.36 266.49 199.88 263 199.88C256.6 199.88 252.03 194.67 252.03 188.41V188.32C252.03 182.05 256.5 176.94 262.9 176.94C266.41 176.94 269.36 178.51 271.32 180.96C271.96 179.02 272.84 177.2 273.93 175.54C271.07 173.17 267.32 171.74 263 171.74C253.09 171.74 246.09 179.34 246.09 188.42V188.51C246.09 197.59 253 205.1 262.91 205.1C267.23 205.1 271 203.65 273.88 201.27C272.81 199.63 271.96 197.85 271.33 195.96ZM313.65 204.27C313.08 204.82 312.41 205.09 311.61 205.09C310.79 205.09 310.1 204.81 309.54 204.25C308.98 203.69 308.7 203 308.7 202.18C308.7 201.33 309 200.62 309.61 200.06C310.18 199.53 310.85 199.27 311.61 199.27C312.41 199.27 313.1 199.55 313.67 200.12C314.24 200.69 314.52 201.37 314.52 202.18C314.52 203.01 314.23 203.7 313.65 204.27ZM309.91 200.49C309.45 200.96 309.22 201.53 309.22 202.18C309.22 202.85 309.46 203.43 309.93 203.9C310.4 204.37 310.96 204.61 311.63 204.61C312.29 204.61 312.85 204.37 313.32 203.9C313.79 203.42 314.02 202.85 314.02 202.19C314.02 201.54 313.79 200.98 313.32 200.5C312.85 200.02 312.28 199.77 311.62 199.77C310.95 199.77 310.38 200.01 309.91 200.49ZM310.34 203.8V200.58C310.54 200.58 311.86 200.59 311.9 200.59C312.16 200.61 312.37 200.66 312.54 200.76C312.83 200.92 312.97 201.17 312.97 201.53C312.97 201.8 312.89 202 312.74 202.12C312.59 202.24 312.4 202.31 312.18 202.34C312.38 202.38 312.54 202.44 312.64 202.53C312.83 202.68 312.92 202.92 312.92 203.25V203.54C312.92 203.57 312.92 203.6 312.93 203.64C312.93 203.67 312.94 203.7 312.95 203.73L312.98 203.82H312.17C312.14 203.72 312.13 203.57 312.12 203.37C312.11 203.18 312.09 203.04 312.07 202.98C312.03 202.87 311.95 202.79 311.83 202.74C311.77 202.71 311.67 202.7 311.54 202.69L311.35 202.68H311.17V203.82H310.34V203.8ZM311.88 201.21C311.76 201.17 311.6 201.14 311.39 201.14H311.18V202.08H311.51C311.71 202.08 311.86 202.04 311.97 201.96C312.08 201.88 312.14 201.75 312.14 201.58C312.14 201.4 312.05 201.28 311.88 201.21Z" fill="#63666A"/>
</svg>
