<svg width="411" height="94" viewBox="0 0 411 94" fill="none" xmlns="http://www.w3.org/2000/svg">
<path d="M20.5 28.4C20.8 28.3 21 28.2 21.5 28.1C21.6 28.1 21.7 28.1 21.9 28.1C22.3 28.1 22.6 28.2 22.9 28.3C24.5 28.8 25.5 30.4 25.2 32L22.1001 53.1L46.5 29.1C47.1 28.5 48 28.1 48.9 28.1C49.4 28.1 50 28.2 50.4 28.5C51.7 29.2 52.4 30.6 52.2 32L49.1001 53L73.4 29.1C74 28.5 74.9 28.1 75.8 28.1C76.3 28.1 76.9 28.2 77.3 28.5C78.6 29.2 79.3 30.6 79.1001 32L75.2001 58.1C79.7001 56.2 86.3 53 93.4 48.6L93.7001 48.4C94.3001 29.2 82.9 10.9 64 3.60001C40 -5.79999 13.0001 6.10001 3.60005 30.1C2.20005 33.7 1.30005 37.3 0.800049 40.9C9.10005 35.2 17.1 29.8 20.3 28.5C20.4 28.4 20.5 28.4 20.5 28.4Z" fill="#006B5C"/>
<path d="M71.2 65.9C70.6 65.9 70.2 65.8 69.8 65.6C69.4 65.4 69.1 65.2 68.8 64.9C68.1 64.3 67.8 63.4 67.8 62.5C67.8 62.2 67.8 61.9 67.9 61.7L71 41L46.8 64.8C46.2 65.5 45.2 66 44.2 66C42.8 66 41.6 65.2 41.1 63.9C40.8 63.2 40.8 62.5 40.9 61.9L44 41L19.6 65C19 65.6 18.1 65.9 17.2 65.9C16.2 65.9 15.2 65.5 14.6 64.8C13.9 64 13.6 63 13.8 62.1L17.7 35.9C13.6 37.7 7.50002 40.5 0.800018 44.6L0.500015 44.8C-0.499985 64.3 11 83.1 30.1 90.5C54.1 99.9 81.1 88 90.5 64C92 60.1 93 56.1 93.4 52.1C84 58.6 76.6 63.7 73.3 65.4C72.8 65.5 71.9 65.9 71.2 65.9Z" fill="#006B5C"/>
<path d="M143.9 63.1001H139.6V37.8L129 55.4001H128.4L117.8 37.8V63.1001H113.5V30.7001H118.4L128.7 47.8L139 30.7001H143.9V63.1001Z" fill="#0C2949"/>
<path d="M173.9 39.9001V63.0001H169.9V59.0001C168 61.8001 165.1 63.6001 161.2 63.6001C154.8 63.6001 149.5 58.3001 149.5 51.4001C149.5 44.6001 154.8 39.2001 161.2 39.2001C165.1 39.2001 168.1 41 169.9 43.8V39.8H173.9V39.9001ZM169.9 51.5001C169.9 46.8001 166.3 43.2001 161.7 43.2001C157.1 43.2001 153.5 46.8001 153.5 51.5001C153.5 56.2001 157.1 59.8 161.7 59.8C166.3 59.8 169.9 56.2001 169.9 51.5001Z" fill="#0C2949"/>
<path d="M186.4 43.8V56.3C186.4 59.8 188.4 59.6 192.6 59.4V63C185.7 63.9 182.4 62.1 182.4 56.3V43.8H177.8V39.9H182.4V34.6L186.4 33.4V39.9H192.6V43.8H186.4Z" fill="#0C2949"/>
<path d="M217.7 48.9001V63.1001H213.7V49.1001C213.7 45.3001 211.5 43.2001 208 43.2001C204.3 43.2001 201.3 45.4 201.3 50.8V63.1001H197.3V30.7001H201.3V43.3C203 40.6 205.6 39.4001 208.8 39.4001C214.2 39.3001 217.7 43.0001 217.7 48.9001Z" fill="#0C2949"/>
<path d="M235 59.9001C238.2 59.9001 240.5 58.4001 241.7 56.5001L245.1 58.4001C243.1 61.5001 239.5 63.6001 234.9 63.6001C227.5 63.6001 222.5 58.4001 222.5 51.4001C222.5 44.6001 227.4 39.2001 234.6 39.2001C241.6 39.2001 246.1 44.9001 246.1 51.4001C246.1 52.0001 246.1 52.6001 246 53.2001H226.6C227.4 57.5001 230.7 59.9001 235 59.9001ZM226.6 49.8H242.1C241.4 45.2 238.1 43.1001 234.7 43.1001C230.3 43.1001 227.2 45.8 226.6 49.8Z" fill="#0C2949"/>
<path d="M284.8 48.7V63.1H280.8V48.8C280.8 45.1 278.8 43.2 275.7 43.2C272.5 43.2 270 45.2 270 50.2V63.1H266V48.8C266 45.1 264.1 43.2 261.1 43.2C258 43.2 255.2 45.2 255.2 50.2V63.1H251.2V40H255.2V43.1C256.9 40.5 259.3 39.4 262.1 39.4C265.2 39.4 267.6 40.8 268.9 43.3C270.5 40.7 273.2 39.4 276.2 39.4C281.3 39.3 284.8 42.9 284.8 48.7Z" fill="#0C2949"/>
<path d="M314.1 39.9001V63.0001H310.1V59.0001C308.2 61.8001 305.3 63.6001 301.4 63.6001C295 63.6001 289.7 58.3001 289.7 51.4001C289.7 44.6001 295 39.2001 301.4 39.2001C305.3 39.2001 308.3 41 310.1 43.8V39.8H314.1V39.9001ZM310.1 51.5001C310.1 46.8001 306.5 43.2001 301.9 43.2001C297.3 43.2001 293.7 46.8001 293.7 51.5001C293.7 56.2001 297.3 59.8 301.9 59.8C306.5 59.8 310.1 56.2001 310.1 51.5001Z" fill="#0C2949"/>
<path d="M326.6 43.8V56.3C326.6 59.8 328.6 59.6 332.8 59.4V63C325.9 63.9 322.6 62.1 322.6 56.3V43.8H318V39.9H322.6V34.6L326.6 33.4V39.9H332.8V43.8H326.6Z" fill="#0C2949"/>
<path d="M336.4 33.0001C336.4 31.5001 337.6 30.3 339.1 30.3C340.6 30.3 341.8 31.5001 341.8 33.0001C341.8 34.5001 340.6 35.7001 339.1 35.7001C337.6 35.7001 336.4 34.5001 336.4 33.0001ZM337.1 39.9001H341.1V63.0001H337.1V39.9001Z" fill="#0C2949"/>
<path d="M346 51.5001C346 44.7001 351.2 39.3 358.2 39.3C362.8 39.3 366.7 41.7001 368.4 45.4001L365 47.3C363.8 44.8 361.3 43.2001 358.2 43.2001C353.6 43.2001 350.1 46.8001 350.1 51.4001C350.1 56.0001 353.6 59.6001 358.2 59.6001C361.3 59.6001 363.9 58.0001 365.2 55.6001L368.6 57.6001C366.7 61.2001 362.7 63.6001 358.2 63.6001C351.2 63.7001 346 58.4001 346 51.5001Z" fill="#0C2949"/>
<path d="M395.9 39.9001V63.0001H391.9V59.0001C390 61.8001 387.1 63.6001 383.2 63.6001C376.8 63.6001 371.5 58.3001 371.5 51.4001C371.5 44.6001 376.8 39.2001 383.2 39.2001C387.1 39.2001 390.1 41 391.9 43.8V39.8H395.9V39.9001ZM391.8 51.5001C391.8 46.8001 388.2 43.2001 383.6 43.2001C379 43.2001 375.4 46.8001 375.4 51.5001C375.4 56.2001 379 59.8 383.6 59.8C388.3 59.8 391.8 56.2001 391.8 51.5001Z" fill="#0C2949"/>
<path d="M410.1 58.6C410.1 61.2 408.1 63.2 405.5 63.2C402.9 63.2 400.9 61.2 400.9 58.6C400.9 56 402.9 54 405.5 54C408.1 54.1 410.1 56 410.1 58.6ZM409.3 58.6C409.3 56.4 407.7 54.7 405.5 54.7C403.3 54.7 401.6 56.4 401.6 58.6C401.6 60.8 403.2 62.5 405.4 62.5C407.7 62.5 409.3 60.8 409.3 58.6ZM406.8 59.5L407.9 61.3H406.8L405.8 59.7H405.7H404.7V61.3H403.6V56.2H405.7C407.1 56.2 407.9 56.9 407.9 58C407.8 58.6 407.5 59.2 406.8 59.5ZM405.6 58.8C406.3 58.8 406.7 58.5 406.7 57.9C406.7 57.3 406.3 57 405.6 57H404.6V58.8H405.6Z" fill="#0C2949"/>
</svg>
