<svg width="792" height="612" viewBox="0 0 792 612" fill="none" xmlns="http://www.w3.org/2000/svg">
<path d="M217.5 287.4C217.8 287.3 218 287.2 218.5 287.1C218.6 287.1 218.7 287.1 218.9 287.1C219.3 287.1 219.6 287.2 219.9 287.3C221.5 287.8 222.5 289.4 222.2 291L219.1 312.1L243.5 288.1C244.1 287.5 245 287.1 245.9 287.1C246.4 287.1 247 287.2 247.4 287.5C248.7 288.2 249.4 289.6 249.2 291L246.1 312L270.4 288.1C271 287.5 271.9 287.1 272.8 287.1C273.3 287.1 273.9 287.2 274.3 287.5C275.6 288.2 276.3 289.6 276.1 291L272.2 317.1C276.7 315.2 283.3 312 290.4 307.6L290.7 307.4C291.3 288.2 279.9 269.9 261 262.6C237 253.2 210 265.1 200.6 289.1C199.2 292.7 198.3 296.3 197.8 299.9C206.1 294.2 214.1 288.8 217.3 287.5C217.4 287.4 217.5 287.4 217.5 287.4Z" fill="white"/>
<path d="M268.2 324.9C267.6 324.9 267.2 324.8 266.8 324.6C266.4 324.4 266.1 324.2 265.8 323.9C265.1 323.3 264.8 322.4 264.8 321.5C264.8 321.2 264.8 320.9 264.9 320.7L268 300L243.8 323.8C243.2 324.5 242.2 325 241.2 325C239.8 325 238.6 324.2 238.1 322.9C237.8 322.2 237.8 321.5 237.9 320.9L241 300L216.6 324C216 324.6 215.1 324.9 214.2 324.9C213.2 324.9 212.2 324.5 211.6 323.8C210.9 323 210.6 322 210.8 321.1L214.7 294.9C210.6 296.7 204.5 299.5 197.8 303.6L197.5 303.8C196.5 323.3 208 342.1 227.1 349.5C251.1 358.9 278.1 347 287.5 323C289 319.1 290 315.1 290.4 311.1C281 317.6 273.6 322.7 270.3 324.4C269.8 324.5 268.9 324.9 268.2 324.9Z" fill="white"/>
<path d="M340.9 322.1H336.6V296.8L326 314.4H325.4L314.8 296.8V322.1H310.5V289.7H315.4L325.7 306.8L336 289.7H340.9V322.1Z" fill="white"/>
<path d="M370.9 298.9V322H366.9V318C365 320.8 362.1 322.6 358.2 322.6C351.8 322.6 346.5 317.3 346.5 310.4C346.5 303.6 351.8 298.2 358.2 298.2C362.1 298.2 365.1 300 366.9 302.8V298.8H370.9V298.9ZM366.9 310.5C366.9 305.8 363.3 302.2 358.7 302.2C354.1 302.2 350.5 305.8 350.5 310.5C350.5 315.2 354.1 318.8 358.7 318.8C363.3 318.8 366.9 315.2 366.9 310.5Z" fill="white"/>
<path d="M383.4 302.8V315.3C383.4 318.8 385.4 318.6 389.6 318.4V322C382.7 322.9 379.4 321.1 379.4 315.3V302.8H374.8V298.9H379.4V293.6L383.4 292.4V298.9H389.6V302.8H383.4Z" fill="white"/>
<path d="M414.7 307.9V322.1H410.7V308.1C410.7 304.3 408.5 302.2 405 302.2C401.3 302.2 398.3 304.4 398.3 309.8V322.1H394.3V289.7H398.3V302.3C400 299.6 402.6 298.4 405.8 298.4C411.2 298.3 414.7 302 414.7 307.9Z" fill="white"/>
<path d="M432 318.9C435.2 318.9 437.5 317.4 438.7 315.5L442.1 317.4C440.1 320.5 436.5 322.6 431.9 322.6C424.5 322.6 419.5 317.4 419.5 310.4C419.5 303.6 424.4 298.2 431.6 298.2C438.6 298.2 443.1 303.9 443.1 310.4C443.1 311 443.1 311.6 443 312.2H423.6C424.4 316.5 427.7 318.9 432 318.9ZM423.6 308.8H439.1C438.4 304.2 435.1 302.1 431.7 302.1C427.3 302.1 424.2 304.8 423.6 308.8Z" fill="white"/>
<path d="M481.8 307.7V322.1H477.8V307.8C477.8 304.1 475.8 302.2 472.7 302.2C469.5 302.2 467 304.2 467 309.2V322.1H463V307.8C463 304.1 461.1 302.2 458.1 302.2C455 302.2 452.2 304.2 452.2 309.2V322.1H448.2V299H452.2V302.1C453.9 299.5 456.3 298.4 459.1 298.4C462.2 298.4 464.6 299.8 465.9 302.3C467.5 299.7 470.2 298.4 473.2 298.4C478.3 298.3 481.8 301.9 481.8 307.7Z" fill="white"/>
<path d="M511.1 298.9V322H507.1V318C505.2 320.8 502.3 322.6 498.4 322.6C492 322.6 486.7 317.3 486.7 310.4C486.7 303.6 492 298.2 498.4 298.2C502.3 298.2 505.3 300 507.1 302.8V298.8H511.1V298.9ZM507.1 310.5C507.1 305.8 503.5 302.2 498.9 302.2C494.3 302.2 490.7 305.8 490.7 310.5C490.7 315.2 494.3 318.8 498.9 318.8C503.5 318.8 507.1 315.2 507.1 310.5Z" fill="white"/>
<path d="M523.6 302.8V315.3C523.6 318.8 525.6 318.6 529.8 318.4V322C522.9 322.9 519.6 321.1 519.6 315.3V302.8H515V298.9H519.6V293.6L523.6 292.4V298.9H529.8V302.8H523.6Z" fill="white"/>
<path d="M533.4 292C533.4 290.5 534.6 289.3 536.1 289.3C537.6 289.3 538.8 290.5 538.8 292C538.8 293.5 537.6 294.7 536.1 294.7C534.6 294.7 533.4 293.5 533.4 292ZM534.1 298.9H538.1V322H534.1V298.9Z" fill="white"/>
<path d="M543 310.5C543 303.7 548.2 298.3 555.2 298.3C559.8 298.3 563.7 300.7 565.4 304.4L562 306.3C560.8 303.8 558.3 302.2 555.2 302.2C550.6 302.2 547.1 305.8 547.1 310.4C547.1 315 550.6 318.6 555.2 318.6C558.3 318.6 560.9 317 562.2 314.6L565.6 316.6C563.7 320.2 559.7 322.6 555.2 322.6C548.2 322.7 543 317.4 543 310.5Z" fill="white"/>
<path d="M592.9 298.9V322H588.9V318C587 320.8 584.1 322.6 580.2 322.6C573.8 322.6 568.5 317.3 568.5 310.4C568.5 303.6 573.8 298.2 580.2 298.2C584.1 298.2 587.1 300 588.9 302.8V298.8H592.9V298.9ZM588.8 310.5C588.8 305.8 585.2 302.2 580.6 302.2C576 302.2 572.4 305.8 572.4 310.5C572.4 315.2 576 318.8 580.6 318.8C585.3 318.8 588.8 315.2 588.8 310.5Z" fill="white"/>
<path d="M607.1 317.6C607.1 320.2 605.1 322.2 602.5 322.2C599.9 322.2 597.9 320.2 597.9 317.6C597.9 315 599.9 313 602.5 313C605.1 313.1 607.1 315 607.1 317.6ZM606.3 317.6C606.3 315.4 604.7 313.7 602.5 313.7C600.3 313.7 598.6 315.4 598.6 317.6C598.6 319.8 600.2 321.5 602.4 321.5C604.7 321.5 606.3 319.8 606.3 317.6ZM603.8 318.5L604.9 320.3H603.8L602.8 318.7H602.7H601.7V320.3H600.6V315.2H602.7C604.1 315.2 604.9 315.9 604.9 317C604.8 317.6 604.5 318.2 603.8 318.5ZM602.6 317.8C603.3 317.8 603.7 317.5 603.7 316.9C603.7 316.3 603.3 316 602.6 316H601.6V317.8H602.6Z" fill="white"/>
</svg>
